<?xml version="1.0" encoding="UTF-8" standalone="no" ?>
<!DOCTYPE svg PUBLIC "-//W3C//DTD SVG 1.1//EN" "http://www.w3.org/Graphics/SVG/1.1/DTD/svg11.dtd">
<svg xmlns="http://www.w3.org/2000/svg" xmlns:xlink="http://www.w3.org/1999/xlink" version="1.1" width="480" height="480" viewBox="0 0 480 480" xml:space="preserve">
<desc>Created with Fabric.js 4.6.0</desc>
<defs>
</defs>
<g transform="matrix(0.75 0 0 0.75 239.96 239.96)" id="6ThjUOi1GS0SC_idgeo3e"  >
<g style="" vector-effect="non-scaling-stroke"   >
		<g transform="matrix(1 0 0 1 -163.53 -95.62)" id="rZYFjoy6j-OPa0yTg4G3E"  >
<path style="stroke: none; stroke-width: 1; stroke-dasharray: none; stroke-linecap: butt; stroke-dashoffset: 0; stroke-linejoin: miter; stroke-miterlimit: 4; fill: rgb(48,54,54); fill-rule: nonzero; opacity: 1;" vector-effect="non-scaling-stroke"  transform=" translate(-156.47, -224.38)" d="M 306.71 352.15 L 285.15 342.56 L 169.08 331.68 C 132.51 329.6 108.14 325.03 95.98 317.98 C 83.82 310.93 78.31 301.41 79.44 289.4 C 73.01 289.07 69.18 286.03 67.96 280.27 C 66.75 274.51 68.14 266.03 72.13 254.84 C 63.57 251.84 59.28 247.75 59.28 242.56 C 59.28 234.77 72.13 232.07 72.13 223.71 C 72.13 215.34 61.97 219.92 57.54 213.28 C 53.11 206.64 55.2 205.55 54.42 197.14 C 53.89 191.53 53.89 185.7 54.42 179.64 L 31.88 162.53 L 31.88 153.57 C 21.77 145.7 15.33 139.14 12.54 133.91 C 9.75 128.67 10.62 124.75 15.15 122.14 C 11.19 125.74 8.55 125.74 7.23 122.14 C 5.91 118.55 5.91 111.36 7.23 100.58 C 26.38 95.29 48.75 95.29 74.31 100.58 C 99.88 105.87 136.99 124.79 185.65 157.34 L 242.51 207.24 L 301.92 302.35 L 306.71 352.15 Z" stroke-linecap="round" />
</g>
		<g transform="matrix(1 0 0 1 -113.05 133.23)" id="9Pxs11ZrsQbY757ej0MA7"  >
<path style="stroke: none; stroke-width: 1; stroke-dasharray: none; stroke-linecap: butt; stroke-dashoffset: 0; stroke-linejoin: miter; stroke-miterlimit: 4; fill: rgb(48,54,54); fill-rule: nonzero; opacity: 1;" vector-effect="non-scaling-stroke"  transform=" translate(-206.95, -453.23)" d="M 323.48 404.85 L 318.69 457.56 L 282.76 531.16 L 267.66 537.94 L 260.98 552.99 L 235.07 559.86 C 233.23 567.27 229.71 570.72 224.5 570.2 C 219.28 569.68 212.38 565.2 203.79 556.75 L 182.86 559.86 L 162.23 534.23 C 149.57 537.13 141.14 535.39 136.92 529.02 C 132.7 522.65 132.7 511.66 136.92 496.03 C 129.5 495.61 124.16 492.01 120.91 485.24 C 117.67 478.46 116.51 468.51 117.44 455.37 C 108.67 455.7 103.2 453 101.05 447.29 C 98.9 441.57 99.59 433.77 103.14 423.87 C 94.55 419.16 90.31 414.44 90.43 409.72 C 90.54 404.9 93.32 402.46 95.78 394.68 C 96.93 391.03 95.31 382.94 98.27 378.84 C 107.53 366 102.45 369.01 127.45 358.39 C 152.45 347.76 153.46 337.89 198.28 336.33 C 228.15 335.29 264.3 340.56 306.71 352.15 L 323.48 404.85 Z" stroke-linecap="round" />
</g>
		<g transform="matrix(1 0 0 1 163.17 -96.25)" id="c6yWjaprDi2wbVPacN20h"  >
<path style="stroke: none; stroke-width: 1; stroke-dasharray: none; stroke-linecap: butt; stroke-dashoffset: 0; stroke-linejoin: miter; stroke-miterlimit: 4; fill: rgb(51,57,57); fill-rule: nonzero; opacity: 1;" vector-effect="non-scaling-stroke"  transform=" translate(-483.17, -223.75)" d="M 340.26 345.92 L 361.82 336.33 L 462.33 333.29 L 554.73 323.22 C 565.07 308.56 571.04 296.34 572.66 286.55 C 574.27 276.76 571.52 269.4 564.41 264.47 C 570.97 259.56 574.49 254.32 574.96 248.74 C 575.42 243.16 570.76 237.24 560.97 230.98 C 570.35 225.57 576.01 219.54 577.96 212.9 C 579.91 206.26 578.14 199 572.66 191.13 C 578.83 183.35 585.18 175.4 591.7 167.28 C 601.49 155.1 606.79 150.8 611.82 142.43 C 615.17 136.84 615.17 133.96 611.82 133.78 C 618.14 130.52 622.58 125.61 625.15 119.04 C 629 109.18 621.08 102.61 597.01 101.65 C 580.96 101 563.12 104.48 543.47 112.07 C 529.96 108.98 513.06 112.95 492.77 123.98 C 462.33 140.51 452.85 149.7 421.72 178.21 C 390.58 206.71 388.58 205.65 368.22 238 C 354.64 259.56 345.32 282.76 340.26 307.58 L 340.26 345.92 Z" stroke-linecap="round" />
</g>
		<g transform="matrix(1 0 0 1 127.83 131.99)" id="n8CCG_pU7xgN5mWkELA1z"  >
<path style="stroke: none; stroke-width: 1; stroke-dasharray: none; stroke-linecap: butt; stroke-dashoffset: 0; stroke-linejoin: miter; stroke-miterlimit: 4; fill: rgb(48,54,54); fill-rule: nonzero; opacity: 1;" vector-effect="non-scaling-stroke"  transform=" translate(-447.83, -451.99)" d="M 323.48 398.63 L 335.57 409.65 L 331.71 434.65 L 365.15 485.27 L 392.41 528 L 420.25 548.42 L 446.39 559.88 C 451.3 565.66 456.08 568.29 460.73 567.77 C 465.39 567.25 469.91 563.58 474.32 556.75 C 487.02 558.88 496.77 558.07 503.58 554.32 C 510.38 550.57 514.24 543.88 515.15 534.26 C 527.55 535.56 535.82 532.77 539.95 525.88 C 544.08 518.99 544.08 507.99 539.95 492.9 C 547.48 493.18 552.2 490.64 554.11 485.27 C 556.02 479.91 555.12 471.72 551.42 460.71 C 559.55 459.12 564.19 455.08 565.33 448.6 C 566.48 442.13 565.59 434.25 562.67 424.97 C 569.01 420.89 572.18 416.39 572.18 411.48 C 572.18 406.57 569.01 402.28 562.67 398.63 C 565.25 391.55 562.39 384.4 554.11 377.17 C 545.83 369.94 536.52 364.38 526.18 360.48 C 506.09 345.42 481.65 337.37 452.86 336.33 C 424.07 335.29 386.54 338.49 340.26 345.92 L 323.48 398.63 Z" stroke-linecap="round" />
</g>
		<g transform="matrix(1 0 0 1 141.57 -90.94)" id="VnPnPTHnzPkIcPZDKpLK7"  >
<path style="stroke: none; stroke-width: 1; stroke-dasharray: none; stroke-linecap: butt; stroke-dashoffset: 0; stroke-linejoin: miter; stroke-miterlimit: 4; fill: rgb(67,204,232); fill-rule: nonzero; opacity: 1;" vector-effect="non-scaling-stroke"  transform=" translate(-461.57, -229.06)" d="M 346.51 336.33 C 351.55 340.34 390.22 338.24 462.54 330.02 L 547.66 317.49 L 545.57 321.66 C 550.92 314.19 555.09 308.4 558.08 304.29 C 561.06 300.17 562.87 294.73 563.49 287.96 L 555.99 282.4 C 559.99 279.62 561.73 276.49 561.2 273.02 C 560.68 269.54 557.9 265.72 552.87 261.55 C 560.96 259.88 565.13 257.33 565.37 253.91 C 565.62 250.5 561.94 246.21 554.33 241.06 L 558.08 231.33 L 552.87 220.91 C 558.18 218.39 560.96 215.81 561.2 213.16 C 561.57 209.18 553.31 207.27 554.33 204.99 C 556.1 201.03 559.15 198.41 563.49 197.14 L 558.08 188.8 L 565.37 183.39 L 563.49 172.62 C 566.68 169.19 568.67 167.05 569.47 166.2 C 570.23 165.38 570.06 164.08 569.12 163.49 C 567.36 162.39 567.16 161.09 568.5 159.59 C 570.68 157.15 573.99 156.06 578.43 156.29 L 568.5 144.48 L 572.67 146.91 L 578.43 136.49 L 572.67 119.81 L 536.19 121.9 C 537.93 130.41 537.23 135.27 534.11 136.49 C 530.98 137.71 525.42 135.27 517.43 129.19 C 508.55 132.6 499.76 136.57 491.07 141.13 C 475.61 149.23 460.46 159.14 445.6 170.88 C 410.76 198.4 405.66 199.7 380.89 241.06 C 356.12 282.42 338.95 330.32 346.51 336.33 Z" stroke-linecap="round" />
</g>
		<g transform="matrix(1 0 0 1 141.57 -90.94)" id="kUpidC8HprzP4tYSm27o7"  >
<path style="stroke: rgb(0,0,0); stroke-width: 1; stroke-dasharray: none; stroke-linecap: butt; stroke-dashoffset: 0; stroke-linejoin: miter; stroke-miterlimit: 4; fill: rgb(0,0,0); fill-opacity: 0; fill-rule: nonzero; opacity: 1;" vector-effect="non-scaling-stroke"  transform=" translate(-461.57, -229.06)" d="M 346.51 336.33 C 351.55 340.34 390.22 338.24 462.54 330.02 L 547.66 317.49 L 545.57 321.66 C 550.92 314.19 555.09 308.4 558.08 304.29 C 561.06 300.17 562.87 294.73 563.49 287.96 L 555.99 282.4 C 559.99 279.62 561.73 276.49 561.2 273.02 C 560.68 269.54 557.9 265.72 552.87 261.55 C 560.96 259.88 565.13 257.33 565.37 253.91 C 565.62 250.5 561.94 246.21 554.33 241.06 L 558.08 231.33 L 552.87 220.91 C 558.18 218.39 560.96 215.81 561.2 213.16 C 561.57 209.18 553.31 207.27 554.33 204.99 C 556.1 201.03 559.15 198.41 563.49 197.14 L 558.08 188.8 L 565.37 183.39 L 563.49 172.62 C 566.68 169.19 568.67 167.05 569.47 166.2 C 570.23 165.38 570.06 164.08 569.12 163.49 C 567.36 162.39 567.16 161.09 568.5 159.59 C 570.68 157.15 573.99 156.06 578.43 156.29 L 568.5 144.48 L 572.67 146.91 L 578.43 136.49 L 572.67 119.81 L 536.19 121.9 C 537.93 130.41 537.23 135.27 534.11 136.49 C 530.98 137.71 525.42 135.27 517.43 129.19 C 508.55 132.6 499.76 136.57 491.07 141.13 C 475.61 149.23 460.46 159.14 445.6 170.88 C 410.76 198.4 405.66 199.7 380.89 241.06 C 356.12 282.42 338.95 330.32 346.51 336.33 Z" stroke-linecap="round" />
</g>
		<g transform="matrix(1 0 0 1 134.41 127.24)" id="5pO6tH6mTXa9XKAkM2dNy"  >
<path style="stroke: none; stroke-width: 1; stroke-dasharray: none; stroke-linecap: butt; stroke-dashoffset: 0; stroke-linejoin: miter; stroke-miterlimit: 4; fill: rgb(38,186,214); fill-rule: nonzero; opacity: 1;" vector-effect="non-scaling-stroke"  transform=" translate(-454.41, -447.24)" d="M 344.71 374.09 C 387.28 459.53 413.52 510.55 423.43 527.15 C 447.28 567.1 433.33 523.68 440.1 529.93 C 446.88 536.18 445.16 548.86 450.52 552.17 C 455.89 555.47 456.01 544.18 461.57 543.13 C 467.13 542.09 456.76 553.03 472.76 548 C 488.76 542.96 520.7 528.54 525.56 522.98 C 528.81 519.28 532.51 506.31 536.68 484.07 L 544.32 477.13 L 542.24 459.06 C 550.23 452.92 555.09 446.9 556.83 441 C 558.57 435.09 557.18 429.3 552.66 423.63 L 565.17 409.04 L 556.83 398.61 L 556.83 391.67 C 534.71 367.75 506.69 352.5 472.76 345.92 C 438.83 339.33 398.99 340.48 353.25 349.37 C 348.98 351.21 346.13 353.96 344.71 357.62 C 343.29 361.28 343.29 366.77 344.71 374.09 Z" stroke-linecap="round" />
</g>
		<g transform="matrix(1 0 0 1 134.41 127.24)" id="JpwFiUAaZ4rITmkXOakky"  >
<path style="stroke: rgb(0,0,0); stroke-width: 1; stroke-dasharray: none; stroke-linecap: butt; stroke-dashoffset: 0; stroke-linejoin: miter; stroke-miterlimit: 4; fill: rgb(0,0,0); fill-opacity: 0; fill-rule: nonzero; opacity: 1;" vector-effect="non-scaling-stroke"  transform=" translate(-454.41, -447.24)" d="M 344.71 374.09 C 387.28 459.53 413.52 510.55 423.43 527.15 C 447.28 567.1 433.33 523.68 440.1 529.93 C 446.88 536.18 445.16 548.86 450.52 552.17 C 455.89 555.47 456.01 544.18 461.57 543.13 C 467.13 542.09 456.76 553.03 472.76 548 C 488.76 542.96 520.7 528.54 525.56 522.98 C 528.81 519.28 532.51 506.31 536.68 484.07 L 544.32 477.13 L 542.24 459.06 C 550.23 452.92 555.09 446.9 556.83 441 C 558.57 435.09 557.18 429.3 552.66 423.63 L 565.17 409.04 L 556.83 398.61 L 556.83 391.67 C 534.71 367.75 506.69 352.5 472.76 345.92 C 438.83 339.33 398.99 340.48 353.25 349.37 C 348.98 351.21 346.13 353.96 344.71 357.62 C 343.29 361.28 343.29 366.77 344.71 374.09 Z" stroke-linecap="round" />
</g>
		<g transform="matrix(1 0 0 1 -115.69 127.54)" id="S4pAOFBY_2KNFtcl1l5wh"  >
<path style="stroke: none; stroke-width: 1; stroke-dasharray: none; stroke-linecap: butt; stroke-dashoffset: 0; stroke-linejoin: miter; stroke-miterlimit: 4; fill: rgb(38,186,214); fill-rule: nonzero; opacity: 1;" vector-effect="non-scaling-stroke"  transform=" translate(-204.31, -447.54)" d="M 176.41 343.45 C 207.68 338 247.74 339.86 296.61 349 L 300.09 355.95 L 306.71 364.99 C 281.74 447.67 263.32 502.79 251.45 530.35 C 233.64 571.69 241.37 524.27 235.47 530.35 C 231.53 534.4 228.98 542.51 227.83 554.67 C 222.97 549.72 218.8 546.91 215.32 546.21 C 210.1 545.17 222.59 556.9 206.95 550.5 C 191.32 544.1 169.46 534.17 152.79 520.62 C 136.12 507.07 142.54 504.29 140.28 496.3 C 138.78 490.98 139.93 488.43 143.76 488.66 C 137.85 487.27 133.68 484.49 131.25 480.32 C 128.82 476.15 128.12 470.6 129.16 463.65 C 119.67 453.57 113.65 445.93 111.1 440.72 C 108.55 435.51 109.48 429.25 113.88 421.96 C 106.81 419.41 102.88 414.78 102.07 408.06 C 101.26 401.35 103.57 392.55 109.01 381.66 C 122.68 361.63 145.14 348.89 176.41 343.45 Z" stroke-linecap="round" />
</g>
		<g transform="matrix(1 0 0 1 -115.69 127.54)" id="JjvvdtX-YX838Z_2xem4d"  >
<path style="stroke: rgb(0,0,0); stroke-width: 1; stroke-dasharray: none; stroke-linecap: butt; stroke-dashoffset: 0; stroke-linejoin: miter; stroke-miterlimit: 4; fill: rgb(0,0,0); fill-opacity: 0; fill-rule: nonzero; opacity: 1;" vector-effect="non-scaling-stroke"  transform=" translate(-204.31, -447.54)" d="M 176.41 343.45 C 207.68 338 247.74 339.86 296.61 349 L 300.09 355.95 L 306.71 364.99 C 281.74 447.67 263.32 502.79 251.45 530.35 C 233.64 571.69 241.37 524.27 235.47 530.35 C 231.53 534.4 228.98 542.51 227.83 554.67 C 222.97 549.72 218.8 546.91 215.32 546.21 C 210.1 545.17 222.59 556.9 206.95 550.5 C 191.32 544.1 169.46 534.17 152.79 520.62 C 136.12 507.07 142.54 504.29 140.28 496.3 C 138.78 490.98 139.93 488.43 143.76 488.66 C 137.85 487.27 133.68 484.49 131.25 480.32 C 128.82 476.15 128.12 470.6 129.16 463.65 C 119.67 453.57 113.65 445.93 111.1 440.72 C 108.55 435.51 109.48 429.25 113.88 421.96 C 106.81 419.41 102.88 414.78 102.07 408.06 C 101.26 401.35 103.57 392.55 109.01 381.66 C 122.68 361.63 145.14 348.89 176.41 343.45 Z" stroke-linecap="round" />
</g>
		<g transform="matrix(1 0 0 1 -149.69 -96.23)" id="J4yeJ4HJxzqEMinYkYFBf"  >
<path style="stroke: none; stroke-width: 1; stroke-dasharray: none; stroke-linecap: butt; stroke-dashoffset: 0; stroke-linejoin: miter; stroke-miterlimit: 4; fill: rgb(66,204,232); fill-rule: nonzero; opacity: 1;" vector-effect="non-scaling-stroke"  transform=" translate(-170.31, -223.77)" d="M 78.09 109.89 L 80.18 122.39 C 82.95 125.63 86.37 127.26 90.42 127.26 C 96.5 127.26 75.36 106.41 104.49 122.39 C 133.63 138.37 167.52 158.52 206.95 191.18 C 246.38 223.83 240.76 222.97 262.21 253.02 C 283.67 283.07 283.23 290.06 292.79 311.38 C 302.34 332.7 304.08 335.35 300.43 338.31 C 298 340.27 264.65 337.32 200.38 329.44 C 159.5 327.01 129.39 322.61 110.05 316.24 C 90.71 309.87 82.14 300.38 84.34 287.76 L 84.34 278.03 C 80.18 272.59 78.09 267.95 78.09 264.13 C 78.09 258.4 83.65 261.87 82.26 257.88 C 80.87 253.88 73.58 253.02 72.53 248.15 C 71.84 244.91 74.39 240.74 80.18 235.65 L 78.09 224.38 C 74.39 219.29 72.53 214.48 72.53 209.94 C 72.53 205.4 74.39 201.13 78.09 197.14 L 72.53 195.35 L 69.06 181.45 L 59.33 172.42 L 61.42 164.78 L 50.3 161.3 L 54.47 146.71 L 44.74 140.46 L 47.52 132.81 L 38.49 119.81 C 37.91 114.85 40.92 111.54 47.52 109.89 C 54.12 108.23 64.31 108.23 78.09 109.89 Z" stroke-linecap="round" />
</g>
		<g transform="matrix(1 0 0 1 -320 -320)" id="8vVWpZmI3e3dipCvfaNLy"  >
<path style="stroke: rgb(0,0,0); stroke-width: 1; stroke-dasharray: none; stroke-linecap: butt; stroke-dashoffset: 0; stroke-linejoin: miter; stroke-miterlimit: 4; fill: rgb(0,0,0); fill-opacity: 0; fill-rule: nonzero; opacity: 1;" vector-effect="non-scaling-stroke"  transform=" translate(0, 0)" d="" stroke-linecap="round" />
</g>
		<g transform="matrix(1 0 0 1 0.46 -13.83)" id="WksSTYE10w5prgTIabGuw"  >
<path style="stroke: none; stroke-width: 1; stroke-dasharray: none; stroke-linecap: butt; stroke-dashoffset: 0; stroke-linejoin: miter; stroke-miterlimit: 4; fill: rgb(59,48,46); fill-rule: nonzero; opacity: 1;" vector-effect="non-scaling-stroke"  transform=" translate(-320.46, -306.17)" d="M 303.15 353.14 L 318.16 403.16 L 336.08 403.16 L 336.08 347.3 C 338.33 324.48 338.33 312.11 336.08 310.2 C 333.84 308.28 329.11 306.62 321.91 305.23 C 324.83 290.99 326.28 276.1 326.28 260.59 C 326.28 245.07 325.8 229.09 324.83 212.65 L 321.91 216.81 C 324.13 231.52 325.1 246.11 324.83 260.59 C 324.55 275.06 322.67 290.7 319.2 307.49 C 311.21 286.99 307.62 272.4 308.43 263.71 C 309.24 255.03 310.86 240.8 313.29 221.02 L 313.29 209.17 C 309.17 228.74 307.21 246.4 307.41 262.15 C 307.71 285.77 314.08 302.75 314.51 303.67 C 314.79 304.27 311.38 305.55 304.26 307.49 L 303.15 353.14 Z" stroke-linecap="round" />
</g>
		<g transform="matrix(1 0 0 1 0.46 -13.83)" id="-SGVoD_2MolrZ0azfOr4P"  >
<path style="stroke: rgb(41,47,42); stroke-width: 1; stroke-dasharray: none; stroke-linecap: butt; stroke-dashoffset: 0; stroke-linejoin: miter; stroke-miterlimit: 4; fill: rgb(0,0,0); fill-opacity: 0; fill-rule: nonzero; opacity: 1;" vector-effect="non-scaling-stroke"  transform=" translate(-320.46, -306.17)" d="M 303.15 353.14 L 318.16 403.16 L 336.08 403.16 L 336.08 347.3 C 338.33 324.48 338.33 312.11 336.08 310.2 C 333.84 308.28 329.11 306.62 321.91 305.23 C 324.83 290.99 326.28 276.1 326.28 260.59 C 326.28 245.07 325.8 229.09 324.83 212.65 L 321.91 216.81 C 324.13 231.52 325.1 246.11 324.83 260.59 C 324.55 275.06 322.67 290.7 319.2 307.49 C 311.21 286.99 307.62 272.4 308.43 263.71 C 309.24 255.03 310.86 240.8 313.29 221.02 L 313.29 209.17 C 309.17 228.74 307.21 246.4 307.41 262.15 C 307.71 285.77 314.08 302.75 314.51 303.67 C 314.79 304.27 311.38 305.55 304.26 307.49 L 303.15 353.14 Z" stroke-linecap="round" />
</g>
</g>
</g>
</svg>