<?xml version="1.0" encoding="UTF-8" standalone="no" ?>
<!DOCTYPE svg PUBLIC "-//W3C//DTD SVG 1.1//EN" "http://www.w3.org/Graphics/SVG/1.1/DTD/svg11.dtd">
<svg xmlns="http://www.w3.org/2000/svg" xmlns:xlink="http://www.w3.org/1999/xlink" version="1.1" width="488" height="640" viewBox="0 0 488 640" xml:space="preserve">
<desc>Created with Fabric.js 4.6.0</desc>
<defs>
</defs>
<g transform="matrix(4.52 0 0 4.52 244.06 319.92)" id="_ATC8uZK7t_7wUdfgxpux"  >
<path style="stroke: none; stroke-width: 0; stroke-dasharray: none; stroke-linecap: butt; stroke-dashoffset: 0; stroke-linejoin: miter; stroke-miterlimit: 4; fill: rgb(41,196,248); fill-rule: evenodd; opacity: 1;" vector-effect="non-scaling-stroke"  transform=" translate(0, 0)" d="M -50.41685 30.90679 C -50.41685 30.90679 -40.574839999999995 10.414260000000002 -39.49946 4.32347 C -36.70849 -11.484219999999999 -43.305949999999996 -32.59257 -40.96164 -43.643209999999996 C -38.61733 -54.693839999999994 -38.10455 -69.21755999999999 -19.59455 -69.12256 C 2.7804499999999983 -69.00756 22.963449999999998 -58.48255999999999 28.67345 -45.53755999999999 C 34.37345 -32.61955999999999 34.21545 -20.814559999999993 38.42245 -9.607559999999992 C 43.37245 3.587440000000008 47.46745 5.837440000000008 50.40945 16.621440000000007 C 57.49245 42.594440000000006 46.76345 61.96544000000001 23.94245 67.52144000000001 C 2.3854500000000023 72.77044000000001 -26.943170000000002 63.55463000000001 -42.81355 62.173440000000014 C -58.683930000000004 60.79225000000002 -50.41686 30.906790000000015 -50.41686 30.906790000000015 z" stroke-linecap="round" />
</g>
<g transform="matrix(4.52 0 0 4.52 216.8 200.72)" id="6kGIodkqBfrW648-nUl96"  >
<path style="stroke: none; stroke-width: 1; stroke-dasharray: none; stroke-linecap: butt; stroke-dashoffset: 0; stroke-linejoin: miter; stroke-miterlimit: 4; fill: rgb(183,178,171); fill-rule: evenodd; opacity: 1;" vector-effect="non-scaling-stroke"  transform=" translate(-133.14, -42.75)" d="M 109.825 59.585 C 109.87100793958388 58.364056344898515 110.08536510538502 57.15531075689581 110.462 55.993 C 110.84400000000001 54.981 113.208 51.312000000000005 114.592 47.482 C 115.54030408840099 44.65494825915784 116.2615915244872 41.75675715644152 116.74900000000001 38.81499999999998 C 117.43299999999999 34.547999999999995 119.67099999999999 25.163999999999998 120.04899999999999 23.723 C 120.84655621835746 20.47093098089233 122.49932073882123 17.49132834633994 124.836 15.093000000000004 C 125.91376121798613 14.055678088716238 127.25257813264737 13.329938408595277 128.71 12.993 C 130.21 12.540999999999999 131.923 13.053999999999998 133.28400000000002 12.873 C 134.90200000000002 12.657 137.02100000000002 11.995 138.61300000000003 12.273 C 141.35473744809775 12.847079099138371 143.86094039890457 14.231169219176666 145.80700000000002 16.245999999999995 C 147.586 17.973 149.829 23.538999999999998 150.38400000000001 25.845999999999997 C 151.67200000000003 31.214 151.67200000000003 34.434 151.948 39.903999999999996 C 152.225 45.355 151.292 48.64 152.799 53.91499999999999 C 153.407 56.03999999999999 155.363 58.608999999999995 156.186 61.026999999999994 C 156.64481730001654 62.78174688570749 156.49100591843543 64.64053626541131 155.75 66.29599999999999 C 153.179 71.43799999999999 144.743 73.07 139.657 73.25399999999999 C 131.002 73.567 122.05700000000002 71.59799999999998 115.305 65.91099999999999 C 113.29280710551744 63.97047740361008 111.45878737431704 61.85332250952728 109.82500000000002 59.58499999999998 z" stroke-linecap="round" />
</g>
<g transform="matrix(4.52 0 0 4.52 216.17 442.62)" id="_anavxnDZKwp7J9XOO0Bv"  >
<path style="stroke: none; stroke-width: 1; stroke-dasharray: none; stroke-linecap: butt; stroke-dashoffset: 0; stroke-linejoin: miter; stroke-miterlimit: 4; fill: rgb(255,255,255); fill-rule: evenodd; opacity: 1;" vector-effect="non-scaling-stroke"  transform=" translate(-133, -96.27)" d="M 117.659 119.168 C 117.28139391082163 118.3915083135965 117.03473598251388 117.5579396709455 116.929 116.70100000000001 C 116.95146926251185 115.50586678076291 117.13478332052733 114.3192025666737 117.474 113.173 C 116.87748478100376 112.53878635320561 116.43295067909612 111.77726524170691 116.174 110.946 C 116 110.01299999999999 116.21600000000001 108.898 116.108 106.728 C 115.99773556387333 105.06222845373377 115.78971057028782 103.4043727664913 115.485 101.76299999999999 C 114.47665013442182 98.04466564378643 113.19448132069957 94.406060402342 111.64900000000002 90.87699999999998 C 110.444 87.816 109.265 84.362 108.249 81.163 C 106.243 74.844 103.18199999999999 67.631 107.698 61.70099999999999 C 110.34899999999999 58.217999999999996 115.258 56.47599999999999 119.36 55.522999999999996 C 120.39283893646964 55.16370346372576 121.47845163927923 54.97950081022912 122.572 54.977999999999994 C 123.547 55.06399999999999 124.372 55.419999999999995 125.303 55.56399999999999 C 126.16199999999999 55.696999999999996 127.12299999999999 55.38199999999999 127.987 55.651999999999994 C 129.92230809543292 56.47106019486412 131.79412160219465 57.432704383962964 133.587 58.529 C 135.0212880638962 59.185724373548325 136.369399545705 60.016287326840086 137.60099999999997 61.00199999999998 C 139.801 63.309999999999995 139.184 65.083 140.889 67.75099999999999 C 141.649 68.942 141.816 70.404 143.36100000000002 70.60199999999999 C 145.02200000000002 70.81599999999999 143.68500000000003 65.50899999999999 143.59400000000002 65.07499999999999 C 142.91700000000003 61.89199999999999 142.53000000000003 61.56299999999999 141.46500000000003 58.51699999999999 C 141.25252616891547 57.31137938641632 141.15774716628312 56.08795996374485 141.18200000000004 54.86399999999999 C 143.53796966631464 55.92338903318994 145.74724506623863 57.28263286664385 147.75500000000005 58.90799999999997 C 149.41100000000006 60.35299999999999 148.68700000000004 63.18499999999999 148.68700000000004 63.18499999999999 C 148.68700000000004 63.18499999999999 150.93700000000004 64.20199999999998 152.95700000000005 65.07499999999999 C 154.70300000000006 65.82799999999999 156.18900000000005 66.34599999999999 156.96300000000005 67.54899999999999 C 159.78100000000006 71.92399999999999 159.23200000000006 75.285 159.32100000000005 83.27199999999999 C 159.41000000000005 91.25899999999999 158.05900000000005 94.03899999999999 158.01600000000005 100.112 C 158.00600000000006 101.535 158.38300000000004 103.655 158.35800000000006 105.07199999999999 C 158.31400000000005 107.59499999999998 157.28200000000007 110.29999999999998 157.45100000000005 112.69299999999998 C 157.90100000000004 119.07499999999999 159.29800000000006 124.96199999999999 160.19900000000004 131.29999999999998 C 160.45100000000005 133.06799999999998 160.64800000000005 137.2 160.64800000000005 137.2 C 160.64800000000005 137.2 159.63300000000007 137.37699999999998 158.85400000000004 137.493 C 158.07500000000002 137.609 157.53200000000004 137.668 157.53200000000004 137.668 C 157.53200000000004 137.668 155.89200000000005 132.547 154.92200000000003 130.56 C 153.45900000000003 127.56 148.67000000000002 127.069 145.93800000000002 126.531 C 138.43300000000002 125.05000000000001 132.63000000000002 123.477 125.11200000000002 121.97900000000001 C 123.05536548940432 121.51092154751395 121.0413775720803 120.8720381523821 119.09100000000001 120.06900000000002 C 118.58949559174597 119.80891695369422 118.11050881981153 119.50754329341983 117.65900000000002 119.16800000000002 z" stroke-linecap="round" />
</g>
<g transform="matrix(4.52 0 0 4.52 160.84 224.36)" id="YYkljSptEiUAYJnf623d4"  >
<path style="stroke: none; stroke-width: 1; stroke-dasharray: none; stroke-linecap: butt; stroke-dashoffset: 0; stroke-linejoin: miter; stroke-miterlimit: 4; fill: rgb(255,239,233); fill-rule: evenodd; opacity: 1;" vector-effect="non-scaling-stroke"  transform=" translate(-120.76, -47.98)" d="M 113.176 61.493 C 113.3517340984575 62.42290164705379 113.73264688794703 63.30190488235116 114.291 64.066 C 115.07330467159213 65.0143920519904 116.16824666102302 65.65263543961204 117.37899999999999 65.866 C 118.35810395437716 66.07327072732137 119.36767506532928 66.09261377045559 120.35399999999998 65.923 C 121.77803254123036 65.7461344238684 123.05035743866016 64.9469942608886 123.82799999999999 63.741 C 124.26356450172028 62.70956196729441 124.56599745693201 61.62685198763639 124.728 60.519 C 125.36287537444981 60.31354826442726 125.93836419217494 59.956999140028685 126.405 59.48 C 126.74449461385294 58.91491743099234 126.96214716194842 58.28512156021213 127.044 57.631 C 127.940600311601 57.477702076781185 128.68235595265574 56.84788062031973 128.97899999999998 55.988 C 129.29120354884174 54.43735468915459 129.19855823957755 52.832421078852974 128.70999999999998 51.328 C 128.17899999999997 49.915000000000006 127.14799999999998 48.67400000000001 126.63699999999999 47.245000000000005 C 126.20199999999998 46.026 126.39899999999999 44.383 126.25999999999999 43.099000000000004 C 126.14731755361309 41.74282830420837 125.8929303731113 40.40218440169566 125.50099999999999 39.09899999999999 C 125.023 37.55500000000001 124.30999999999999 33.760000000000005 123.55499999999999 32.379000000000005 C 122.55499999999999 30.549000000000007 120.91 29.638000000000005 120.26799999999999 30.006000000000004 C 119.64799999999998 30.360000000000003 119.53299999999999 31.760000000000005 119.55199999999999 32.322 C 119.63499999999999 34.722 121.488 37.222 121.26799999999999 39.642 C 121.19716942616925 40.69590353381702 120.82238141885182 41.70668490665645 120.189 42.55200000000001 C 119.37599999999999 43.26200000000001 118.324 42.74700000000001 117.37899999999999 43.96000000000001 C 116.93299999999999 44.534000000000006 116.939 46.66000000000001 116.53899999999999 47.93600000000001 C 116.30999999999999 48.665000000000006 114.87599999999999 49.766000000000005 114.69099999999999 50.13600000000001 C 114.37599999999999 50.76700000000001 114.56099999999999 52.74800000000001 114.29099999999998 53.39100000000001 C 114.06499999999998 53.917000000000016 113.63899999999998 54.68400000000001 113.42299999999999 55.13800000000001 C 112.91199999999999 56.21500000000001 113.323 56.62400000000001 113.15999999999998 57.61100000000001 C 113.03799999999998 58.33900000000001 112.23099999999998 59.57700000000001 112.37999999999998 60.62300000000001 C 112.44899999999998 61.11500000000001 113.17599999999999 61.49300000000001 113.17599999999999 61.49300000000001 z" stroke-linecap="round" />
</g>
<g transform="matrix(4.52 0 0 4.52 228.33 215.05)" id="gSoBjcrmL6d1TDsaeE4TP"  >
<path style="stroke: none; stroke-width: 1; stroke-dasharray: none; stroke-linecap: butt; stroke-dashoffset: 0; stroke-linejoin: miter; stroke-miterlimit: 4; fill: rgb(255,239,233); fill-rule: evenodd; opacity: 1;" vector-effect="non-scaling-stroke"  transform=" translate(-135.68, -45.92)" d="M 135.355 20.35 C 132.96599999999998 18.130000000000003 129.718 23.235 129.702 23.256 C 128.68 24.51 128.216 28.277 127.64 29.784 C 127.214 30.898999999999997 126.74 33.384 126.18900000000001 34.567 C 125.82253402626496 35.41864899654061 125.22325067926532 36.14964296925447 124.46000000000001 36.676 C 124.46000000000001 36.676 124.51 45.004000000000005 124.81400000000001 48.818 C 125.051 51.805 129.293 55.75 129.293 55.75 C 129.293 55.75 136.107 60.164 137.346 61.022999999999996 C 137.946 61.44 137.866 62.148999999999994 138.101 63.238 C 138.34697621137542 64.61822539836952 138.83914112842672 65.94297212279324 139.554 67.149 C 140.87158557484227 68.7692192373405 142.17662457970235 70.39960129935105 143.46899999999997 72.04000000000013 C 143.77623075031627 71.30658868620172 144.0233768346966 70.54943207586743 144.208 69.77600000000001 C 144.634 67.68700000000001 144.108 66.424 143.945 64.27600000000001 C 143.811 62.51200000000001 143.10999999999999 61.35700000000001 142.03 59.23000000000001 C 141.54217116051717 57.81102695781509 141.2616145354472 56.32909520474441 141.197 54.83000000000001 L 141.482 51.95600000000001 C 142.79643065897133 50.28725876924308 143.91883108693824 48.475853416277964 144.828 46.55600000000002 C 146.81900000000002 40.84700000000001 147.66400000000002 34.110000000000014 146.093 28.30300000000001 C 145.44299999999998 25.903000000000013 144.498 22.921000000000014 142.46099999999998 21.26200000000001 C 141.36995310521675 20.188367713880584 139.75946025439256 19.83640054894557 138.32 20.35700000000001 C 137.649 20.52900000000001 135.902 20.85800000000001 135.355 20.35000000000001 z" stroke-linecap="round" />
</g>
<g transform="matrix(4.52 0 0 4.52 236.55 213.37)" id="SLKmHfh6BbwiGM8HvtCMp"  >
<path style="stroke: none; stroke-width: 1; stroke-dasharray: none; stroke-linecap: butt; stroke-dashoffset: 0; stroke-linejoin: miter; stroke-miterlimit: 4; fill: rgb(255,255,255); fill-rule: evenodd; opacity: 1;" vector-effect="non-scaling-stroke"  transform=" translate(-137.51, -45.54)" d="M 140.874 43.916 C 138.506 43.355999999999995 133.935 44.001999999999995 133.935 44.001999999999995 C 134.14836074528952 44.879953612221044 134.53492132877173 45.70645209810077 135.072 46.43299999999999 C 135.97596912015587 47.35253229714921 137.3392589577819 47.648284889408615 138.543 47.18599999999999 C 139.5417903961363 46.831639185944574 140.3378049269661 46.06152613618209 140.725 45.074999999999996 C 140.909 44.644999999999996 141.349 44.028999999999996 140.874 43.916 z" stroke-linecap="round" />
</g>
<g transform="matrix(4.52 0 0 4.52 225.03 590.2)" id="KbHGdVWyrfcOhR6TLPOzb"  >
<path style="stroke: none; stroke-width: 1; stroke-dasharray: none; stroke-linecap: butt; stroke-dashoffset: 0; stroke-linejoin: miter; stroke-miterlimit: 4; fill: rgb(166,181,198); fill-rule: evenodd; opacity: 1;" vector-effect="non-scaling-stroke"  transform=" translate(-134.96, -128.92)" d="M 157.531 137.663 C 157.531 137.663 157.211 135.163 156.979 133.763 C 156.53400000000002 131.089 155.735 127.12100000000001 155.59300000000002 124.41300000000001 C 155.567 123.94500000000001 155.45600000000002 120.21300000000001 155.45600000000002 120.21300000000001 C 155.45600000000002 120.21300000000001 151.108 122.013 150.51000000000002 122.13600000000001 C 147.348 122.78500000000001 147.257 122.772 144.06600000000003 123.25000000000001 C 139.36600000000004 123.95500000000001 133.22600000000003 122.98800000000001 128.54900000000004 122.42700000000002 C 126.2453192398484 122.21181998884576 123.97035290769323 121.75702780959789 121.76100000000004 121.07000000000002 C 120.18900000000004 120.53400000000002 117.62900000000003 119.66500000000002 117.62900000000003 119.66500000000002 C 117.62900000000003 119.66500000000002 116.73600000000003 122.23700000000002 116.02900000000004 123.80900000000003 C 115.32200000000005 125.38100000000003 113.51600000000003 129.85200000000003 113.00100000000003 131.30900000000003 C 112.93400000000004 131.50200000000004 112.39600000000003 133.17600000000002 112.39600000000003 133.17600000000002 C 120.65433516800967 135.06066580050165 129.00806995193923 136.49974474769533 137.4209999999999 137.48700000000005 C 142.07545201551596 137.99386106946525 146.756440952392 138.21694023118553 151.43800000000002 138.15500000000003 C 153.47690102332695 138.11082509914894 155.51142735395018 137.94654035359395 157.531 137.66300000000007 z" stroke-linecap="round" />
</g>
<g transform="matrix(4.52 0 0 4.52 259.51 122.66)" id="U0nLaEuvXUQIvh_sqnXju"  >
<path style="stroke: none; stroke-width: 1; stroke-dasharray: none; stroke-linecap: butt; stroke-dashoffset: 0; stroke-linejoin: miter; stroke-miterlimit: 4; fill: rgb(0,94,171); fill-rule: nonzero; opacity: 1;" vector-effect="non-scaling-stroke"  transform=" translate(-142.59, -25.47)" d="M 146.532 31.11 C 146.33188683652403 31.112113347861413 146.16100686778236 30.96601097458729 146.132 30.768 L 146.088 30.490000000000002 C 145.488 26.637 144.48 20.19 138.668 20.677 C 138.44677514345685 20.693307610608098 138.25359600315682 20.52861695580981 138.2346984947021 20.307598269969706 C 138.21580098624736 20.086579584129602 138.37821780396666 19.891484813961636 138.59900000000002 19.87 C 145.15400000000002 19.318 146.282 26.503 146.889 30.364 L 146.93200000000002 30.641000000000002 C 146.95009251733688 30.74727800671053 146.92451956405282 30.8563595313713 146.86107694889228 30.94352253083518 C 146.79763433373174 31.030685530299056 146.70169411009906 31.08854940893935 146.59500000000003 31.104000000000003 C 146.57424795845517 31.108063797958888 146.55314607007566 31.110073501614078 146.53200000000004 31.110000000000003 z" stroke-linecap="round" />
</g>
<g transform="matrix(4.52 0 0 4.52 237.32 213.33)" id="0rhNVjW1pJKOTLZ-tTtkX"  >
<path style="stroke: none; stroke-width: 1; stroke-dasharray: none; stroke-linecap: butt; stroke-dashoffset: 0; stroke-linejoin: miter; stroke-miterlimit: 4; fill: rgb(0,94,171); fill-rule: nonzero; opacity: 1;" vector-effect="non-scaling-stroke"  transform=" translate(-137.68, -45.54)" d="M 136.927 54.051 C 134.749 54.051 131.533 52.892 128.034 47.722 C 127.9086313617884 47.536432324056854 127.95743232405684 47.28436863821159 128.143 47.159000000000006 C 128.32856767594313 47.03363136178841 128.5806313617884 47.08243232405685 128.706 47.268 C 131.451 51.324 134.38899999999998 53.393 137.218 53.232 C 139.635 53.1 141.982 51.309 143.49499999999998 48.441 C 145.2973697922273 45.02818305342705 146.34760719876544 41.26881051865982 146.575 37.416 C 146.5857363352408 37.19986870376407 146.7641022040153 37.03014323707842 146.9805 37.03014323707842 C 147.19689779598468 37.03014323707842 147.3752636647592 37.19986870376407 147.386 37.416000000000004 C 147.15500676638612 41.39918755450066 146.07268258990504 45.28655227154042 144.212 48.81600000000001 C 142.565 51.938 139.96699999999998 53.89 137.262 54.039 C 137.152 54.051 137.041 54.051 136.927 54.051 z" stroke-linecap="round" />
</g>
<g transform="matrix(4.52 0 0 4.52 203.78 134.5)" id="GndL3zlRkGKdGQ29006Gs"  >
<path style="stroke: none; stroke-width: 1; stroke-dasharray: none; stroke-linecap: butt; stroke-dashoffset: 0; stroke-linejoin: miter; stroke-miterlimit: 4; fill: rgb(0,94,171); fill-rule: nonzero; opacity: 1;" vector-effect="non-scaling-stroke"  transform=" translate(-130.26, -28.1)" d="M 125.013 36.558 C 124.84195130377705 36.55799424852458 124.68934791758389 36.45052843729436 124.63170436031992 36.28948534735068 C 124.57406080305596 36.12844225740699 124.62380680990812 35.94854776370789 124.756 35.84 C 126.079 34.747 126.591 32.332 127.13 29.775000000000002 C 127.4135709196759 28.293320152070677 127.78353561848787 26.82948870839591 128.238 25.39100000000001 C 129.159 22.667 130.715 20.681 132.507 19.944000000000003 C 133.52493266521958 19.504304655520336 134.6858347639321 19.540960863247285 135.674 20.044000000000004 C 135.80583068876126 20.107140898060734 135.89340883415107 20.236419934408993 135.9031533988639 20.38226624723773 C 135.91289796357677 20.528112560066468 135.84329676247822 20.667893365596758 135.7210377383216 20.748010994864284 C 135.59877871416495 20.828128624131807 135.4428343181908 20.83615022953883 135.31300000000002 20.769000000000005 C 134.5342841690854 20.366496359549632 133.61529304080264 20.33782383634721 132.81300000000002 20.691000000000006 C 131.26000000000002 21.330000000000005 129.83700000000002 23.184000000000005 129.00400000000002 25.648000000000007 C 128.55958675082098 27.0559775855781 128.19796832635524 28.488761204583145 127.92100000000002 29.93900000000001 C 127.35100000000003 32.63900000000001 126.81200000000003 35.18800000000001 125.27000000000002 36.461000000000006 C 125.19799369251304 36.5218517841975 125.10725621554484 36.556099003131024 125.01300000000002 36.55800000000001 z" stroke-linecap="round" />
</g>
<g transform="matrix(4.52 0 0 4.52 242.93 172.47)" id="SokwxHVuP8RYQOEqNbgK3"  >
<path style="stroke: none; stroke-width: 1; stroke-dasharray: none; stroke-linecap: butt; stroke-dashoffset: 0; stroke-linejoin: miter; stroke-miterlimit: 4; fill: rgb(0,94,171); fill-rule: nonzero; opacity: 1;" vector-effect="non-scaling-stroke"  transform=" translate(-138.92, -36.5)" d="M 138.65 40.174 C 138.47856389902608 40.173096565775 138.32617137550025 40.064606258380095 138.2692070574824 39.9029083320381 C 138.21224273946456 39.74121040569611 138.26298500466459 39.56115805067795 138.39600000000002 39.453 C 139.43400000000003 38.620000000000005 139.19600000000003 38.231 138.69600000000003 37.379000000000005 C 138.39624538293754 36.928118315441324 138.1688322585912 36.433140491381906 138.02200000000002 35.912000000000006 C 137.74504944956257 34.89506487855047 137.96450246784073 33.80706722880992 138.61400000000003 32.977000000000004 C 138.70331639747707 32.86267501122939 138.8468398076449 32.80468409598467 138.99050635094613 32.82487187078899 C 139.13417289424737 32.84505964559331 139.25615620512193 32.94035910721406 139.31050635094613 33.07487187078899 C 139.36485649677033 33.20938463436392 139.34331639747705 33.36267501122939 139.25400000000002 33.477000000000004 C 138.75571554940896 34.11135345490505 138.59036455566695 34.94553992895187 138.80900000000003 35.722 C 138.93854057043882 36.16370063145842 139.13444297631682 36.5831543197755 139.39000000000001 36.966 C 139.90900000000002 37.831 140.497 38.812 138.90900000000002 40.088 C 138.8351760749381 40.14569285784596 138.7436702928239 40.17607701715801 138.65000000000003 40.174 z" stroke-linecap="round" />
</g>
<g transform="matrix(4.52 0 0 4.52 260.06 146.25)" id="YoaAIqcGUCBZ-Nbv913Nr"  >
<path style="stroke: none; stroke-width: 1; stroke-dasharray: none; stroke-linecap: butt; stroke-dashoffset: 0; stroke-linejoin: miter; stroke-miterlimit: 4; fill: rgb(0,94,171); fill-rule: nonzero; opacity: 1;" vector-effect="non-scaling-stroke"  transform=" translate(-142.71, -30.7)" d="M 141.563 31.256 C 141.36437663241864 31.27040568693646 141.18540875284327 31.136507448270326 141.143167067599 30.94189396982347 C 141.10092538235472 30.747280491376618 141.2082776228312 30.55123524990853 141.39499999999998 30.482 C 142.2257462956501 30.05443601334948 143.20431948531905 30.021413296037817 144.06199999999998 30.392 C 144.25823337839535 30.49419186107371 144.3361417151209 30.734950502089806 144.23697808127272 30.932731413676805 C 144.13781444742455 31.13051232526381 143.8982817173711 31.212111978378257 143.69899999999998 31.116 C 143.0594227256001 30.86099724499136 142.34045127328736 30.897511793102723 141.73 31.216 C 141.67788558889046 31.241266111445565 141.62090603284514 31.25491390930073 141.563 31.256 z" stroke-linecap="round" />
</g>
<g transform="matrix(4.52 0 0 4.52 214.59 145.75)" id="xQZXOlEXjYJenER8CGwQ7"  >
<path style="stroke: none; stroke-width: 1; stroke-dasharray: none; stroke-linecap: butt; stroke-dashoffset: 0; stroke-linejoin: miter; stroke-miterlimit: 4; fill: rgb(0,94,171); fill-rule: nonzero; opacity: 1;" vector-effect="non-scaling-stroke"  transform=" translate(-132.65, -30.59)" d="M 133.835 31.161 C 133.76286734282107 31.161158827964105 133.69203406069343 31.14180924845607 133.63 31.105 C 133.01641523480677 30.74809423368888 132.2590841898198 30.745426233027125 131.643 31.098 C 131.443901347686 31.200172678718697 131.19967267871868 31.121598652314002 131.0975 30.922500000000003 C 130.9953273212813 30.723401347686 131.073901347686 30.479172678718697 131.273 30.377 C 132.1357134061449 29.894083490961687 133.1899519367461 29.905505360198973 134.042 30.407 C 134.19948898410183 30.49972628350039 134.27536351775055 30.686440326899234 134.2271972446162 30.862738239245274 C 134.1790309714819 31.039036151591315 134.01875910263513 31.161232742849485 133.836 31.161 z" stroke-linecap="round" />
</g>
<g transform="matrix(4.52 0 0 4.52 258.88 160.49)" id="uAtOx8RY4_zW1nBSu4yVO"  >
<path style="stroke: none; stroke-width: 1; stroke-dasharray: none; stroke-linecap: butt; stroke-dashoffset: 0; stroke-linejoin: miter; stroke-miterlimit: 4; fill: rgb(0,94,171); fill-rule: evenodd; opacity: 1;" vector-effect="non-scaling-stroke"  transform=" translate(-142.45, -33.85)" d="M 143.131 33.879 C 143.14366418348007 33.60189946796534 142.98650108259346 33.34495857893056 142.73404195845032 33.23002608990337 C 142.48158283430718 33.11509360087618 142.18459815680612 33.16528286335194 141.98392659876322 33.35679268604974 C 141.78325504072032 33.54830250874753 141.71925239966006 33.842619553234556 141.822270568143 34.10017021496837 C 141.925288736626 34.35772087670218 142.17461037738133 34.52671075861627 142.452 34.527 C 142.81837213376835 34.53538275407447 143.122265333244 34.24536391274865 143.131 33.879 z" stroke-linecap="round" />
</g>
<g transform="matrix(4.52 0 0 4.52 214 160.81)" id="exOfnqu07L3Dx04JS9HDD"  >
<path style="stroke: none; stroke-width: 1; stroke-dasharray: none; stroke-linecap: butt; stroke-dashoffset: 0; stroke-linejoin: miter; stroke-miterlimit: 4; fill: rgb(0,94,171); fill-rule: evenodd; opacity: 1;" vector-effect="non-scaling-stroke"  transform=" translate(-132.52, -33.92)" d="M 133.195 33.947 C 133.2080765988638 33.66942650164454 133.0509468199794 33.41182452144284 132.79816363496047 33.29641782406866 C 132.54538044994152 33.181011126694486 132.2478113611482 33.23102297539858 132.04664322690502 33.42272437391267 C 131.84547509266181 33.614425772426756 131.78118893049628 33.909240692283475 131.88428643434003 34.167289038777554 C 131.98738393818377 34.42533738527163 132.23711882097777 34.59469214880654 132.515 34.595000000000006 C 132.881543441676 34.60338744184612 133.18572321405398 34.31352201169769 133.195 33.947 z" stroke-linecap="round" />
</g>
<g transform="matrix(4.52 0 0 4.52 236.64 213.51)" id="BGZweY6llRJ6jP1vtQUjT"  >
<path style="stroke: none; stroke-width: 1; stroke-dasharray: none; stroke-linecap: butt; stroke-dashoffset: 0; stroke-linejoin: miter; stroke-miterlimit: 4; fill: rgb(0,94,171); fill-rule: nonzero; opacity: 1;" vector-effect="non-scaling-stroke"  transform=" translate(-137.53, -45.58)" d="M 137.521 47.882 C 136.48701244029968 47.87311267371531 135.5022424351232 47.43913397147083 134.79799999999997 46.681999999999995 C 134.07946268300623 45.98722764149174 133.65070812932842 45.04611139616898 133.59799999999998 44.047999999999995 C 133.623 43.623999999999995 134.04899999999998 43.538 135.01299999999998 43.44799999999999 C 135.07599999999996 43.44199999999999 141.22499999999997 42.876999999999995 141.46899999999997 43.806999999999995 C 141.43309114012052 44.71153385149265 141.09789178775696 45.57855001474153 140.51599999999996 46.27199999999999 C 139.85939631113237 47.23500789760526 138.787406559005 47.832328146630246 137.62299999999996 47.88399999999999 z M 134.421 44.333999999999996 C 134.5604447742993 45.00983010317074 134.89367709700093 45.63042752584553 135.38 46.12 C 135.94993816205616 46.74049695808165 136.75862391717695 47.08676447411941 137.601 47.071 C 138.36455365630528 47.04295771423797 139.0821096209781 46.69884960397085 139.582 46.120999999999995 C 140.08699644966327 45.56785308341586 140.452481748681 44.9020252685074 140.648 44.178999999999995 C 138.57212359495887 44.04868758873939 136.48882038835816 44.1005526701758 134.422 44.33399999999999 z M 140.84699999999998 44.223 z" stroke-linecap="round" />
</g>
<g transform="matrix(4.52 0 0 4.52 172.55 182)" id="rwiCTNDKtr3njfFHu3lkF"  >
<path style="stroke: none; stroke-width: 1; stroke-dasharray: none; stroke-linecap: butt; stroke-dashoffset: 0; stroke-linejoin: miter; stroke-miterlimit: 4; fill: rgb(0,94,171); fill-rule: nonzero; opacity: 1;" vector-effect="non-scaling-stroke"  transform=" translate(-123.35, -38.61)" d="M 126.99 47.673 C 126.97269414873078 47.67438037064323 126.9553058512692 47.67438037064323 126.93799999999999 47.673 C 126.83116087043858 47.65953954476747 126.73408093301892 47.60408509110392 126.6682166316417 47.518893088752776 C 126.6023523302645 47.433701086401626 126.57312700935167 47.325786345526836 126.58699999999999 47.219 C 126.96499798056752 45.30355435822627 126.67486822486048 43.31641260076807 125.76499999999999 41.589 C 125.62199999999999 41.289 125.48699999999998 41.003 125.37199999999999 40.71 C 124.99945867767225 39.685171859698855 124.75787940488192 38.6173847540971 124.65299999999999 37.532000000000004 C 124.53976088340676 36.22423706512693 124.20569710072759 34.945124423552755 123.66499999999999 33.748999999999995 C 122.97899999999998 32.28 121.556 30.523000000000003 120.67999999999999 30.371000000000002 C 120.52463308233614 30.33400557615902 120.36139322030118 30.383703894811347 120.25299999999999 30.501 C 119.73699999999998 31.02 119.93599999999999 32.132 120.36299999999999 34.218 C 120.49750937731643 34.788056288991356 120.6644475486998 35.34997017386776 120.86299999999999 35.901 C 121.59899999999999 38.087 122.51399999999998 40.80800000000001 120.52099999999999 43.150000000000006 C 120.3760252531694 43.320379845322805 120.12037984532279 43.34097474683059 119.94999999999999 43.19600000000001 C 119.77962015467719 43.05102525316943 119.7590252531694 42.795379845322806 119.90399999999998 42.62500000000001 C 121.60399999999998 40.632000000000005 120.80399999999999 38.25600000000001 120.09499999999998 36.159000000000006 C 119.88477868086889 35.57712804855005 119.70881083252478 34.98344525091089 119.56799999999998 34.38100000000001 C 119.12299999999999 32.214000000000006 118.83099999999999 30.781000000000006 119.67699999999998 29.930000000000007 C 119.97106181570246 29.62406670392898 120.4009650096055 29.48943912478565 120.81699999999998 29.573000000000008 C 122.28999999999998 29.83000000000001 123.86599999999999 32.26700000000001 124.39699999999998 33.40700000000001 C 124.97188569571959 34.67774172642841 125.32951560752215 36.035924132498984 125.45499999999998 37.425000000000004 C 125.55040511289478 38.44692321915697 125.77624065138032 39.45242906908071 126.12699999999998 40.417 C 126.23399999999998 40.69200000000001 126.36199999999998 40.95900000000001 126.49499999999998 41.23900000000001 C 127.47293919615495 43.10769944060926 127.79012355703861 45.252218147250375 127.39499999999998 47.32400000000001 C 127.36604638954464 47.525121015038245 127.19319158155318 47.67407491130743 126.98999999999998 47.67300000000001 z" stroke-linecap="round" />
</g>
<g transform="matrix(4.52 0 0 4.52 178.2 223.23)" id="YErI4PosGE2nGLp2vB1Lc"  >
<path style="stroke: none; stroke-width: 1; stroke-dasharray: none; stroke-linecap: butt; stroke-dashoffset: 0; stroke-linejoin: miter; stroke-miterlimit: 4; fill: rgb(0,94,171); fill-rule: nonzero; opacity: 1;" vector-effect="non-scaling-stroke"  transform=" translate(-124.6, -47.73)" d="M 127.609 52.805 L 127.55199999999999 52.805 C 126.9579432341806 52.73728667922975 126.38338194761323 52.55165918664644 125.862 52.259 C 125.675 52.17 125.49199999999999 52.082 125.315 52.011 C 124.615 51.732 123.941 51.411 123.285 51.095000000000006 C 122.17853323495574 50.519862913574514 121.01788082049788 50.05560194779137 119.81999999999998 49.709 C 119.6032282356914 49.65377152501692 119.47227152501692 49.433271764308586 119.52749999999999 49.2165 C 119.58272847498307 48.99972823569142 119.8032282356914 48.868771525016925 120.02 48.92400000000001 C 121.2688844216626 49.28364744471561 122.47911448835126 49.76599765120099 123.63300000000001 50.364000000000004 C 124.27799999999999 50.672000000000004 124.94399999999999 50.99100000000001 125.615 51.264 C 125.80799999999999 51.341 126.00699999999999 51.436 126.21499999999999 51.533 C 126.63911779172108 51.77405652129972 127.10494897734132 51.93283947459199 127.588 52.001000000000005 C 127.93379090646172 51.986234337944936 128.25386709040887 51.81422561768796 128.457 51.534000000000006 C 128.75632617044081 51.211454559622425 128.90778699833825 50.77881286462353 128.875 50.34 C 128.669 49.306000000000004 127.164 48.155 126.356 47.540000000000006 C 124.934 46.45400000000001 122.98899999999999 44.96600000000001 122.13199999999999 43.24900000000001 C 122.06089753803747 43.118934080433256 122.06653211769256 42.96041534019275 122.1466899053856 42.83572599581226 C 122.22684769307862 42.711036651431776 122.36872070529822 42.64010014532198 122.51656685341844 42.65078752179584 C 122.66441300153865 42.66147489826971 122.79460874152412 42.75207847868993 122.856 42.88700000000001 C 123.63 44.437000000000005 125.491 45.85900000000001 126.848 46.897000000000006 C 127.804 47.62800000000001 129.404 48.852000000000004 129.669 50.185 C 129.75301820938367 50.86890238427134 129.53382178013172 51.55535253521202 129.06900000000002 52.064 C 128.71348549646328 52.51185479209657 128.18036258561824 52.78243292698435 127.60900000000002 52.805 z" stroke-linecap="round" />
</g>
<g transform="matrix(4.52 0 0 4.52 172.55 248.94)" id="1NhJ1k_EoeWz9g_F0ECEX"  >
<path style="stroke: none; stroke-width: 1; stroke-dasharray: none; stroke-linecap: butt; stroke-dashoffset: 0; stroke-linejoin: miter; stroke-miterlimit: 4; fill: rgb(0,94,171); fill-rule: nonzero; opacity: 1;" vector-effect="non-scaling-stroke"  transform=" translate(-123.35, -53.42)" d="M 127.248 57.799 C 126.26567649470194 57.6815996034152 125.31267756211942 57.38753523317644 124.435 56.931 C 124.135 56.8 123.864 56.681999999999995 123.643 56.599 C 123.224 56.443999999999996 122.811 56.278999999999996 122.401 56.114999999999995 C 120.86204344429754 55.36597067479404 119.18090953026726 54.95412525436237 117.47 54.907 C 117.36220758753583 54.91242685209483 117.25679649440902 54.874063729015525 117.17770687362821 54.80062336686192 C 117.0986172528474 54.727183004708316 117.05256170129866 54.62489852916032 117.05 54.516999999999996 C 117.04211912813595 54.29347473414938 117.21650416353437 54.10567546525878 117.44 54.096999999999994 C 119.26394254952362 54.137654586059995 121.05795260678578 54.56902176386585 122.701 55.361999999999995 C 123.101 55.522999999999996 123.512 55.68599999999999 123.92399999999999 55.837999999999994 C 124.15799999999999 55.92399999999999 124.445 56.04899999999999 124.75899999999999 56.18699999999999 C 125.56432731304145 56.61849004900298 126.44550952670788 56.89014545206007 127.35399999999998 56.98699999999999 C 127.92660170090997 56.874093141599275 128.4047714408424 56.48224917889168 128.628 55.94299999999999 C 128.90446013449352 55.4558367122337 128.91350748342117 54.86135049311185 128.652 54.36599999999999 C 128.052 53.434999999999995 124.91699999999999 51.73499999999999 120.26799999999999 49.81699999999999 C 120.06116936118835 49.731672006151136 119.96267200615112 49.49483063881163 120.04799999999999 49.288 C 120.13332799384884 49.08116936118836 120.37016936118835 48.982672006151134 120.57699999999998 49.06799999999999 C 123.43799999999999 50.24799999999999 128.37699999999998 52.44899999999999 129.33299999999997 53.92599999999999 C 129.75380341602747 54.657386810443995 129.76289941775988 55.55523798144669 129.35699999999997 56.29499999999999 C 129.01570014323403 57.093375704183934 128.28771620582876 57.66004716557878 127.42999999999996 57.79499999999999 C 127.36943726078978 57.79935186250074 127.30869545810413 57.80068684717515 127.24799999999996 57.798999999999985 z" stroke-linecap="round" />
</g>
<g transform="matrix(4.52 0 0 4.52 164.37 273.58)" id="Inh-jrCKqB5PAcXQdCMDt"  >
<path style="stroke: none; stroke-width: 1; stroke-dasharray: none; stroke-linecap: butt; stroke-dashoffset: 0; stroke-linejoin: miter; stroke-miterlimit: 4; fill: rgb(0,94,171); fill-rule: nonzero; opacity: 1;" vector-effect="non-scaling-stroke"  transform=" translate(-121.54, -58.87)" d="M 124.608 60.669 C 123.82510483705418 60.62796576019461 123.05138930478674 60.480959809063805 122.308 60.232 L 121.965 60.132 C 120.06744647003588 59.497935822587564 118.07531679440156 59.1935357023718 116.07499999999999 59.232 C 115.85187696106836 59.24801625774509 115.65801625774509 59.080123038931646 115.642 58.857 C 115.6259837422549 58.63387696106836 115.79387696106835 58.44001625774509 116.017 58.424 C 118.11040301977579 58.37629862502908 120.19624539252925 58.69162791803901 122.182 59.356 L 122.53 59.456 C 124.355 59.977000000000004 125.519 60.201 126.271 58.899 C 126.47369184033946 58.43706294963699 126.59643795898975 57.9440496135705 126.634 57.441 C 126.65664341196724 57.220726926902195 126.84897759224185 57.05750755373337 127.07000000000001 57.071000000000005 C 127.29294477141062 57.089572375051105 127.45885408803738 57.284996556630354 127.441 57.508 C 127.39603897356072 58.13162912102157 127.23707563368667 58.74172296275567 126.97200000000001 59.308 C 126.51567425225983 60.1827407770898 125.59360437663052 60.71359403459042 124.608 60.669 z" stroke-linecap="round" />
</g>
<g transform="matrix(4.52 0 0 4.52 146.02 247.18)" id="FMLJpxwUEkuxDy0qVzeq4"  >
<path style="stroke: none; stroke-width: 1; stroke-dasharray: none; stroke-linecap: butt; stroke-dashoffset: 0; stroke-linejoin: miter; stroke-miterlimit: 4; fill: rgb(0,94,171); fill-rule: nonzero; opacity: 1;" vector-effect="non-scaling-stroke"  transform=" translate(-117.48, -53.02)" d="M 120.086 63.23 C 118.56955240048585 63.15901819048431 117.06302914358076 62.94676580273369 115.586 62.596000000000004 C 115.31969947641299 62.54052976634565 115.05302670649094 62.48686187139883 114.78600000000002 62.434999999999995 C 114.391 62.358 112.407 61.913 112.119 60.67099999999999 C 112.0517433102093 59.74297295153315 112.26608563457448 58.81624735724534 112.734 58.01199999999999 L 112.77499999999999 57.925999999999995 C 112.85929475526223 57.67894993782086 112.8768872944229 57.41402699516603 112.826 57.157999999999994 C 112.7874252539202 56.72986713929785 112.7874252539202 56.29913286070214 112.826 55.870999999999995 C 112.89913983727135 55.251137046200384 113.11328160879037 54.65626078314673 113.452 54.132 C 113.64376014458647 53.83217937808431 113.78654835262452 53.50373274351923 113.875 53.159 C 113.925 52.899 113.975 52.586 114.02 52.253 C 114.10665078322688 51.44207350661496 114.28272105815711 50.6432175163601 114.545 49.871 C 114.77038013310127 49.42147914983474 115.06762125507416 49.011759285115296 115.425 48.658 C 115.78265497496373 48.33510139544825 116.05709204516084 47.93064976324527 116.225 47.479 C 116.29899999999999 47.027 116.339 46.609 116.375 46.226 C 116.53 44.614 116.65 43.341 119.001 42.826 C 119.21682852698322 42.78550033317718 119.42574243547755 42.92394902514816 119.47254826663394 43.138498297443036 C 119.51935409779031 43.35304756973792 119.38708580275039 43.565928192618635 119.174 43.619 C 117.40100000000001 44.004 117.33200000000001 44.719 117.18100000000001 46.3 C 117.144 46.699999999999996 117.10200000000002 47.134 117.02600000000001 47.599999999999994 C 116.84683193413882 48.21345527913088 116.50060076508655 48.76500153143116 116.02600000000001 49.193 C 115.73392293861093 49.480940423893905 115.48652320127505 49.81091909262936 115.29200000000002 50.172 C 115.05751742424083 50.88389874117215 114.89929694474203 51.618685374776696 114.82000000000002 52.364 C 114.77000000000002 52.711 114.72000000000003 53.037 114.66800000000002 53.309 C 114.56576966414359 53.73923770756595 114.3927457354123 54.149493663581154 114.15600000000002 54.522999999999996 C 113.87648192115695 54.948371826138384 113.69667289423502 55.43139493458075 113.63000000000002 55.93599999999999 C 113.59838701875083 56.320474585173635 113.60106425252428 56.707000211215785 113.63800000000002 57.090999999999994 C 113.70477844448293 57.485072483342314 113.66152444039311 57.88992996162306 113.51300000000002 58.260999999999996 L 113.47100000000002 58.349 C 113.09575513827767 58.99654856195043 112.90292667836933 59.733650900632306 112.91300000000001 60.482 C 113.034 61.001 114.02700000000002 61.454 114.94500000000001 61.633 C 115.191 61.681000000000004 115.462 61.733000000000004 115.751 61.796 C 117.41848514455528 62.233751434816774 119.14111981219449 62.42478093932517 120.864 62.363 C 121.57900000000001 62.254 122.025 61.036 122.042 59.92 C 122.04581218541203 59.698347064502144 122.2263148752652 59.52051190208524 122.44800000000001 59.52 L 122.453 59.52 C 122.56119884013177 59.51995129922799 122.66480210888491 59.56373728662235 122.7401713581906 59.6413676134072 C 122.81554060749627 59.71899794019204 122.85624597649299 59.82384984968004 122.85300000000001 59.932 C 122.83000000000001 61.354 122.236 62.972 120.986 63.162 C 120.68815914795583 63.207462742769586 120.38729055094244 63.230195036766155 120.086 63.23 z" stroke-linecap="round" />
</g>
<g transform="matrix(4.52 0 0 4.52 320.35 438.92)" id="LiELEvNsa-kXPkkb82Wf5"  >
<path style="stroke: none; stroke-width: 1; stroke-dasharray: none; stroke-linecap: butt; stroke-dashoffset: 0; stroke-linejoin: miter; stroke-miterlimit: 4; fill: rgb(0,94,171); fill-rule: nonzero; opacity: 1;" vector-effect="non-scaling-stroke"  transform=" translate(-156.05, -95.45)" d="M 155.177 120.697 C 155.10929961075593 120.69677461099255 155.04268749683604 120.67994990180658 154.983 120.648 C 154.88758604436552 120.59780012312281 154.8164768953234 120.51120925921754 154.78579052275444 120.40785454424595 C 154.75510415018545 120.30449982927435 154.76743929173182 120.1931340667062 154.82 120.09899999999999 C 155.501 118.84299999999999 155.01399999999998 117.13699999999999 154.75199999999998 116.21999999999998 C 154.46021085893858 114.99120776376172 154.55592430169665 113.70222015873529 155.02599999999998 112.52999999999999 C 155.12978756832578 112.24340627109041 155.20678366659592 111.94780820686202 155.25599999999997 111.64699999999999 C 155.34276946013762 109.88861020341538 155.31972467678193 108.12651923262565 155.18699999999998 106.371 C 154.60388867741153 102.46441796872948 155.0573583261275 98.47319537235 156.50199999999998 94.797 C 157.402 92.038 158.325 89.185 158.10799999999998 86.166 C 157.95699999999997 84.03 156.783 81.48599999999999 155.64999999999998 79.02499999999999 C 154.295 76.08399999999999 152.89299999999997 73.04199999999999 153.18099999999998 70.567 C 153.20695738324204 70.34415310344328 153.40865310344324 70.18454261675795 153.63149999999996 70.2105 C 153.8543468965567 70.23645738324204 154.01395738324203 70.43815310344327 153.98799999999997 70.66099999999999 C 153.72399999999996 72.90999999999998 155.07699999999997 75.84599999999999 156.38799999999998 78.68599999999999 C 157.55299999999997 81.21199999999999 158.75699999999998 83.82499999999999 158.92 86.10799999999999 C 159.148 89.285 158.196 92.21399999999998 157.27599999999998 95.04799999999999 C 155.8628677412964 98.63025016422296 155.42230469055417 102.52252294298081 155.999 106.32999999999998 C 156.13446288391742 108.12347860668066 156.15684050775917 109.92370834559344 156.066 111.71999999999997 C 156.01366044012903 112.07931573683297 155.92521281065038 112.43243619694857 155.802 112.77399999999999 C 155.38183240974968 113.79479495496766 155.2875266619962 114.92052615870634 155.53199999999998 115.99699999999999 C 155.82399999999998 117.02499999999999 156.37199999999999 118.93799999999999 155.53199999999998 120.48499999999999 C 155.46219934939958 120.61609074582394 155.32551397395287 120.69771694186537 155.177 120.69699999999999 z" stroke-linecap="round" />
</g>
<g transform="matrix(4.52 0 0 4.52 232.08 556.26)" id="84Dnld7JyDakRge3yoCn-"  >
<path style="stroke: none; stroke-width: 1; stroke-dasharray: none; stroke-linecap: butt; stroke-dashoffset: 0; stroke-linejoin: miter; stroke-miterlimit: 4; fill: rgb(0,94,171); fill-rule: nonzero; opacity: 1;" vector-effect="non-scaling-stroke"  transform=" translate(-136.51, -121.4)" d="M 140.767 123.746 C 132.341 123.746 121.723 122.167 117.389 119.797 C 117.20076393652045 119.68584906971905 117.13470453203476 119.4453739163486 117.239742394667 119.25365956552882 C 117.34478025729925 119.06194521470906 117.58300581899749 118.9881839371774 117.77799999999999 119.087 C 123.85399999999998 122.41 142.539 124.142 149.517 122.031 C 149.826 121.93700000000001 150.196 121.837 150.603 121.73100000000001 C 152.15300000000002 121.31 154.27700000000002 120.73100000000001 155.145 119.93100000000001 C 155.25093403355615 119.82546284620874 155.40620940928048 119.78651466777526 155.5494128108394 119.8295599471656 C 155.69261621239832 119.87260522655596 155.80068299439412 119.99071099922898 155.83087141856407 120.13716498293026 C 155.861059842734 120.28361896663152 155.80850769707038 120.434832970268 155.69400000000002 120.531 C 154.68200000000002 121.468 152.537 122.05000000000001 150.81400000000002 122.518 C 150.41400000000002 122.625 150.05500000000004 122.724 149.752 122.818 C 146.81207863712086 123.52834382793937 143.79004507571744 123.84046927534976 140.767 123.746 z" stroke-linecap="round" />
</g>
<g transform="matrix(4.52 0 0 4.52 322.25 588.75)" id="dKx8NBClM3m8jiq3ygGdF"  >
<path style="stroke: none; stroke-width: 1; stroke-dasharray: none; stroke-linecap: butt; stroke-dashoffset: 0; stroke-linejoin: miter; stroke-miterlimit: 4; fill: rgb(0,94,171); fill-rule: nonzero; opacity: 1;" vector-effect="non-scaling-stroke"  transform=" translate(-156.47, -128.6)" d="M 157.558 137.69 C 157.34162108191012 137.6874572821362 157.1654653419852 137.51526504635962 157.158 137.299 C 157.107 135.869 156.60299999999998 132.848 156.11599999999999 129.92700000000002 C 155.81599999999997 128.13400000000001 155.534 126.44100000000002 155.367 125.18500000000002 C 155.28836545261373 124.33891022741474 155.27666241516184 123.48793221841156 155.332 122.64000000000001 C 155.42991746721677 121.8472635566973 155.38384455632468 121.04335901591055 155.196 120.26700000000001 C 155.10074118367623 120.21905386690813 155.02857246443392 120.13505348318839 154.9955251958816 120.03365845467563 C 154.9624779273293 119.93226342616286 154.97128858697653 119.82186976339766 155.02 119.727 C 155.12437824454386 119.52671555863037 155.37028161388696 119.4474206315596 155.572 119.549 C 156.241 119.884 156.201 121.049 156.143 122.66900000000001 C 156.09084441522546 123.47188821458593 156.10053969360044 124.27759927954024 156.172 125.07900000000001 C 156.33599999999998 126.322 156.618 128.00900000000001 156.915 129.794 C 157.408 132.741 157.915 135.788 157.97 137.27200000000002 C 157.9773019654429 137.4958936179432 157.80188351145014 137.68339446545082 157.578 137.69100000000003 z" stroke-linecap="round" />
</g>
<g transform="matrix(4.52 0 0 4.52 135.04 577.59)" id="pbfsyWMArUaQGrNOvrftH"  >
<path style="stroke: none; stroke-width: 1; stroke-dasharray: none; stroke-linecap: butt; stroke-dashoffset: 0; stroke-linejoin: miter; stroke-miterlimit: 4; fill: rgb(0,94,171); fill-rule: nonzero; opacity: 1;" vector-effect="non-scaling-stroke"  transform=" translate(-115.05, -126.13)" d="M 112.496 133.401 C 112.45362020133342 133.40091962909815 112.41148961645379 133.39451578019646 112.371 133.382 C 112.15842239360202 133.31280573987897 112.04144657199589 133.08510471308838 112.109 132.872 C 112.655 131.18200000000002 113.65599999999999 128.657 114.62599999999999 126.21500000000002 C 115.75399999999999 123.37200000000001 116.92099999999999 120.43200000000002 117.21 119.17400000000002 C 117.26053405460951 118.95584752381686 117.47834752381684 118.8199659453905 117.6965 118.87050000000002 C 117.91465247618316 118.92103405460954 118.05053405460951 119.13884752381686 118 119.35700000000003 C 117.25074674660831 121.78607920445982 116.375902926322 124.1746264680878 115.379 126.51300000000003 C 114.415 128.94400000000005 113.418 131.45700000000002 112.879 133.12200000000004 C 112.82447212927167 133.28758186587046 112.67032546976591 133.39987146900913 112.49600000000001 133.40100000000004 z" stroke-linecap="round" />
</g>
<g transform="matrix(4.52 0 0 4.52 122.88 450.9)" id="Qxzfs1v4nvOHCrd1oOGew"  >
<path style="stroke: none; stroke-width: 1; stroke-dasharray: none; stroke-linecap: butt; stroke-dashoffset: 0; stroke-linejoin: miter; stroke-miterlimit: 4; fill: rgb(0,94,171); fill-rule: nonzero; opacity: 1;" vector-effect="non-scaling-stroke"  transform=" translate(-112.36, -98.09)" d="M 117.874 120.006 C 117.72054696300141 120.00726063573485 117.57990008210783 119.92061904888602 117.512 119.783 C 117.00191260248118 118.70245363402553 116.66060953742138 117.55004990545899 116.5 116.366 C 116.45654786970998 115.66850473553342 116.54128060979411 114.96895123339876 116.75 114.30199999999999 C 116.85211144060519 114.0269846967049 116.89669782629086 113.73393982590063 116.881 113.44099999999999 C 116.82899066967815 113.1417508390197 116.70242931842114 112.86042696584515 116.513 112.62299999999999 C 116.03490713707619 111.9799700744474 115.7866331569818 111.19500170334044 115.808 110.39399999999999 C 115.89362475738346 107.46817363452138 115.63959398015757 104.54228942496724 115.05099999999999 101.67499999999998 C 114.07107434606736 98.42049904739822 112.92252258577162 95.21917387070641 111.60999999999997 92.08399999999995 C 110.8 90.061 109.966 87.968 109.196 85.768 C 108.79292138301591 84.55292991000739 108.45247353540042 83.31797203140215 108.176 82.068 C 107.81181416858459 80.24267024184022 107.24149255294935 78.46460873427154 106.476 76.768 C 106.37603646028063 76.56779677818633 106.45729677818633 76.32446353971937 106.6575 76.2245 C 106.85770322181367 76.12453646028064 107.10103646028062 76.20579677818634 107.201 76.406 C 107.99589337413506 78.1565402081605 108.58839424759367 79.99208509983204 108.967 81.87700000000001 C 109.23912753378008 83.09908694715965 109.57288716107067 84.30662927869699 109.96699999999998 85.495 C 110.732 87.679 111.567 89.76400000000001 112.367 91.77900000000001 C 113.69175674556999 94.93906671594475 114.84968389224068 98.1665090858378 115.836 101.44800000000005 C 116.4442919677519 104.39348650603054 116.70939154668328 107.39951438966006 116.626 110.40600000000002 C 116.6105276034709 111.04518310072042 116.8133416666906 111.670555855657 117.20100000000001 112.179 C 117.46999364884475 112.52824453328311 117.64242544508019 112.94208084424817 117.70100000000001 113.379 C 117.72462966360332 113.76866235750275 117.66953412606924 114.15909246299113 117.539 114.527 C 117.35475970942466 115.1081640526691 117.28082229867825 115.71865643497893 117.321 116.327 C 117.47541399479852 117.39502321205991 117.78712796982238 118.43429445419353 118.246 119.411 C 118.31231415676416 119.53631649461965 118.30733563677919 119.68737360370366 118.23291402164107 119.80805174758785 C 118.15849240650294 119.92872989147203 118.02574914634059 120.00099511649435 117.884 119.998 z" stroke-linecap="round" />
</g>
<g transform="matrix(4.52 0 0 4.52 152.53 293.6)" id="-UPdchFZQHjSmeSPcyrpW"  >
<path style="stroke: none; stroke-width: 1; stroke-dasharray: none; stroke-linecap: butt; stroke-dashoffset: 0; stroke-linejoin: miter; stroke-miterlimit: 4; fill: rgb(0,94,171); fill-rule: nonzero; opacity: 1;" vector-effect="non-scaling-stroke"  transform=" translate(-118.92, -63.3)" d="M 119.152 66.448 C 118.8411295822731 66.44791068069738 118.53066606098115 66.42551987776244 118.223 66.381 C 114.404 65.824 112.923 63.41 112.815 61.512 C 112.80761974582924 61.40454329432004 112.84388776826952 61.29865123553546 112.91559804102833 61.218283029582665 C 112.98730831378715 61.13791482362987 113.08839998949301 61.089863073730974 113.196 61.085 C 113.30362292402478 61.07733814819324 113.40977687432536 61.11347894813662 113.49036686941845 61.18521910731995 C 113.57095686451154 61.25695926650329 113.61914735799435 61.358213870955865 113.624 61.466 C 113.657 62.043 114.036 64.952 118.33999999999999 65.57900000000001 C 119.97922816649327 65.83710841588187 121.64372394230881 65.30243645579489 122.826 64.138 C 123.80709370820799 63.22301506643419 124.31488267789405 61.908954496114504 124.204 60.572 C 124.1974292524165 60.3643506409841 124.34867544850952 60.18524337572215 124.55449224043936 60.1569435668318 C 124.76030903236921 60.12864375794145 124.95428290940173 60.26028326314863 125.00399999999999 60.462 C 125.1576198544484 62.05315778786299 124.56131105379411 63.625076585372 123.39099999999999 64.714 C 122.26384863550093 65.83125561202144 120.73903540854951 66.4549937897836 119.15199999999999 66.448 z" stroke-linecap="round" />
</g>
<g transform="matrix(4.52 0 0 4.52 256.89 265.44)" id="MNiJWhsGT0Sol2MF-idIy"  >
<path style="stroke: none; stroke-width: 1; stroke-dasharray: none; stroke-linecap: butt; stroke-dashoffset: 0; stroke-linejoin: miter; stroke-miterlimit: 4; fill: rgb(0,94,171); fill-rule: nonzero; opacity: 1;" vector-effect="non-scaling-stroke"  transform=" translate(-142.01, -57.06)" d="M 142.73 62.693 C 142.5718360373928 62.6927291456122 142.4282261549523 62.600631503612306 142.362 62.457 C 141.02778787346216 59.052446575858504 140.58480138817512 55.36364613854599 141.075 51.74000000000001 C 141.13022847498306 51.52239980856667 141.35139980856667 51.390771525016916 141.569 51.446 C 141.78660019143334 51.50122847498308 141.91822847498307 51.72239980856667 141.863 51.940000000000005 C 141.42114648112056 55.38290514839828 141.84564303173437 58.88165040240477 143.098 62.119 C 143.1430587996997 62.21683322844315 143.14729014573862 62.32858546512918 143.109758395937 62.42954587209554 C 143.0722266461354 62.530506279061896 142.99602381586325 62.61235733496314 142.89800000000002 62.657000000000004 C 142.84526871831392 62.681027288073416 142.78794654572425 62.6933106107712 142.73000000000002 62.693000000000005 z" stroke-linecap="round" />
</g>
<g transform="matrix(4.52 0 0 4.52 240.21 95.76)" id="Zq2LZvVc2XEnMUAgl6gf9"  >
<path style="stroke: none; stroke-width: 1; stroke-dasharray: none; stroke-linecap: butt; stroke-dashoffset: 0; stroke-linejoin: miter; stroke-miterlimit: 4; fill: rgb(0,94,171); fill-rule: nonzero; opacity: 1;" vector-effect="non-scaling-stroke"  transform=" translate(-138.32, -19.52)" d="M 137.246 20.911 C 136.97742736763223 20.911000566205775 136.75955148384412 20.693572066162602 136.75900000000001 20.425 C 136.79971825104556 19.819832272876297 137.07661688178422 19.25490160341853 137.53 18.852 C 138.03724537688294 18.36133660677908 138.72515149175322 18.102828729927825 139.43 18.138 C 139.69813424604286 18.15291168824543 139.90341168824543 18.382365753957153 139.8885 18.6505 C 139.87358831175456 18.918634246042853 139.64413424604285 19.123911688245435 139.376 19.109 C 138.93917877091891 19.089082664708595 138.5136772296238 19.251316443857707 138.201 19.557000000000002 C 137.94393792799087 19.77896422782537 137.7779738609255 20.088099013689657 137.73499999999999 20.425 C 137.73500246566692 20.554416685091848 137.68338743210617 20.678489509645882 137.59159487739578 20.76971891984885 C 137.49980232268538 20.860948330051816 137.3754142194484 20.911798868450127 137.24599999999998 20.911 z" stroke-linecap="round" />
</g>
<g transform="matrix(4.52 0 0 4.52 223.22 81.39)" id="WtCxbYvauQzdddwLI-FmV"  >
<path style="stroke: none; stroke-width: 1; stroke-dasharray: none; stroke-linecap: butt; stroke-dashoffset: 0; stroke-linejoin: miter; stroke-miterlimit: 4; fill: rgb(0,94,171); fill-rule: nonzero; opacity: 1;" vector-effect="non-scaling-stroke"  transform=" translate(-134.56, -16.35)" d="M 136.044 19.785 C 135.8288490189411 19.784672162950752 135.63940841775522 19.64320149940421 135.578 19.437 C 134.92600000000002 17.243000000000002 133.85 14.607000000000001 132.778 13.788 C 132.5648180865653 13.624523714050081 132.52452371405008 13.31918191343468 132.688 13.105999999999995 C 132.85147628594993 12.892818086565308 133.15681808656532 12.852523714050081 133.37 13.016 C 134.905 14.193999999999999 136.07 17.705 136.506 19.159 C 136.5796507725936 19.415100573021114 136.43333769110168 19.682746453798984 136.178 19.759 C 136.13482537129607 19.774099969432214 136.08968882412023 19.782857806943948 136.044 19.785 z" stroke-linecap="round" />
</g>
<g transform="matrix(4.52 0 0 4.52 314.52 459.62)" id="9-svjf2GS-oezPbzJeo3T"  >
<path style="stroke: none; stroke-width: 1; stroke-dasharray: none; stroke-linecap: butt; stroke-dashoffset: 0; stroke-linejoin: miter; stroke-miterlimit: 4; fill: rgb(0,94,171); fill-rule: nonzero; opacity: 1;" vector-effect="non-scaling-stroke"  transform=" translate(-154.76, -100.03)" d="M 160.757 137.522 C 160.64970579506254 137.52387793742605 160.5461566291697 137.4825657001579 160.46962123691904 137.40734664143488 C 160.39308584466838 137.33212758271188 160.34998356677823 137.22931063690095 160.35 137.12199999999999 C 160.35 134.445 159.31 127.89999999999999 158.392 122.12199999999999 C 157.792 118.38299999999998 157.284 115.15499999999999 157.123 113.43599999999998 C 157.0227673369471 111.73935659746189 157.1475170612383 110.03690955140766 157.494 108.37299999999996 C 157.625 107.57999999999997 157.761 106.76099999999998 157.846 105.92199999999998 C 157.94085933019815 104.82002164750617 157.9093208922322 103.7108080739371 157.752 102.61599999999999 C 157.57972292052943 101.41149234824421 157.55520808066828 100.19045183132468 157.679 98.98 C 158.59643339284742 92.12099351720498 159.0022203356907 85.20322863328036 158.89300000000003 78.28399999999998 C 158.775 75.05799999999999 158.549 71.41199999999999 157.38 68.954 C 156.587 67.28999999999999 154.732 66.434 152.57999999999998 65.443 C 151.1725839061175 64.8390827654982 149.82046976652504 64.11367235851071 148.539 63.275 C 148.35481303593141 63.147698365164 148.308698365164 62.895186964068564 148.436 62.71099999999999 C 148.563301634836 62.52681303593142 148.81581303593143 62.480698365163995 149 62.608 C 150.24269923517915 63.42076834532252 151.55401583188822 64.12343863189794 152.919 64.708 C 155.119 65.721 157.18800000000002 66.678 158.10500000000002 68.608 C 159.34300000000002 71.208 159.57700000000003 74.95 159.699 78.256 C 159.80747579952245 85.21468427284192 159.3990191988025 92.17181658657739 158.477 99.07000000000002 C 158.35815277710958 100.21988403405291 158.38233726234964 101.38006753431966 158.549 102.52399999999999 C 158.71234137312183 103.6756637688911 158.74387826058228 104.84219310612521 158.643 106.00099999999999 C 158.556 106.86599999999999 158.419 107.701 158.286 108.50099999999999 C 157.9491405290331 110.09558663648198 157.82639237875165 111.72796888707413 157.921 113.35499999999999 C 158.07999999999998 115.04799999999999 158.62099999999998 118.42099999999999 159.184 121.99099999999999 C 160.106 127.79099999999998 161.152 134.374 161.152 137.11599999999999 C 161.15360224880823 137.2222610018085 161.11285283051492 137.32479165805086 161.03874537532568 137.40096286515677 C 160.96463792013643 137.47713407226266 160.8632649282222 137.52068366549946 160.75699999999998 137.522 z" stroke-linecap="round" />
</g>
<g transform="matrix(4.52 0 0 4.52 109.36 305.08)" id="RN3pX4L7TgukoXpSJM81T"  >
<path style="stroke: none; stroke-width: 1; stroke-dasharray: none; stroke-linecap: butt; stroke-dashoffset: 0; stroke-linejoin: miter; stroke-miterlimit: 4; fill: rgb(0,94,171); fill-rule: nonzero; opacity: 1;" vector-effect="non-scaling-stroke"  transform=" translate(-109.37, -65.83)" d="M 106.365 75.285 C 106.17868540598481 75.28547627457385 106.01608306994565 75.15877851527432 105.97099999999999 74.978 C 105.17099999999999 71.77799999999999 104.439 64.817 107.40599999999999 61.425999999999995 C 108.15467014457312 60.62670765484135 108.98183284839673 59.904741017846646 109.87499999999997 59.271 C 110.96965035477014 58.53785792820615 111.93253976186153 57.6250063133372 112.72299999999998 56.57099999999999 C 112.80194542683266 56.44762328082956 112.94135540385157 56.376486730476245 113.08758232845248 56.384965042384515 C 113.23380925305338 56.39344335429278 113.36406362155145 56.480215181378284 113.42822108310695 56.6118890792389 C 113.49237854466246 56.74356297709951 113.48044014244499 56.8996175349986 113.39699999999999 57.01999999999999 C 112.55709577003717 58.150376932921716 111.53235896594835 59.13082455148244 110.36599999999999 59.91999999999999 C 109.51656313463216 60.52138763149059 108.72932184735308 61.20612005327717 108.01599999999999 61.963999999999984 C 105.469 64.87599999999999 105.868 71.22699999999999 106.75899999999999 74.78599999999999 C 106.78456904112113 74.89090756212178 106.76729472347444 75.00167909544511 106.71099688592521 75.09381988956734 C 106.654699048376 75.18596068368956 106.56401588464061 75.25187956156157 106.45899999999999 75.27699999999999 C 106.42809192999283 75.28336524266697 106.39653920394089 75.28605058105437 106.365 75.28499999999998 z" stroke-linecap="round" />
</g>
<g transform="matrix(4.52 0 0 4.52 158.76 307.98)" id="aZfm-uNtGi0vhmQyo2OuZ"  >
<path style="stroke: none; stroke-width: 1; stroke-dasharray: none; stroke-linecap: butt; stroke-dashoffset: 0; stroke-linejoin: miter; stroke-miterlimit: 4; fill: rgb(0,94,171); fill-rule: nonzero; opacity: 1;" vector-effect="non-scaling-stroke"  transform=" translate(-120.3, -66.48)" d="M 118.594 71.711 C 117.13032778234621 71.70738505878802 115.71071660618449 71.20986930283361 114.565 70.29899999999999 C 114.44423656915949 70.2119514751413 114.38079766167941 70.06579223004361 114.39968685415926 69.91812892953904 C 114.4185760466391 69.77046562903446 114.51676372959844 69.64498177021242 114.65555057246054 69.59113509755 C 114.79433741532264 69.53728842488756 114.95146360283387 69.56371532610544 115.065 69.66 C 116.47824861912493 70.78396133773789 118.3401046937983 71.17265160990078 120.085 70.708 C 122.32399245956047 70.07023956062717 124.15339936210242 68.45227164682123 125.05999999999999 66.30799999999999 C 125.43930302094435 64.80995716350587 125.48606425095252 63.247039848123265 125.19699999999999 61.72899999999999 C 125.16036315043391 61.51139926338128 125.30337272255528 61.30410223660836 125.5198028656996 61.26108674565842 C 125.73623300884393 61.218071254708484 125.94764302171954 61.354927388963254 125.99699999999999 61.56999999999999 C 126.31825468836723 63.248090582312834 126.25431420830587 64.97721896557678 125.80999999999999 66.627 C 124.80207193653699 69.00044219253803 122.77302102102686 70.78937526683247 120.29199999999999 71.49199999999999 C 119.73755859498122 71.63661516819079 119.16699056308231 71.71020433131557 118.594 71.71099999999998 z" stroke-linecap="round" />
</g>
<g transform="matrix(4.52 0 0 4.52 154.92 342.33)" id="syqyrg3EMTTKTGgNj92kR"  >
<path style="stroke: none; stroke-width: 1; stroke-dasharray: none; stroke-linecap: butt; stroke-dashoffset: 0; stroke-linejoin: miter; stroke-miterlimit: 4; fill: rgb(0,94,171); fill-rule: nonzero; opacity: 1;" vector-effect="non-scaling-stroke"  transform=" translate(-119.45, -74.07)" d="M 113.635 79.939 C 113.49802882398507 79.94146412927229 113.3693238532995 79.87366090839066 113.29389604050897 79.7593026115792 C 113.21846822771842 79.64494431476773 113.20681056770785 79.49993967620684 113.263 79.375 C 113.87552965645379 77.82756984981779 114.9485845908544 76.50562481514797 116.337 75.588 C 116.988 75.226 117.76100000000001 74.881 118.58 74.51599999999999 C 121.527 73.19999999999999 124.866 71.70899999999999 124.866 68.59299999999999 C 124.8767363352408 68.37686870376406 125.05510220401533 68.2071432370784 125.2715 68.2071432370784 C 125.48789779598468 68.2071432370784 125.6662636647592 68.37686870376406 125.677 68.59299999999999 C 125.677 72.234 121.926 73.90899999999999 118.912 75.255 C 118.11200000000001 75.613 117.351 75.955 116.73100000000001 76.29599999999999 C 115.49925105876989 77.12665416633085 114.54949872918273 78.31253661972649 114.00800000000001 79.696 C 113.94290790829977 79.8438449715031 113.79653970394038 79.93920012876673 113.635 79.939 z" stroke-linecap="round" />
</g>
<g transform="matrix(4.52 0 0 4.52 112.62 309.78)" id="M_6y5zvxi2_PGgfKsRdLF"  >
<path style="stroke: none; stroke-width: 1; stroke-dasharray: none; stroke-linecap: butt; stroke-dashoffset: 0; stroke-linejoin: miter; stroke-miterlimit: 4; fill: rgb(0,94,171); fill-rule: nonzero; opacity: 1;" vector-effect="non-scaling-stroke"  transform=" translate(-110.09, -66.88)" d="M 108.812 73.655 C 108.64108461382779 73.65602768987016 108.48840000737235 73.54834486215948 108.432 73.387 C 106.761 68.734 106.732 62.472 112.164 60.14 C 112.36972606931197 60.05163444002707 112.60813444002707 60.146773930688035 112.6965 60.3525 C 112.78486555997293 60.55822606931197 112.68972606931196 60.79663444002707 112.484 60.885 C 106.017 63.663 108.851 72.154 109.195 73.114 C 109.23921923339445 73.23838067379579 109.22020717961945 73.37649471641828 109.14402620850835 73.48430173036661 C 109.06784523739726 73.59210874431494 108.94400708555199 73.65614825638225 108.812 73.656 z" stroke-linecap="round" />
</g>
<g transform="matrix(4.52 0 0 4.52 237.59 411.57)" id="AcmZwsOpwtUTaB0n9eXhN"  >
<path style="stroke: none; stroke-width: 1; stroke-dasharray: none; stroke-linecap: butt; stroke-dashoffset: 0; stroke-linejoin: miter; stroke-miterlimit: 4; fill: rgb(0,94,171); fill-rule: nonzero; opacity: 1;" vector-effect="non-scaling-stroke"  transform=" translate(-137.74, -89.4)" d="M 143.809 123.501 C 143.76829293099877 123.50048801353992 143.72787414131605 123.49408837184016 143.689 123.482 C 143.47557900311418 123.41534933278058 143.35621347501703 123.18868894796688 143.422 122.975 C 144.12199999999999 120.73299999999999 143.909 117.98599999999999 143.704 115.329 C 143.5194484897561 113.68753215551541 143.48597469869844 112.03258792562426 143.604 110.385 C 143.728 109.31899999999999 143.93900000000002 107.832 144.16500000000002 106.24499999999999 C 144.52500000000003 103.71 144.93200000000002 100.83599999999998 145.06500000000003 99.121 C 145.18800000000002 97.536 145.33500000000004 96.19999999999999 145.46500000000003 95.021 C 145.84562450611747 92.25182579285992 145.94613259654915 89.45133536646539 145.76500000000004 86.66200000000002 C 145.66113135101813 85.46489799848119 145.359367336763 84.29332371245378 144.87200000000004 83.19500000000001 C 144.29531091824822 81.81932133716474 143.90291525084666 80.3734761188042 143.70500000000004 78.89500000000001 C 143.60500000000005 78.06600000000002 143.51000000000005 77.13100000000001 143.42200000000005 76.21400000000001 C 143.3360535556211 74.90438445755723 143.1656997096992 73.60167857697783 142.91200000000006 72.314 C 142.55560812637353 71.46418894369752 142.03963272226352 70.69056529503523 141.39200000000005 70.03500000000001 C 140.75951163522296 69.304508021037 140.17177247016403 68.53643979397133 139.63200000000006 67.73500000000001 C 138.4215033339688 66.02174138679962 137.66463856083652 64.02981091569241 137.43200000000007 61.945000000000014 C 137.36600000000007 61.195000000000014 135.05100000000007 59.88800000000001 133.1910000000001 58.83900000000001 C 131.63683573962538 58.085592388203004 130.19693386184053 57.116343497358365 128.9140000000001 55.960000000000015 C 128.76792068366984 55.79044858180196 128.78694858180205 55.53457931633026 128.9565000000001 55.38850000000001 C 129.12605141819816 55.24242068366976 129.38192068366985 55.26144858180196 129.5280000000001 55.43100000000001 C 130.7564307722928 56.50646894833592 132.12198817229893 57.414374631669226 133.5890000000001 58.131000000000014 C 136.41800000000012 59.731000000000016 138.1420000000001 60.77600000000002 138.24000000000012 61.872000000000014 C 138.46192071125736 63.82353486281785 139.17364062473433 65.68728473774212 140.3090000000001 67.29000000000002 C 140.83336579125293 68.06370933854615 141.40267745016993 68.80598489149187 142.01400000000012 69.51300000000002 C 142.744278496378 70.25255178016948 143.31624158904143 71.13312315661972 143.69500000000014 72.10100000000001 C 143.96265159932005 73.43227180835643 144.14104897351405 74.77994036172457 144.22900000000013 76.13499999999999 C 144.31700000000012 77.04300000000002 144.40500000000011 77.96900000000002 144.50900000000013 78.79000000000002 C 144.69736742864234 80.20391810592729 145.07334426050392 81.58642325421258 145.62700000000012 82.90100000000002 C 146.14373901793826 84.0737725684897 146.4627198467694 85.32401522386607 146.5710000000001 86.60100000000003 C 146.7546608816193 89.43747839474506 146.65147093231116 92.28525296980679 146.26300000000012 95.101 C 146.13500000000013 96.27300000000002 145.9870000000001 97.60100000000003 145.8630000000001 99.17400000000004 C 145.72900000000013 100.91600000000004 145.3200000000001 103.80300000000004 144.9630000000001 106.35000000000004 C 144.7380000000001 107.93000000000004 144.5280000000001 109.41100000000003 144.4040000000001 110.47100000000003 C 144.29311132771628 112.06675566326165 144.32658062898452 113.66926580798527 144.5040000000001 115.25900000000003 C 144.7130000000001 117.99200000000003 144.9340000000001 120.81800000000003 144.1880000000001 123.20800000000003 C 144.13833665676609 123.37735997418275 143.98540846240945 123.49558678406798 143.8090000000001 123.50100000000003 z" stroke-linecap="round" />
</g>
<g transform="matrix(4.52 0 0 4.52 210.61 294.05)" id="5Bbai75-luHMtskh96r1S"  >
<path style="stroke: none; stroke-width: 1; stroke-dasharray: none; stroke-linecap: butt; stroke-dashoffset: 0; stroke-linejoin: miter; stroke-miterlimit: 4; fill: rgb(0,94,171); fill-rule: nonzero; opacity: 1;" vector-effect="non-scaling-stroke"  transform=" translate(-131.77, -63.4)" d="M 134.484 67.221 C 133.8928099213893 67.1582800615481 133.33798012637925 66.90525521512036 132.90300000000002 66.5 C 132.61400000000003 66.277 131.98000000000002 65.7 131.17600000000002 64.974 C 129.43050755058948 63.2909222976749 127.56564919090704 61.736205256591994 125.596 60.322 C 125.41152838199297 60.20794375740968 125.34927478103809 59.96903917054246 125.45462559158885 59.779461189119885 C 125.55997640213963 59.58988320769732 125.79572617578857 59.516582752838424 125.99000000000002 59.613 C 128.0178278474897 61.05262437128738 129.93364628002035 62.64384679998146 131.721 64.37299999999996 C 132.48000000000002 65.062 133.13600000000002 65.656 133.39800000000002 65.86 C 134.13500000000002 66.432 134.47000000000003 66.439 134.60500000000002 66.39 C 134.96400000000003 66.26 135.16100000000003 65.365 135.33200000000002 64.576 C 135.64200000000002 63.157999999999994 136.032 61.391999999999996 137.72500000000002 61.391999999999996 C 137.9486753236815 61.391999999999996 138.13000000000002 61.57332467631853 138.13000000000002 61.797 C 138.13000000000002 62.020675323681466 137.9486753236815 62.202 137.72500000000002 62.202 C 136.75300000000001 62.202 136.461 63.211 136.12500000000003 64.749 C 135.88700000000003 65.83999999999999 135.66200000000003 66.86999999999999 134.88300000000004 67.149 C 134.75526359045764 67.19625746849691 134.62019736410534 67.22063032137251 134.48400000000004 67.221 z" stroke-linecap="round" />
</g>
<g transform="matrix(4.52 0 0 4.52 261.41 304.09)" id="KxP6JjKEFOhEBta68mZPZ"  >
<path style="stroke: none; stroke-width: 1; stroke-dasharray: none; stroke-linecap: butt; stroke-dashoffset: 0; stroke-linejoin: miter; stroke-miterlimit: 4; fill: rgb(0,94,171); fill-rule: nonzero; opacity: 1;" vector-effect="non-scaling-stroke"  transform=" translate(-143.01, -65.62)" d="M 143.508 73.28 C 143.37593909285974 73.28250477837733 143.2511555991574 73.21965445772817 143.17455332228883 73.11205125941149 C 143.09795104542027 73.0044480610948 143.07940704095694 72.86596628249296 143.125 72.742 C 144.675 68.29 143.913 62.20700000000001 141.349 58.59 C 141.21948922616465 58.40746989018093 141.2624698901809 58.15451077383533 141.445 58.025 C 141.62753010981908 57.89548922616468 141.88048922616466 57.938469890180926 142.01 58.121 C 144.756 61.994 145.546 68.255 143.89 73.007 C 143.83508594303208 73.17102155830938 143.68096609053595 73.28116480367964 143.50799999999998 73.28 z" stroke-linecap="round" />
</g>
<g transform="matrix(4.52 0 0 4.52 270.59 300.2)" id="3VeH9wWNStOd1KUMc7ce7"  >
<path style="stroke: none; stroke-width: 1; stroke-dasharray: none; stroke-linecap: butt; stroke-dashoffset: 0; stroke-linejoin: miter; stroke-miterlimit: 4; fill: rgb(0,94,171); fill-rule: nonzero; opacity: 1;" vector-effect="non-scaling-stroke"  transform=" translate(-145.04, -64.76)" d="M 144.671 75.025 L 144.658 75.025 C 144.5502900563461 75.02268622613065 144.44806736963818 74.97702175641942 144.37447081627872 74.89834308812206 C 144.30087426291922 74.8196644198247 144.26212708550872 74.71462453352187 144.267 74.607 C 144.21027993493544 73.58234163532593 144.41683800370387 72.56022345837013 144.867 71.638 C 145.01619689370818 71.351801698024 145.13324346695458 71.04996239738858 145.21599999999998 70.738 C 145.30389909292686 70.15121294962977 145.27329638572778 69.55276000884811 145.12599999999998 68.978 C 144.83522597556413 67.86832989803688 144.87204230178637 66.69819590706824 145.23199999999997 65.609 C 145.77756921361342 64.38132065194293 146.44988381419824 63.21398677665032 147.23799999999997 62.126000000000005 C 147.6267340919291 61.57566755798232 147.98397330162658 61.00375095404607 148.30799999999996 60.41299999999999 C 148.46899999999997 59.782999999999994 144.90799999999996 57.068 141.18199999999996 55.262 C 141.05046481311038 55.19971896786671 140.9624597508161 55.07165180000728 140.95147350234427 54.92653207461415 C 140.94048725387245 54.78141234922103 141.00820923388522 54.641555908911315 141.1288691027752 54.560182520183105 C 141.2495289716652 54.478809131454895 141.4045722108302 54.4684320190346 141.53499999999997 54.533 C 143.89099999999996 55.675000000000004 148.51699999999997 58.469 149.05699999999996 60.057 C 149.1481720241165 60.28969442757194 149.1398576711744 60.54960833041373 149.03399999999996 60.776 C 148.6948949869464 61.39748712877381 148.31958214693782 61.998521925940594 147.90999999999997 62.576 C 147.1564484835366 63.61762800902557 146.51110871695823 64.73340237180122 145.98399999999998 65.90600000000002 C 145.68559783955595 66.85800262175377 145.66409474495345 67.87523772609471 145.92199999999997 68.839 C 146.09747083225636 69.52780497081564 146.1240619657483 70.24610648706553 145.99999999999997 70.946 C 145.9022411103602 71.30843066370845 145.76613938635063 71.65941220321095 145.59399999999997 71.993 C 145.19924474771005 72.81407322636292 145.02191664789302 73.72275061552249 145.07899999999998 74.63199999999999 C 145.07716160223302 74.73826844383123 145.0331055662071 74.83943602455344 144.9565572211662 74.9131700922031 C 144.88000887612534 74.98690415985277 144.77726276612202 75.02714158743815 144.671 75.02499999999999 z" stroke-linecap="round" />
</g>
<g transform="matrix(4.52 0 0 4.52 284.33 289.85)" id="vkC9KHhIjTwYxTWFLlc7F"  >
<path style="stroke: none; stroke-width: 1; stroke-dasharray: none; stroke-linecap: butt; stroke-dashoffset: 0; stroke-linejoin: miter; stroke-miterlimit: 4; fill: rgb(0,94,171); fill-rule: nonzero; opacity: 1;" vector-effect="non-scaling-stroke"  transform=" translate(-148.08, -62.46)" d="M 148.163 64.875 C 147.86068638291832 64.8584091270498 147.56434807211232 64.78406996317062 147.29000000000002 64.656 C 147.0834455035633 64.5695674366515 146.9860674366515 64.33205449643673 147.07250000000002 64.12550000000002 C 147.15893256334854 63.9189455035633 147.39644550356329 63.82156743665149 147.603 63.90800000000001 C 148.097 64.11600000000001 148.22500000000002 64.05600000000001 148.22400000000002 64.05600000000001 C 148.30589884848737 63.66099307128773 148.3153860922353 63.254396910662486 148.252 62.85600000000001 C 148.1615046849348 62.028902391430854 148.18640963223118 61.19324044363574 148.32600000000002 60.37300000000002 C 148.37273320440093 60.15527877397422 148.5864711782619 60.01612648986352 148.80448227983734 60.06148819447884 C 149.0224933814128 60.10684989909416 149.16298840721353 60.3197076623274 149.11900000000003 60.53800000000001 C 148.99456279892544 61.28560415253019 148.97437059304823 62.046850314100425 149.05900000000003 62.80000000000001 C 149.11900000000003 63.68200000000001 149.16800000000003 64.37800000000001 148.693 64.71800000000002 C 148.53762738741523 64.82557854051727 148.35189804273733 64.88059647846903 148.163 64.87500000000001 z" stroke-linecap="round" />
</g>
<g transform="matrix(4.52 0 0 4.52 159.58 171.02)" id="0btTdKwxXafUL0uJ3de2r"  >
<path style="stroke: none; stroke-width: 1; stroke-dasharray: none; stroke-linecap: butt; stroke-dashoffset: 0; stroke-linejoin: miter; stroke-miterlimit: 4; fill: rgb(0,94,171); fill-rule: nonzero; opacity: 1;" vector-effect="non-scaling-stroke"  transform=" translate(-120.48, -36.18)" d="M 109.819 59.932 L 109.803 59.932 C 109.57990016796538 59.92278985425116 109.40611032108805 59.73515043088746 109.414 59.512 C 109.50798007717289 57.43680353550429 110.15234999137405 55.42396725290057 111.281 53.68 C 112.71159515844732 51.082650924783294 113.88998180380301 48.35417852172615 114.80000000000001 45.53200000000001 C 115.58800000000001 43.157 117.9 31.231999999999996 117.92500000000001 31.106999999999996 L 118.07900000000001 30.306999999999995 C 119.07900000000001 25.130999999999993 119.801 21.390999999999995 122.762 16.786999999999995 C 124.081 14.736999999999995 127.539 11.773999999999996 131.22 12.549999999999995 C 131.4389809033079 12.596115776610867 131.57911577661088 12.811019096692085 131.533 13.029999999999996 C 131.48688422338913 13.248980903307904 131.2719809033079 13.389115776610867 131.053 13.342999999999995 C 127.65299999999999 12.623999999999995 124.458 15.647999999999994 123.444 17.225999999999996 C 120.569 21.698999999999995 119.86 25.373999999999995 118.876 30.460999999999995 L 118.72200000000001 31.260999999999996 C 118.62200000000001 31.753999999999994 116.373 43.361 115.57100000000001 45.785999999999994 C 114.6463153860814 48.65200901868774 113.44952873025849 51.42296860932416 111.99700000000001 54.060999999999986 C 110.92735257530107 55.69685215605367 110.31579400998153 57.5895413127541 110.22600000000001 59.542 C 110.21738978336855 59.760343641996464 110.03751219803475 59.93270791295514 109.81900000000002 59.931999999999995 z" stroke-linecap="round" />
</g>
<g transform="matrix(4.52 0 0 4.52 272.53 182.55)" id="Bz8isNqnIy2lun2Et6sjR"  >
<path style="stroke: none; stroke-width: 1; stroke-dasharray: none; stroke-linecap: butt; stroke-dashoffset: 0; stroke-linejoin: miter; stroke-miterlimit: 4; fill: rgb(0,94,171); fill-rule: nonzero; opacity: 1;" vector-effect="non-scaling-stroke"  transform=" translate(-145.47, -38.72)" d="M 156.01 65.588 C 155.9643967058224 65.58847723390105 155.91905677791704 65.58103336514047 155.876 65.56599999999999 C 155.77369884861952 65.53176912055656 155.68956087007163 65.45766887413075 155.64267758158385 65.36051314377056 C 155.5957942930961 65.26335741341039 155.5901408285386 65.15138382593108 155.627 65.04999999999998 C 156.644 62.12999999999998 155.366 59.89899999999999 154.013 57.53599999999998 C 152.97627962312032 55.97972994257806 152.2678436258751 54.228375438341196 151.931 52.38899999999998 C 151.6382120271406 49.75172494746959 151.5023061127852 47.099389129963406 151.524 44.446000000000026 C 151.524 35.84599999999998 151.524 25.190999999999985 146.435 17.753999999999984 C 144.762 15.307999999999984 140.15200000000002 11.209999999999983 134.685 13.197999999999983 C 134.4748556526894 13.274767580226461 134.2422675802265 13.166644347310596 134.1655 12.956499999999979 C 134.08873241977352 12.746355652689362 134.1968556526894 12.513767580226462 134.407 12.436999999999983 C 140.34300000000002 10.278999999999984 145.30700000000002 14.671999999999983 147.107 17.296999999999983 C 152.336 24.939999999999984 152.336 35.731999999999985 152.336 44.40199999999999 C 152.31289776853663 47.0382673623485 152.44646649530358 49.67357834146088 152.736 52.293999999999976 C 153.06517566174665 54.02349740396765 153.73813228245876 55.669333707275634 154.71500000000003 57.133999999999986 C 156.09800000000004 59.54999999999998 157.52900000000002 62.04799999999999 156.39200000000002 65.31699999999998 C 156.33485609103775 65.47907762001557 156.18185585992217 65.58761966879128 156.01000000000002 65.58799999999998 z" stroke-linecap="round" />
</g>
<g transform="matrix(4.52 0 0 4.52 301.69 274.3)" id="tq6tw0LYAD32RBLq9QR4i"  >
<path style="stroke: none; stroke-width: 1; stroke-dasharray: none; stroke-linecap: butt; stroke-dashoffset: 0; stroke-linejoin: miter; stroke-miterlimit: 4; fill: rgb(0,94,171); fill-rule: nonzero; opacity: 1;" vector-effect="non-scaling-stroke"  transform=" translate(-151.92, -59.03)" d="M 153.714 65.565 C 153.69468448993425 65.56617402414524 153.67531551006576 65.56617402414524 153.656 65.565 C 153.43498417569953 65.53202171711008 153.28162032847953 65.32738797910432 153.312 65.106 C 153.67700000000002 62.586999999999996 152.512 60.31999999999999 151.38500000000002 58.12799999999999 C 150.45200000000003 56.31199999999999 149.57000000000002 54.59599999999999 149.65900000000002 52.879999999999995 C 149.65995659218524 52.77107699969909 149.706422335011 52.667517609829645 149.78715073594464 52.59438717604273 C 149.86787913687823 52.521256742255815 149.97551270963885 52.48522028153523 150.08400000000003 52.495 C 150.30714844296185 52.506849040344456 150.4787719859918 52.696796972083334 150.46800000000002 52.919999999999995 C 150.39200000000002 54.419999999999995 151.22600000000003 56.041 152.10700000000003 57.75699999999999 C 153.23600000000002 59.956999999999994 154.51600000000002 62.44699999999999 154.116 65.22099999999999 C 154.08576737944108 65.4194457180888 153.91473382850782 65.56580278654909 153.71400000000003 65.56499999999998 z" stroke-linecap="round" />
</g>
<g transform="matrix(4.52 0 0 4.52 152.12 582.47)" id="IbSq89JYNW2Yml21Z8e31"  >
<path style="stroke: none; stroke-width: 1; stroke-dasharray: none; stroke-linecap: butt; stroke-dashoffset: 0; stroke-linejoin: miter; stroke-miterlimit: 4; fill: rgb(0,94,171); fill-rule: nonzero; opacity: 1;" vector-effect="non-scaling-stroke"  transform=" translate(-118.83, -127.21)" d="M 116.951 133.765 C 116.91201365510454 133.76440594615642 116.8733032857339 133.75834693182014 116.836 133.74699999999999 C 116.73324344918477 133.71734641408432 116.64664153023641 133.6477777038034 116.59553377587115 133.55382962592608 C 116.5444260215059 133.45988154804877 116.53306939330572 133.34937939960082 116.564 133.24699999999999 C 116.871 132.22099999999998 117.35 130.492 117.851 128.688 C 118.478 126.42999999999999 119.123 124.094 119.524 122.817 C 119.56230722507848 122.69310396007448 119.59798191669371 122.56840924358761 119.631 122.443 C 119.7472962001021 121.82709008464445 120.01615988344952 121.25016775643861 120.413 120.765 C 120.57122958082651 120.60677041917349 120.82777041917348 120.60677041917349 120.98599999999999 120.765 C 121.1442295808265 120.92322958082651 121.1442295808265 121.17977041917348 120.98599999999999 121.338 C 120.69769897104788 121.7301604281165 120.50181360339332 122.18244025605189 120.413 122.66099999999999 C 120.375 122.79999999999998 120.337 122.93499999999999 120.298 123.06099999999999 C 119.898 124.326 119.256 126.65499999999999 118.632 128.908 C 118.132 130.718 117.65 132.45399999999998 117.34 133.482 C 117.28619374205292 133.6512658765166 117.12860975092802 133.76590924281055 116.95100000000001 133.765 z" stroke-linecap="round" />
</g>
<g transform="matrix(4.52 0 0 4.52 267.83 597.61)" id="SrC0MqNTuDAYR3cCilLyr"  >
<path style="stroke: none; stroke-width: 1; stroke-dasharray: none; stroke-linecap: butt; stroke-dashoffset: 0; stroke-linejoin: miter; stroke-miterlimit: 4; fill: rgb(0,94,171); fill-rule: nonzero; opacity: 1;" vector-effect="non-scaling-stroke"  transform=" translate(-144.43, -130.56)" d="M 144.317 138.083 C 144.2109134040642 138.083 144.1091718389046 138.04085726385384 144.03415728752537 137.96584271247463 C 143.95914273614616 137.8908281610954 143.917 137.7890865959358 143.917 137.683 C 143.89361586328482 136.8204068343008 143.81680200046526 135.96009157072152 143.687 135.107 C 143.5086971596828 134.02124115596632 143.43569146885747 132.92079757774584 143.46900000000002 131.821 C 143.57638894562254 130.55331883986835 143.76443651456512 129.29376753883375 144.032 128.05 C 144.37671601172946 126.53569038243502 144.564044005092 124.98981554633222 144.591 123.43700000000001 C 144.591 123.21332467631854 144.77232467631853 123.03200000000001 144.996 123.03200000000001 C 145.21967532368149 123.03200000000001 145.401 123.21332467631854 145.401 123.43700000000001 C 145.37320029798468 125.04210917213547 145.18086075985852 126.64013575283877 144.827 128.20600000000002 C 144.5658371019316 129.41732958262696 144.38279320008053 130.64419135543534 144.279 131.87900000000002 C 144.24907463449512 132.92439525286736 144.3200701447735 133.9702394915435 144.49099999999999 135.002 C 144.62666326186326 135.88941434110833 144.70582262715936 136.78454977989975 144.72799999999998 137.68200000000002 C 144.72831141614571 137.790193628743 144.68478097256312 137.89389875175127 144.60733990253607 137.96945561082876 C 144.529898832509 138.04501246990625 144.42515314596665 138.08597578529245 144.31699999999998 138.08300000000003 z" stroke-linecap="round" />
</g>
<g transform="matrix(4.52 0 0 4.52 148.37 146.43)" id="AcV2LrVBTcRUxX1IyreGy"  >
<path style="stroke: none; stroke-width: 1; stroke-dasharray: none; stroke-linecap: butt; stroke-dashoffset: 0; stroke-linejoin: miter; stroke-miterlimit: 4; fill: rgb(0,94,171); fill-rule: nonzero; opacity: 1;" vector-effect="non-scaling-stroke"  transform=" translate(-118, -30.73)" d="M 114.358 39.47 C 114.14692475403011 39.470637729725304 113.95956979540077 39.33495871556871 113.89432907888383 39.13421804936275 C 113.82908836236689 38.9334773831568 113.90087964053293 38.713575842041706 114.072 38.589999999999996 C 114.72385879256167 38.172230589016515 115.1790389626469 37.508576458305875 115.334 36.74999999999999 C 115.3776527656439 36.26362784697498 115.20713687291334 35.782385991260035 114.867 35.431999999999995 C 113.98100000000001 34.422999999999995 111.238 34.132 110.256 34.10699999999999 C 110.01564838588874 34.10037937495821 109.81626527562302 33.91899947729706 109.7869963048825 33.68034479279742 C 109.75772733414198 33.441690108297784 109.90737133969714 33.21750499831898 110.139 33.15299999999999 C 111.96799999999999 32.64799999999999 114.982 31.403999999999993 115.28099999999999 30.21999999999999 C 115.592 28.99499999999999 113.84299999999999 25.93099999999999 112.669 24.286999999999992 C 112.52775481100778 24.091426042989763 112.55135288753752 23.82184470804813 112.72442910242837 23.65378519503817 C 112.89750531731923 23.485725682028214 113.1676639875556 23.47006495851579 113.359 23.61699999999999 C 114.898 24.78499999999999 117.747 26.58899999999999 118.84599999999999 26.42499999999999 C 121.487 26.04999999999999 122.09599999999999 23.08699999999999 122.18999999999998 22.51399999999999 C 122.18999999999998 22.471999999999987 122.20199999999998 22.434999999999988 122.20699999999998 22.402999999999988 C 122.25010798505024 22.14440770390506 122.49054441102136 21.966609609354045 122.75041960898957 22.00115169174234 C 123.01029480695779 22.03569377413064 123.19593847522674 22.270125567604534 123.16999999999997 22.530999999999988 C 123.16097732944705 22.610262733514368 123.14997388982458 22.689287436257615 123.13699999999997 22.767999999999986 C 122.89699999999998 24.567999999999987 122.91099999999997 27.125999999999987 123.68399999999997 27.559999999999988 C 124.01199999999997 27.74399999999999 124.62399999999997 27.49099999999999 125.40299999999996 26.841999999999988 C 125.53522575191688 26.721845423309542 125.72262915652618 26.68374085347113 125.89127778870075 26.742718905620272 C 126.0599264208753 26.80169695776942 126.18274017888086 26.948287459324863 126.21126786735492 27.124659063501905 C 126.23979555582898 27.301030667678944 126.1694564515474 27.478863186388523 126.02799999999996 27.587999999999987 C 124.88499999999996 28.541999999999987 123.93399999999997 28.81599999999999 123.20699999999997 28.407999999999987 C 122.39299999999997 27.950999999999986 122.10699999999997 26.707999999999988 122.03799999999997 25.462999999999987 C 121.33815114592868 26.50891079785634 120.22750195759257 27.208881457782827 118.98199999999997 27.388999999999985 C 117.91699999999997 27.535999999999984 116.14299999999997 26.624999999999986 114.76099999999997 25.760999999999985 C 115.62399999999997 27.260999999999985 116.53199999999997 29.236999999999984 116.22399999999996 30.460999999999984 C 115.89799999999997 31.744999999999983 114.02399999999996 32.752999999999986 112.47499999999997 33.37999999999998 C 113.63619589634729 33.519859969419294 114.72638325647524 34.01311476924664 115.59799999999997 34.79299999999998 C 116.11817169736248 35.34900807511634 116.37328994935488 36.10233582778532 116.29799999999997 36.85999999999998 C 116.11803473338209 37.8927816241491 115.51810856703423 38.804799737021916 114.64099999999998 39.37899999999998 C 114.558365870165 39.43790672576194 114.45948060894288 39.46970375322206 114.35799999999998 39.46999999999998 z" stroke-linecap="round" />
</g>
</svg>