<svg id="Canaux" xmlns="http://www.w3.org/2000/svg" viewBox="0 0 400 200"><defs><style>.cls-1{fill:#22a466;}.cls-2{fill:#6d6e71;}.cls-3{fill:#1a8e5a;}.cls-4{fill:#8eceaf;}</style></defs><title>google-sheets</title><rect class="cls-1" x="136.81" y="122.28" width="16.6" height="7.39"/><rect class="cls-1" x="136.81" y="134.41" width="16.6" height="6.9"/><rect class="cls-1" x="136.81" y="109.44" width="16.6" height="7.95"/><rect class="cls-1" x="113.66" y="109.51" width="16.6" height="7.95"/><path class="cls-1" d="M182.91,161.05V69.69L144.27,31.2H89.46a8,8,0,0,0-8.16,8v121.9A8,8,0,0,0,89.46,169h85.36a8,8,0,0,0,8.16-7.95ZM160,147.73H107.1V103.1H160Z"/><rect class="cls-1" x="113.66" y="122.28" width="16.6" height="7.39"/><rect class="cls-1" x="113.59" y="134.41" width="16.6" height="6.9"/><path class="cls-2" d="M217.77,78.41H203.48v4.26h10.18c-.49,6-5.37,8.5-10.18,8.5a11.37,11.37,0,1,1,0-22.73,10.9,10.9,0,0,1,7.6,3.07l3-3.07a15.12,15.12,0,0,0-10.74-4.26,15.56,15.56,0,0,0-.56,31.11h.77c8.3,0,14.43-5.72,14.43-14.23A11.89,11.89,0,0,0,217.77,78.41Z"/><path class="cls-2" d="M229.49,79.25a6.11,6.11,0,1,1-5.72,6.55v-.42a5.87,5.87,0,0,1,5.51-6.06h.21Zm0-4a9.9,9.9,0,1,0,.28,0Z"/><path class="cls-2" d="M251.46,79.25a6.07,6.07,0,1,1-5.79,6.34v-.27a5.87,5.87,0,0,1,5.51-6.07Zm-.07-4a9.9,9.9,0,1,0,.28,0Z"/><path class="cls-2" d="M273.28,79.25c2.59,0,5.37,2.23,5.37,6.07s-2.72,6.06-5.37,6.06a5.61,5.61,0,0,1-5.5-5.72v-.21c-.07-4,2.72-6.2,5.5-6.2Zm-.41-4c-5.37,0-9.56,4.75-9.56,10a9.9,9.9,0,0,0,9.49,10,6.54,6.54,0,0,0,5.51-2.44v2c0,3.49-2.1,5.51-5.23,5.51a5.37,5.37,0,0,1-5-3.49l-3.83,1.68a9.74,9.74,0,0,0,9,5.92c5.37,0,9.49-3.41,9.49-10.46V76h-4.25v1.74A7.53,7.53,0,0,0,272.87,75.27Z"/><path class="cls-2" d="M301.25,79.11A4,4,0,0,1,305,81.2L296,85a5.69,5.69,0,0,1,5.3-5.86Zm-.07-3.84c-5,0-9.35,4-9.35,10a9.68,9.68,0,0,0,9.28,10h.56a10.19,10.19,0,0,0,8.44-4.4l-3.42-2.3a5.54,5.54,0,0,1-4.95,2.72,5.3,5.3,0,0,1-4.95-3l13.46-5.71-.7-1.68a9.55,9.55,0,0,0-8.37-5.65Z"/><rect class="cls-2" x="285.42" y="65.23" width="4.39" height="29.5"/><path class="cls-2" d="M206.69,127.78a7.4,7.4,0,0,1-2.72,6,10.75,10.75,0,0,1-12.83.21,10.72,10.72,0,0,1-3.7-5.65l3.49-1.46a10.76,10.76,0,0,0,1,2.3,5.74,5.74,0,0,0,1.47,1.74,6.88,6.88,0,0,0,1.81,1.12,5.57,5.57,0,0,0,2.09.42,6,6,0,0,0,4-1.26,3.83,3.83,0,0,0,1.53-3.42,3.94,3.94,0,0,0-1.39-3,11.2,11.2,0,0,0-4.54-2.31,42.1,42.1,0,0,1-4.25-1.67c-3-1.53-4.39-3.76-4.39-6.76a6.88,6.88,0,0,1,2.51-5.37,9.5,9.5,0,0,1,6.2-2.23,9.08,9.08,0,0,1,5.65,1.67,8.7,8.7,0,0,1,3.21,4l-3.42,1.47a5.27,5.27,0,0,0-1.81-2.58,6.06,6.06,0,0,0-7,.14,3.65,3.65,0,0,0-1.47,2.93,3.15,3.15,0,0,0,1.12,2.51,20,20,0,0,0,5.51,2.58,13.66,13.66,0,0,1,6.06,3.55A6.81,6.81,0,0,1,206.69,127.78Z"/><path class="cls-2" d="M210,107.21h3.7v8.93l-.14,2.72h.14a7,7,0,0,1,2.51-2.44,7.17,7.17,0,0,1,3.56-1,7,7,0,0,1,5.37,2,8.74,8.74,0,0,1,2,5.79v12.21h-3.7V124c0-3.49-1.53-5.23-4.67-5.23a4.9,4.9,0,0,0-3.76,1.81,6.28,6.28,0,0,0-1.54,4.4v10.46h-3.63V107.28H210Z"/><path class="cls-2" d="M233.88,123.46h11a5.07,5.07,0,0,0-1.67-3.42,6.32,6.32,0,0,0-4-1.39,5.37,5.37,0,0,0-3.48,1.25A6.61,6.61,0,0,0,233.88,123.46ZM239.67,136a9.09,9.09,0,0,1-7-2.93,10.86,10.86,0,0,1-2.79-7.32,10.39,10.39,0,0,1,2.72-7.32,9.68,9.68,0,0,1,13.67-.21h0c1.74,1.81,2.51,4.39,2.51,7.74v.42H233.6a6.22,6.22,0,0,0,6.21,6.21,6.09,6.09,0,0,0,4.39-1.82,5.27,5.27,0,0,0,1.12-1.67l3.21,1.53a9,9,0,0,1-3.56,3.84A9.54,9.54,0,0,1,239.67,136Z"/><path class="cls-2" d="M254.73,123.46h11a5,5,0,0,0-1.67-3.42,6.32,6.32,0,0,0-4-1.39,5.37,5.37,0,0,0-3.48,1.25A7.7,7.7,0,0,0,254.73,123.46ZM260.59,136a9.09,9.09,0,0,1-7-2.93,10.9,10.9,0,0,1-2.79-7.32,10.39,10.39,0,0,1,2.72-7.32,9.68,9.68,0,0,1,13.67-.21h0c1.74,1.81,2.51,4.39,2.51,7.74v.42h-15.2a6.22,6.22,0,0,0,6.2,6.21,6.11,6.11,0,0,0,4.4-1.82,5.42,5.42,0,0,0,1.11-1.67l3.21,1.53a9,9,0,0,1-3.56,3.84,9.68,9.68,0,0,1-5.3,1.53Z"/><path class="cls-2" d="M279.77,135.73a5.31,5.31,0,0,1-4-1.46,5,5,0,0,1-1.54-4V119.35h-3.42v-3.21h3.42v-5.93H278v5.93h4.74v3.28H278V129a3.81,3.81,0,0,0,.76,2.58,2.32,2.32,0,0,0,1.75.7,1.72,1.72,0,0,0,.83-.14l.77-.28,1.12,3.21A8.53,8.53,0,0,1,279.77,135.73Z"/><path class="cls-2" d="M300.83,130a5.24,5.24,0,0,1-2.23,4.25,9.42,9.42,0,0,1-10.6.21,9.44,9.44,0,0,1-3.21-4l3.21-1.39a6.47,6.47,0,0,0,2,2.72,5,5,0,0,0,3,1A4.86,4.86,0,0,0,296,132a2,2,0,0,0,1.11-1.74c0-1.26-1-2.1-2.78-2.72l-3.28-.84c-3.77-1-5.72-2.72-5.72-5.37a5.32,5.32,0,0,1,2.09-4.26,9.88,9.88,0,0,1,10.18-.41,6.37,6.37,0,0,1,2.93,3.27l-3.21,1.4a3.7,3.7,0,0,0-1.81-2,5.51,5.51,0,0,0-2.79-.7,4.54,4.54,0,0,0-2.51.7,1.88,1.88,0,0,0-1.11,1.74c0,1.12,1.11,2,3.06,2.3l2.93.77C298.88,125.2,300.83,127.16,300.83,130Z"/><polygon class="cls-3" points="147.9 68.79 182.28 100.8 182.14 69.69 147.9 68.79"/><path class="cls-4" d="M182.28,69.69H151.73a8,8,0,0,1-8.16-7.95h0V31.2Z"/></svg>