<?xml version="1.0" encoding="UTF-8" standalone="no" ?>
<!DOCTYPE svg PUBLIC "-//W3C//DTD SVG 1.1//EN" "http://www.w3.org/Graphics/SVG/1.1/DTD/svg11.dtd">
<svg xmlns="http://www.w3.org/2000/svg" xmlns:xlink="http://www.w3.org/1999/xlink" version="1.1" width="480" height="480" viewBox="0 0 480 480" xml:space="preserve">
<desc>Created with Fabric.js 4.6.0</desc>
<defs>
</defs>
<g transform="matrix(1 0 0 1 241.17 241.53)" id="9NNPSjL9adcdhxMt2DdiL"  >
<path style="stroke: rgb(38,172,104); stroke-width: 0; stroke-dasharray: none; stroke-linecap: butt; stroke-dashoffset: 0; stroke-linejoin: miter; stroke-miterlimit: 4; fill: rgb(0,69,247); fill-rule: nonzero; opacity: 1;" vector-effect="non-scaling-stroke"  transform=" translate(-242.11, -242.11)" d="M 0 0 L 484.21053 0 L 484.21053 484.21053 L 0 484.21053 z" stroke-linecap="round" />
</g>
<g transform="matrix(3.24 0 0 3.24 249.98 176.7)" id="JE0hKBNvbIPLNJlN1lKXu"  >
<path style="stroke: none; stroke-width: 1; stroke-dasharray: none; stroke-linecap: butt; stroke-dashoffset: 0; stroke-linejoin: miter; stroke-miterlimit: 4; fill: rgb(231,0,199); fill-rule: nonzero; opacity: 1;" vector-effect="non-scaling-stroke"  transform=" translate(-80.62, -49.61)" d="M 51.04 48.09 C 45.56 49.67 36.02 54.48 33.41 55.67 C 30.8 56.86 26.82 66.77 28.06 66.79 C 28.28 66.79 27.95 70.87 27.07 79.02 C 46.19 88.71 64.67 93.67 82.52 93.9 C 100.37 94.12 117.59 89.61 134.17 80.36 L 131.46 66.13 L 130.56 61.77 C 129.84 59.31 128.39 57.28 126.21 55.67 C 124.02 54.06 115.76 50.63 101.42 45.4 C 103.04 43.21 104.19 41.27 104.87 39.59 C 105.66 37.6 106.02 37.47 106.16 35.52 C 106.25 34.21 103.68 27.78 98.47 16.23 C 91.81 8.96 85.52 5.32 79.6 5.32 C 75.33 5.32 73.87 6.84 71.58 8.32 C 69.1 9.93 64.59 12.4 61.17 16.23 C 58.78 18.91 58.92 22.04 57.71 24.35 C 55.6 28.38 52.96 32.49 53.22 36.1 C 53.48 39.71 58.47 45.29 58.08 45.4 C 57.7 45.5 55.61 46.77 51.04 48.09 Z" stroke-linecap="round" />
</g>
<g transform="matrix(3.24 0 0 3.24 249.98 176.7)" id="VmzxAvGY36H3qUyXGMfy9"  >
<path style="stroke: rgb(0,255,252); stroke-width: 0; stroke-dasharray: none; stroke-linecap: butt; stroke-dashoffset: 0; stroke-linejoin: miter; stroke-miterlimit: 4; fill: rgb(0,0,0); fill-opacity: 0; fill-rule: nonzero; opacity: 1;" vector-effect="non-scaling-stroke"  transform=" translate(-80.62, -49.61)" d="M 51.04 48.09 C 45.56 49.67 36.02 54.48 33.41 55.67 C 30.8 56.86 26.82 66.77 28.06 66.79 C 28.28 66.79 27.95 70.87 27.07 79.02 C 46.19 88.71 64.67 93.67 82.52 93.9 C 100.37 94.12 117.59 89.61 134.17 80.36 L 131.46 66.13 L 130.56 61.77 C 129.84 59.31 128.39 57.28 126.21 55.67 C 124.02 54.06 115.76 50.63 101.42 45.4 C 103.04 43.21 104.19 41.27 104.87 39.59 C 105.66 37.6 106.02 37.47 106.16 35.52 C 106.25 34.21 103.68 27.78 98.47 16.23 C 91.81 8.96 85.52 5.32 79.6 5.32 C 75.33 5.32 73.87 6.84 71.58 8.32 C 69.1 9.93 64.59 12.4 61.17 16.23 C 58.78 18.91 58.92 22.04 57.71 24.35 C 55.6 28.38 52.96 32.49 53.22 36.1 C 53.48 39.71 58.47 45.29 58.08 45.4 C 57.7 45.5 55.61 46.77 51.04 48.09 Z" stroke-linecap="round" />
</g>
<g transform="matrix(3.24 0 0 3.24 246.8 112.99)" id="C7mbB5tjy6HIVTM8A9MTq"  >
<filter id="SVGID_10" y="-27%" height="154%" x="-27%" width="154%" >
	<feGaussianBlur in="SourceAlpha" stdDeviation="1"></feGaussianBlur>
	<feOffset dx="1" dy="1" result="oBlur" ></feOffset>
	<feFlood flood-color="rgb(106,179,130)" flood-opacity="0.46"/>
	<feComposite in2="oBlur" operator="in" />
	<feMerge>
		<feMergeNode></feMergeNode>
		<feMergeNode in="SourceGraphic"></feMergeNode>
	</feMerge>
</filter>
<path style="stroke: none; stroke-width: 1; stroke-dasharray: none; stroke-linecap: butt; stroke-dashoffset: 0; stroke-linejoin: miter; stroke-miterlimit: 4; fill: rgb(255,255,255); fill-rule: nonzero; opacity: 1;filter: url(#SVGID_10);" vector-effect="non-scaling-stroke"  transform=" translate(-79.64, -29.92)" d="M 58.32 35.09 C 58.4 28.91 65.03 19.9 66.26 17.48 C 67.5 15.06 73.18 10.96 77.38 9.71 C 81.59 8.46 89.62 12.4 88.42 13.4 C 87.62 14.07 84.34 11.73 80.97 11.48 C 79.23 11.36 77.47 12.48 76.01 13.4 C 71.74 16.12 73.91 16.88 72.73 17.86 C 69.89 20.18 69.42 20.46 70.77 20.69 C 72.7 21 79.56 20.52 79.23 21.5 C 78.9 22.49 72.18 22.89 69.05 24.38 C 65.93 25.87 64.48 27.72 65.95 27.31 C 67.42 26.9 78.18 25.8 79.64 26.43 C 80.62 26.85 77.98 27.67 71.73 28.89 C 69.91 29.39 69.28 29.91 69.83 30.42 C 70.66 31.19 78.48 29.73 85.1 29.78 C 91.73 29.83 90.61 29.48 94.68 30.42 C 97.39 31.05 99.48 31.94 100.97 33.09 C 99.32 32.28 97.61 31.72 95.85 31.41 C 93.21 30.93 95.64 30.69 89.77 31.01 C 83.9 31.34 79.55 31.6 72.38 33.09 C 65.21 34.59 62.72 35.59 61.72 37.97 C 61.05 39.55 63.06 43.69 67.75 50.37 C 61.41 44.31 58.27 39.21 58.32 35.09 Z" stroke-linecap="round" />
</g>
<g transform="matrix(3.24 0 0 3.24 246.8 112.99)" id="QzqrIWMcxhxBBZ49jBnta"  >
<path style="stroke: none; stroke-width: 1; stroke-dasharray: none; stroke-linecap: butt; stroke-dashoffset: 0; stroke-linejoin: miter; stroke-miterlimit: 4; fill: rgb(2,201,31); fill-rule: nonzero; opacity: 1;" vector-effect="non-scaling-stroke"  transform=" translate(-79.64, -29.92)" d="M 58.32 35.09 C 58.4 28.91 65.03 19.9 66.26 17.48 C 67.5 15.06 73.18 10.96 77.38 9.71 C 81.59 8.46 89.62 12.4 88.42 13.4 C 87.62 14.07 84.34 11.73 80.97 11.48 C 79.23 11.36 77.47 12.48 76.01 13.4 C 71.74 16.12 73.91 16.88 72.73 17.86 C 69.89 20.18 69.42 20.46 70.77 20.69 C 72.7 21 79.56 20.52 79.23 21.5 C 78.9 22.49 72.18 22.89 69.05 24.38 C 65.93 25.87 64.48 27.72 65.95 27.31 C 67.42 26.9 78.18 25.8 79.64 26.43 C 80.62 26.85 77.98 27.67 71.73 28.89 C 69.91 29.39 69.28 29.91 69.83 30.42 C 70.66 31.19 78.48 29.73 85.1 29.78 C 91.73 29.83 90.61 29.48 94.68 30.42 C 97.39 31.05 99.48 31.94 100.97 33.09 C 99.32 32.28 97.61 31.72 95.85 31.41 C 93.21 30.93 95.64 30.69 89.77 31.01 C 83.9 31.34 79.55 31.6 72.38 33.09 C 65.21 34.59 62.72 35.59 61.72 37.97 C 61.05 39.55 63.06 43.69 67.75 50.37 C 61.41 44.31 58.27 39.21 58.32 35.09 Z" stroke-linecap="round" />
</g>
<g transform="matrix(3.24 0 0 3.24 246.8 112.99)" id="qfamnRWyhlZH-slCXka5M"  >
<path style="stroke: rgb(106,179,131); stroke-width: 0; stroke-dasharray: none; stroke-linecap: butt; stroke-dashoffset: 0; stroke-linejoin: miter; stroke-miterlimit: 4; fill: rgb(0,0,0); fill-opacity: 0; fill-rule: nonzero; opacity: 1;" vector-effect="non-scaling-stroke"  transform=" translate(-79.64, -29.92)" d="M 58.32 35.09 C 58.4 28.91 65.03 19.9 66.26 17.48 C 67.5 15.06 73.18 10.96 77.38 9.71 C 81.59 8.46 89.62 12.4 88.42 13.4 C 87.62 14.07 84.34 11.73 80.97 11.48 C 79.23 11.36 77.47 12.48 76.01 13.4 C 71.74 16.12 73.91 16.88 72.73 17.86 C 69.89 20.18 69.42 20.46 70.77 20.69 C 72.7 21 79.56 20.52 79.23 21.5 C 78.9 22.49 72.18 22.89 69.05 24.38 C 65.93 25.87 64.48 27.72 65.95 27.31 C 67.42 26.9 78.18 25.8 79.64 26.43 C 80.62 26.85 77.98 27.67 71.73 28.89 C 69.91 29.39 69.28 29.91 69.83 30.42 C 70.66 31.19 78.48 29.73 85.1 29.78 C 91.73 29.83 90.61 29.48 94.68 30.42 C 97.39 31.05 99.48 31.94 100.97 33.09 C 99.32 32.28 97.61 31.72 95.85 31.41 C 93.21 30.93 95.64 30.69 89.77 31.01 C 83.9 31.34 79.55 31.6 72.38 33.09 C 65.21 34.59 62.72 35.59 61.72 37.97 C 61.05 39.55 63.06 43.69 67.75 50.37 C 61.41 44.31 58.27 39.21 58.32 35.09 Z" stroke-linecap="round" />
</g>
<g transform="matrix(3.24 0 0 3.24 271.14 148.64)" id="Tc8xKsTx5eATJfapEHMac"  >
<filter id="SVGID_11" y="-150%" height="400%" x="-60%" width="220%" >
	<feGaussianBlur in="SourceAlpha" stdDeviation="1"></feGaussianBlur>
	<feOffset dx="1" dy="1" result="oBlur" ></feOffset>
	<feFlood flood-color="rgb(255,252,252)" flood-opacity="0.52"/>
	<feComposite in2="oBlur" operator="in" />
	<feMerge>
		<feMergeNode></feMergeNode>
		<feMergeNode in="SourceGraphic"></feMergeNode>
	</feMerge>
</filter>
<path style="stroke: none; stroke-width: 1; stroke-dasharray: none; stroke-linecap: butt; stroke-dashoffset: 0; stroke-linejoin: miter; stroke-miterlimit: 4; fill: rgb(255,255,255); fill-rule: nonzero; opacity: 1;filter: url(#SVGID_11);" vector-effect="non-scaling-stroke"  transform=" translate(-87.16, -40.94)" d="M 90.85 40.86 C 91.48 41.42 87.96 42.28 86.24 42.06 C 84.53 41.83 82.59 40.07 83.74 39.83 C 84.9 39.58 90.23 40.3 90.85 40.86 Z" stroke-linecap="round" />
</g>
<g transform="matrix(3.24 0 0 3.24 271.14 148.64)" id="XGmPkG7WD8IWCrWghm8IZ"  >
<path style="stroke: none; stroke-width: 1; stroke-dasharray: none; stroke-linecap: butt; stroke-dashoffset: 0; stroke-linejoin: miter; stroke-miterlimit: 4; fill: rgb(255,255,255); fill-rule: nonzero; opacity: 1;" vector-effect="non-scaling-stroke"  transform=" translate(-87.16, -40.94)" d="M 90.85 40.86 C 91.48 41.42 87.96 42.28 86.24 42.06 C 84.53 41.83 82.59 40.07 83.74 39.83 C 84.9 39.58 90.23 40.3 90.85 40.86 Z" stroke-linecap="round" />
</g>
<g transform="matrix(3.24 0 0 3.24 271.14 148.64)" id="JohFnlv2tRoElWmhdhcd3"  >
<path style="stroke: rgb(0,0,0); stroke-width: 0; stroke-dasharray: none; stroke-linecap: butt; stroke-dashoffset: 0; stroke-linejoin: miter; stroke-miterlimit: 4; fill: rgb(0,0,0); fill-opacity: 0; fill-rule: nonzero; opacity: 1;" vector-effect="non-scaling-stroke"  transform=" translate(-87.16, -40.94)" d="M 90.85 40.86 C 91.48 41.42 87.96 42.28 86.24 42.06 C 84.53 41.83 82.59 40.07 83.74 39.83 C 84.9 39.58 90.23 40.3 90.85 40.86 Z" stroke-linecap="round" />
</g>
<g transform="matrix(3.24 0 0 3.24 232.79 165.27)" id="0_VY_j1KAtocl5HvBYUb6"  >
<filter id="SVGID_12" y="-39%" height="178%" x="-41%" width="182%" >
	<feGaussianBlur in="SourceAlpha" stdDeviation="1"></feGaussianBlur>
	<feOffset dx="1" dy="1" result="oBlur" ></feOffset>
	<feFlood flood-color="rgb(255,255,255)" flood-opacity="0.52"/>
	<feComposite in2="oBlur" operator="in" />
	<feMerge>
		<feMergeNode></feMergeNode>
		<feMergeNode in="SourceGraphic"></feMergeNode>
	</feMerge>
</filter>
<path style="stroke: none; stroke-width: 1; stroke-dasharray: none; stroke-linecap: butt; stroke-dashoffset: 0; stroke-linejoin: miter; stroke-miterlimit: 4; fill: rgb(255,255,255); fill-rule: nonzero; opacity: 1;filter: url(#SVGID_12);" vector-effect="non-scaling-stroke"  transform=" translate(-75.31, -46.08)" d="M 79.55 53.74 C 79.85 53.49 79.64 52.36 78.92 50.34 L 78.34 49.78 C 79.03 49.38 79.64 49.18 80.2 49.2 C 81.03 49.22 81.3 49.8 81.66 49.61 C 81.94 49.48 82.22 49.2 82.52 48.77 L 80.08 48.22 L 76.96 48.68 C 76.46 48.7 76.02 48.65 75.64 48.53 C 75.26 48.4 74.95 48.13 74.7 47.72 C 73.91 46.72 73.25 45.86 72.7 45.14 C 72.15 44.41 71.66 43.9 71.21 43.6 C 71.46 43.42 71.96 43.56 72.7 44.02 C 73.81 44.72 74.43 46.01 75.64 46.38 C 76.86 46.76 77.76 46.43 77.96 46.04 C 78.15 45.64 76.58 45.62 76.42 44.8 C 76.25 43.97 76.92 43.06 77.3 42.98 C 77.67 42.89 77.03 43.39 77.69 43.82 C 78.35 44.26 79.01 44.4 79.94 44.47 C 80.56 44.53 81.06 44.41 81.43 44.13 C 81.94 43.87 82.2 43.61 82.2 43.38 C 82.2 43.03 81.82 42.81 81.43 42.73 C 81.03 42.64 80.95 39.42 80.68 39.16 C 80.41 38.9 80.44 38.33 79.86 38.35 C 79.27 38.36 79.35 38.8 78.34 39.6 C 77.76 40.05 76.46 40.01 74.26 40.15 C 72.64 40.25 68.07 39.97 68.11 41.22 C 68.15 42.47 70.29 46.67 73.17 49.91 C 76.06 53.15 79.09 54.12 79.55 53.74 Z" stroke-linecap="round" />
</g>
<g transform="matrix(3.24 0 0 3.24 232.79 165.27)" id="alSjA-P-mIfTN5GDVydwT"  >
<path style="stroke: none; stroke-width: 1; stroke-dasharray: none; stroke-linecap: butt; stroke-dashoffset: 0; stroke-linejoin: miter; stroke-miterlimit: 4; fill: rgb(255,255,255); fill-rule: nonzero; opacity: 1;" vector-effect="non-scaling-stroke"  transform=" translate(-75.31, -46.08)" d="M 79.55 53.74 C 79.85 53.49 79.64 52.36 78.92 50.34 L 78.34 49.78 C 79.03 49.38 79.64 49.18 80.2 49.2 C 81.03 49.22 81.3 49.8 81.66 49.61 C 81.94 49.48 82.22 49.2 82.52 48.77 L 80.08 48.22 L 76.96 48.68 C 76.46 48.7 76.02 48.65 75.64 48.53 C 75.26 48.4 74.95 48.13 74.7 47.72 C 73.91 46.72 73.25 45.86 72.7 45.14 C 72.15 44.41 71.66 43.9 71.21 43.6 C 71.46 43.42 71.96 43.56 72.7 44.02 C 73.81 44.72 74.43 46.01 75.64 46.38 C 76.86 46.76 77.76 46.43 77.96 46.04 C 78.15 45.64 76.58 45.62 76.42 44.8 C 76.25 43.97 76.92 43.06 77.3 42.98 C 77.67 42.89 77.03 43.39 77.69 43.82 C 78.35 44.26 79.01 44.4 79.94 44.47 C 80.56 44.53 81.06 44.41 81.43 44.13 C 81.94 43.87 82.2 43.61 82.2 43.38 C 82.2 43.03 81.82 42.81 81.43 42.73 C 81.03 42.64 80.95 39.42 80.68 39.16 C 80.41 38.9 80.44 38.33 79.86 38.35 C 79.27 38.36 79.35 38.8 78.34 39.6 C 77.76 40.05 76.46 40.01 74.26 40.15 C 72.64 40.25 68.07 39.97 68.11 41.22 C 68.15 42.47 70.29 46.67 73.17 49.91 C 76.06 53.15 79.09 54.12 79.55 53.74 Z" stroke-linecap="round" />
</g>
<g transform="matrix(3.24 0 0 3.24 232.79 165.27)" id="vT59o9yJiAP_cxBY2qGgm"  >
<path style="stroke: rgb(251,253,255); stroke-width: 0; stroke-dasharray: none; stroke-linecap: butt; stroke-dashoffset: 0; stroke-linejoin: miter; stroke-miterlimit: 4; fill: rgb(0,0,0); fill-opacity: 0; fill-rule: nonzero; opacity: 1;" vector-effect="non-scaling-stroke"  transform=" translate(-75.31, -46.08)" d="M 79.55 53.74 C 79.85 53.49 79.64 52.36 78.92 50.34 L 78.34 49.78 C 79.03 49.38 79.64 49.18 80.2 49.2 C 81.03 49.22 81.3 49.8 81.66 49.61 C 81.94 49.48 82.22 49.2 82.52 48.77 L 80.08 48.22 L 76.96 48.68 C 76.46 48.7 76.02 48.65 75.64 48.53 C 75.26 48.4 74.95 48.13 74.7 47.72 C 73.91 46.72 73.25 45.86 72.7 45.14 C 72.15 44.41 71.66 43.9 71.21 43.6 C 71.46 43.42 71.96 43.56 72.7 44.02 C 73.81 44.72 74.43 46.01 75.64 46.38 C 76.86 46.76 77.76 46.43 77.96 46.04 C 78.15 45.64 76.58 45.62 76.42 44.8 C 76.25 43.97 76.92 43.06 77.3 42.98 C 77.67 42.89 77.03 43.39 77.69 43.82 C 78.35 44.26 79.01 44.4 79.94 44.47 C 80.56 44.53 81.06 44.41 81.43 44.13 C 81.94 43.87 82.2 43.61 82.2 43.38 C 82.2 43.03 81.82 42.81 81.43 42.73 C 81.03 42.64 80.95 39.42 80.68 39.16 C 80.41 38.9 80.44 38.33 79.86 38.35 C 79.27 38.36 79.35 38.8 78.34 39.6 C 77.76 40.05 76.46 40.01 74.26 40.15 C 72.64 40.25 68.07 39.97 68.11 41.22 C 68.15 42.47 70.29 46.67 73.17 49.91 C 76.06 53.15 79.09 54.12 79.55 53.74 Z" stroke-linecap="round" />
</g>
<g transform="matrix(3.24 0 0 3.24 155.53 198.34)" id="VLPOEz1OUbZJk2va_BuZm"  >
<path style="stroke: none; stroke-width: 1; stroke-dasharray: none; stroke-linecap: butt; stroke-dashoffset: 0; stroke-linejoin: miter; stroke-miterlimit: 4; fill: rgb(2,201,31); fill-rule: nonzero; opacity: 1;" vector-effect="non-scaling-stroke"  transform=" translate(-51.43, -56.3)" d="M 36.05 59.32 L 37.54 64.77 L 40.18 57.66 L 51.84 53.28 L 59.03 57 L 54.32 51.71 L 57.37 50.72 L 64.48 55.76 C 68.34 57.81 70.37 58.72 70.59 58.5 C 70.81 58.28 69.22 56.92 65.81 54.44 L 59.77 47.83 L 35.63 57 L 32.24 61.88 L 36.05 59.32 Z" stroke-linecap="round" />
</g>
<g transform="matrix(3.24 0 0 3.24 155.53 198.34)" id="FM5xowXvrOBbENMGwSbPe"  >
<path style="stroke: rgb(0,0,0); stroke-width: 0; stroke-dasharray: none; stroke-linecap: butt; stroke-dashoffset: 0; stroke-linejoin: miter; stroke-miterlimit: 4; fill: rgb(0,0,0); fill-opacity: 0; fill-rule: nonzero; opacity: 1;" vector-effect="non-scaling-stroke"  transform=" translate(-51.43, -56.3)" d="M 36.05 59.32 L 37.54 64.77 L 40.18 57.66 L 51.84 53.28 L 59.03 57 L 54.32 51.71 L 57.37 50.72 L 64.48 55.76 C 68.34 57.81 70.37 58.72 70.59 58.5 C 70.81 58.28 69.22 56.92 65.81 54.44 L 59.77 47.83 L 35.63 57 L 32.24 61.88 L 36.05 59.32 Z" stroke-linecap="round" />
</g>
<g transform="matrix(3.24 0 0 3.24 351.41 195.4)" id="4ewzVDEAzsfcN0gEwTxPy"  >
<path style="stroke: none; stroke-width: 1; stroke-dasharray: none; stroke-linecap: butt; stroke-dashoffset: 0; stroke-linejoin: miter; stroke-miterlimit: 4; fill: rgb(2,201,31); fill-rule: nonzero; opacity: 1;" vector-effect="non-scaling-stroke"  transform=" translate(-111.97, -55.39)" d="M 100.61 49.89 L 103.01 50.88 L 99.12 56.75 L 105.24 52.29 L 122.35 58.41 L 127.97 63.28 L 124.66 57.5 L 99.7 47.49 L 95.98 52.04 L 100.61 49.89 Z" stroke-linecap="round" />
</g>
<g transform="matrix(3.24 0 0 3.24 -10.88 16.18)" id="HvI0JsAFILX2Yo8JPL48Z"  >
<path style="stroke: rgb(134,0,120); stroke-width: 7; stroke-dasharray: none; stroke-linecap: butt; stroke-dashoffset: 0; stroke-linejoin: miter; stroke-miterlimit: 4; fill: rgb(0,0,0); fill-opacity: 0; fill-rule: nonzero; opacity: 1;" vector-effect="non-scaling-stroke"  transform=" translate(0, 0)" d="" stroke-linecap="round" />
</g>
<g transform="matrix(3.24 0 0 3.24 242.11 351.87)" id="61qVBYlbgbDv0mY745FDl"  >
<path style="stroke: none; stroke-width: 1; stroke-dasharray: none; stroke-linecap: butt; stroke-dashoffset: 0; stroke-linejoin: miter; stroke-miterlimit: 4; fill: rgb(49,168,247); fill-rule: nonzero; opacity: 1;" vector-effect="non-scaling-stroke"  transform=" translate(-78.19, -103.75)" d="M 78 132.2 C 100.34 132.2 122.85 126.78 145.55 115.93 C 148.16 114.68 149.04 111.39 147.39 109 C 142.33 101.71 130.32 84.37 125.27 77.07 C 123.87 75.04 120.8 75.29 119.73 77.51 C 115.35 86.62 102.59 91.18 81.45 91.18 C 59.96 91.18 45.38 86.4 37.71 76.84 C 35.98 74.69 32.67 74.8 31.1 77.07 C 26.05 84.37 14.04 101.71 8.99 109 C 7.34 111.39 8.2 114.69 10.82 115.95 C 33.28 126.78 55.67 132.2 78 132.2 Z" stroke-linecap="round" />
</g>
<g transform="matrix(3.24 0 0 3.24 242.11 351.87)" id="kbuo0HPWAmtmlnwmC290I"  >
<path style="stroke: rgb(110,200,255); stroke-width: 0; stroke-dasharray: none; stroke-linecap: butt; stroke-dashoffset: 0; stroke-linejoin: miter; stroke-miterlimit: 4; fill: rgb(0,0,0); fill-opacity: 0; fill-rule: nonzero; opacity: 1;" vector-effect="non-scaling-stroke"  transform=" translate(-78.19, -103.75)" d="M 78 132.2 C 100.34 132.2 122.85 126.78 145.55 115.93 C 148.16 114.68 149.04 111.39 147.39 109 C 142.33 101.71 130.32 84.37 125.27 77.07 C 123.87 75.04 120.8 75.29 119.73 77.51 C 115.35 86.62 102.59 91.18 81.45 91.18 C 59.96 91.18 45.38 86.4 37.71 76.84 C 35.98 74.69 32.67 74.8 31.1 77.07 C 26.05 84.37 14.04 101.71 8.99 109 C 7.34 111.39 8.2 114.69 10.82 115.95 C 33.28 126.78 55.67 132.2 78 132.2 Z" stroke-linecap="round" />
</g>
<g transform="matrix(3.24 0 0 3.24 346.49 270.63)" id="aEjvbd4XlVWtsoYC9Y8B1"  >
<path style="stroke: none; stroke-width: 1; stroke-dasharray: none; stroke-linecap: butt; stroke-dashoffset: 0; stroke-linejoin: miter; stroke-miterlimit: 4; fill: rgb(2,201,31); fill-rule: nonzero; opacity: 1;" vector-effect="non-scaling-stroke"  transform=" translate(-110.45, -78.64)" d="M 83.42 66.89 L 90.28 76.69 L 91.92 83.77 L 95.18 88.13 L 104.13 88.67 L 112.61 93.58 C 117.51 95.27 121.32 95.48 124.05 94.2 C 126.77 92.93 129 90.18 130.75 85.95 L 132.49 86.31 L 131.4 90.04 L 132.49 93.58 C 133.99 94.84 135.02 95.12 135.59 94.39 C 136.43 93.31 138.49 83.12 136.94 80.96 C 135.92 79.53 133.8 79.01 130.59 79.41 L 129.78 74.06 C 127.41 71.46 125.5 69.98 124.05 69.62 C 122.59 69.25 121.87 69.89 121.87 71.52 L 120.61 67.34 L 114.78 65.7 L 111.25 67.98 C 110.89 66.21 109.89 65.03 108.25 64.44 C 105.8 63.55 103.58 63.38 101 65.96 C 99.27 67.69 98.24 70.63 97.91 74.79 L 92.83 67.98 C 90.36 64 88.13 62.1 86.14 62.27 C 84.16 62.45 83.25 63.99 83.42 66.89 Z" stroke-linecap="round" />
</g>
<g transform="matrix(3.24 0 0 3.24 346.49 270.63)" id="INtp1NgIEC889ZUVM74oE"  >
<path style="stroke: rgb(231,0,199); stroke-width: 2; stroke-dasharray: none; stroke-linecap: butt; stroke-dashoffset: 0; stroke-linejoin: miter; stroke-miterlimit: 4; fill: rgb(0,0,0); fill-opacity: 0; fill-rule: nonzero; opacity: 1;" vector-effect="non-scaling-stroke"  transform=" translate(-110.45, -78.64)" d="M 83.42 66.89 L 90.28 76.69 L 91.92 83.77 L 95.18 88.13 L 104.13 88.67 L 112.61 93.58 C 117.51 95.27 121.32 95.48 124.05 94.2 C 126.77 92.93 129 90.18 130.75 85.95 L 132.49 86.31 L 131.4 90.04 L 132.49 93.58 C 133.99 94.84 135.02 95.12 135.59 94.39 C 136.43 93.31 138.49 83.12 136.94 80.96 C 135.92 79.53 133.8 79.01 130.59 79.41 L 129.78 74.06 C 127.41 71.46 125.5 69.98 124.05 69.62 C 122.59 69.25 121.87 69.89 121.87 71.52 L 120.61 67.34 L 114.78 65.7 L 111.25 67.98 C 110.89 66.21 109.89 65.03 108.25 64.44 C 105.8 63.55 103.58 63.38 101 65.96 C 99.27 67.69 98.24 70.63 97.91 74.79 L 92.83 67.98 C 90.36 64 88.13 62.1 86.14 62.27 C 84.16 62.45 83.25 63.99 83.42 66.89 Z" stroke-linecap="round" />
</g>
<g transform="matrix(3.24 0 0 3.24 384 274.05)" id="bL59GHmkkpe-RqoCT0AU2"  >
<path style="stroke: rgb(231,0,199); stroke-width: 2; stroke-dasharray: none; stroke-linecap: butt; stroke-dashoffset: 0; stroke-linejoin: miter; stroke-miterlimit: 4; fill: rgb(0,0,0); fill-opacity: 0; fill-rule: nonzero; opacity: 1;" vector-effect="non-scaling-stroke"  transform=" translate(-122.04, -79.7)" d="M 127.48 75.57 L 124.96 83.47 L 120.2 86.98 L 116.6 82.66 L 121.36 72.42" stroke-linecap="round" />
</g>
<g transform="matrix(3.24 0 0 3.24 353.52 263.44)" id="FW4jKEgXxkpdRm3dqXZQL"  >
<path style="stroke: rgb(231,0,199); stroke-width: 2; stroke-dasharray: none; stroke-linecap: butt; stroke-dashoffset: 0; stroke-linejoin: miter; stroke-miterlimit: 4; fill: rgb(0,0,0); fill-opacity: 0; fill-rule: nonzero; opacity: 1;" vector-effect="non-scaling-stroke"  transform=" translate(-112.62, -76.42)" d="M 118.25 71.61 L 115.16 81.41 L 111.48 84.19 L 106.99 82.04 L 110.45 68.65" stroke-linecap="round" />
</g>
<g transform="matrix(3.24 0 0 3.24 321.39 259.11)" id="NIOl67eLCVBwwvkhItBYv"  >
<path style="stroke: rgb(231,0,199); stroke-width: 2; stroke-dasharray: none; stroke-linecap: butt; stroke-dashoffset: 0; stroke-linejoin: miter; stroke-miterlimit: 4; fill: rgb(0,0,0); fill-opacity: 0; fill-rule: nonzero; opacity: 1;" vector-effect="non-scaling-stroke"  transform=" translate(-102.69, -75.08)" d="M 98.06 73.86 L 96.99 76.01 L 99.32 81.23 L 104.8 79.7 L 108.4 68.92" stroke-linecap="round" />
</g>
<g transform="matrix(3.24 0 0 3.24 350.31 277)" id="yhhKLOAihBkbkTAuBCuob"  >
<path style="stroke: none; stroke-width: 1; stroke-dasharray: none; stroke-linecap: butt; stroke-dashoffset: 0; stroke-linejoin: miter; stroke-miterlimit: 4; fill: rgb(231,0,199); fill-rule: nonzero; opacity: 1;" vector-effect="non-scaling-stroke"  transform=" translate(-111.63, -80.61)" d="M 135.71 86.51 C 136.16 85.12 135.87 84.05 134.84 83.29 C 133.81 82.53 132.03 82.09 129.51 81.97 L 127.03 80.19 L 122.04 87.63 L 116.12 84.9 L 119.84 73.99 L 115.13 82.54 L 111.78 85.52 L 105.95 83.29 L 108.68 73.99 L 108.4 71.26 C 106.98 74.86 106.09 77.11 105.73 78.01 C 104.94 80.03 103.21 81.53 101.1 82.04 C 100.82 82.11 100.12 82.27 99.01 82.54 L 96.15 74.73 L 91.44 70.26 C 88.71 67.82 87.35 67.08 87.35 68.04 C 87.35 68.99 88.18 71.1 89.83 74.36 L 92.81 82.54 L 95.41 86.51 L 104.46 86.98 L 114.75 93.58 L 126.04 92.84 L 129.51 84.9 L 133.6 84.9 L 132.61 90.36 L 134.47 93.58 L 135.71 86.51 Z" stroke-linecap="round" />
</g>
<g transform="matrix(3.24 0 0 3.24 350.31 277)" id="cMiVPugT7gdbe_KZfEz5i"  >
<path style="stroke: rgb(231,0,199); stroke-width: 2; stroke-dasharray: none; stroke-linecap: butt; stroke-dashoffset: 0; stroke-linejoin: miter; stroke-miterlimit: 4; fill: rgb(0,0,0); fill-opacity: 0; fill-rule: nonzero; opacity: 1;" vector-effect="non-scaling-stroke"  transform=" translate(-111.63, -80.61)" d="M 135.71 86.51 C 136.16 85.12 135.87 84.05 134.84 83.29 C 133.81 82.53 132.03 82.09 129.51 81.97 L 127.03 80.19 L 122.04 87.63 L 116.12 84.9 L 119.84 73.99 L 115.13 82.54 L 111.78 85.52 L 105.95 83.29 L 108.68 73.99 L 108.4 71.26 C 106.98 74.86 106.09 77.11 105.73 78.01 C 104.94 80.03 103.21 81.53 101.1 82.04 C 100.82 82.11 100.12 82.27 99.01 82.54 L 96.15 74.73 L 91.44 70.26 C 88.71 67.82 87.35 67.08 87.35 68.04 C 87.35 68.99 88.18 71.1 89.83 74.36 L 92.81 82.54 L 95.41 86.51 L 104.46 86.98 L 114.75 93.58 L 126.04 92.84 L 129.51 84.9 L 133.6 84.9 L 132.61 90.36 L 134.47 93.58 L 135.71 86.51 Z" stroke-linecap="round" />
</g>
<g transform="matrix(3.24 0 0 3.24 155.01 262.05)" id="KKeV1MU6ajdhrnfjXJ8oP"  >
<path style="stroke: none; stroke-width: 1; stroke-dasharray: none; stroke-linecap: butt; stroke-dashoffset: 0; stroke-linejoin: miter; stroke-miterlimit: 4; fill: rgb(2,201,31); fill-rule: nonzero; opacity: 1;" vector-effect="non-scaling-stroke"  transform=" translate(-51.27, -75.99)" d="M 46.48 92.88 C 42.48 93.58 40.12 94.2 36.11 91.25 C 33.43 89.29 31.53 85.9 30.42 81.08 L 28.24 81.9 L 28.78 88.63 C 27.76 92.34 26.21 94.08 24.15 93.88 C 22.09 93.68 21.37 89.99 22 82.83 L 25.32 75.28 L 29.05 74.54 L 28.78 70.2 C 29.71 67.4 31.03 65.61 32.76 64.84 C 34.48 64.07 36.61 64.3 39.13 65.56 C 38.99 63.29 39.63 61.93 41.04 61.47 C 42.44 61.02 44.77 61.38 48.02 62.57 L 50.01 67.74 L 51.21 67.74 C 50.64 63.73 51.01 60.98 52.31 59.48 C 54.26 57.23 56.65 58.25 59.01 58.75 C 60.58 59.08 61.49 59.99 61.73 61.47 L 62.82 72.64 C 64.53 74.24 65.56 74.33 65.9 72.92 C 66.25 71.5 67.22 70.14 68.83 68.83 C 70.51 67.82 72.3 67.3 74.2 67.27 C 77.06 67.22 78.86 67.41 80.25 68.64 C 81.18 69.46 80.85 70.79 79.26 72.64 C 75.58 73.18 72.37 74.73 69.63 77.27 C 66.89 79.81 64.86 82.99 63.54 86.81 C 62.61 87.35 61.16 87.71 59.18 87.89 C 56.21 88.16 54.38 87.9 51.21 89.15 C 48.03 90.39 50.48 92.17 46.48 92.88 Z" stroke-linecap="round" />
</g>
<g transform="matrix(3.24 0 0 3.24 155.01 262.05)" id="ZWFUJ2nZVCN_hFS4t7iPI"  >
<path style="stroke: rgb(231,0,199); stroke-width: 2; stroke-dasharray: none; stroke-linecap: butt; stroke-dashoffset: 0; stroke-linejoin: miter; stroke-miterlimit: 4; fill: rgb(0,0,0); fill-opacity: 0; fill-rule: nonzero; opacity: 1;" vector-effect="non-scaling-stroke"  transform=" translate(-51.27, -75.99)" d="M 46.48 92.88 C 42.48 93.58 40.12 94.2 36.11 91.25 C 33.43 89.29 31.53 85.9 30.42 81.08 L 28.24 81.9 L 28.78 88.63 C 27.76 92.34 26.21 94.08 24.15 93.88 C 22.09 93.68 21.37 89.99 22 82.83 L 25.32 75.28 L 29.05 74.54 L 28.78 70.2 C 29.71 67.4 31.03 65.61 32.76 64.84 C 34.48 64.07 36.61 64.3 39.13 65.56 C 38.99 63.29 39.63 61.93 41.04 61.47 C 42.44 61.02 44.77 61.38 48.02 62.57 L 50.01 67.74 L 51.21 67.74 C 50.64 63.73 51.01 60.98 52.31 59.48 C 54.26 57.23 56.65 58.25 59.01 58.75 C 60.58 59.08 61.49 59.99 61.73 61.47 L 62.82 72.64 C 64.53 74.24 65.56 74.33 65.9 72.92 C 66.25 71.5 67.22 70.14 68.83 68.83 C 70.51 67.82 72.3 67.3 74.2 67.27 C 77.06 67.22 78.86 67.41 80.25 68.64 C 81.18 69.46 80.85 70.79 79.26 72.64 C 75.58 73.18 72.37 74.73 69.63 77.27 C 66.89 79.81 64.86 82.99 63.54 86.81 C 62.61 87.35 61.16 87.71 59.18 87.89 C 56.21 88.16 54.38 87.9 51.21 89.15 C 48.03 90.39 50.48 92.17 46.48 92.88 Z" stroke-linecap="round" />
</g>
<g transform="matrix(3.24 0 0 3.24 132 252.47)" id="-wWWpLRzb5kwRRBX0UdiW"  >
<path style="stroke: rgb(231,0,199); stroke-width: 2; stroke-dasharray: none; stroke-linecap: butt; stroke-dashoffset: 0; stroke-linejoin: miter; stroke-miterlimit: 4; fill: rgb(0,0,0); fill-opacity: 0; fill-rule: nonzero; opacity: 1;" vector-effect="non-scaling-stroke"  transform=" translate(-44.16, -73.03)" d="M 47.17 65.31 C 47.56 66.92 48.34 70.16 49.51 75.01 L 48.88 78.7 L 43.49 80.76 L 38.82 66.47" stroke-linecap="round" />
</g>
<g transform="matrix(3.24 0 0 3.24 178.14 239.17)" id="bwn3tyRpkxFXVcRan2pl-"  >
<path style="stroke: none; stroke-width: 1; stroke-dasharray: none; stroke-linecap: butt; stroke-dashoffset: 0; stroke-linejoin: miter; stroke-miterlimit: 4; fill: rgb(255,255,255); fill-opacity: 0; fill-rule: nonzero; opacity: 1;" vector-effect="non-scaling-stroke"  transform=" translate(-58.42, -68.92)" d="M 63.02 72.97 L 63.02 74.71 L 60.07 75.96 L 57.01 73.22 L 53.82 61.89" stroke-linecap="round" />
</g>
<g transform="matrix(3.24 0 0 3.24 178.14 239.17)" id="Qkh2gY2UkeEm6fi4jJDr7"  >
<path style="stroke: rgb(231,0,199); stroke-width: 2; stroke-dasharray: none; stroke-linecap: butt; stroke-dashoffset: 0; stroke-linejoin: miter; stroke-miterlimit: 4; fill: rgb(0,0,0); fill-opacity: 0; fill-rule: nonzero; opacity: 1;" vector-effect="non-scaling-stroke"  transform=" translate(-58.42, -68.92)" d="M 63.02 72.97 L 63.02 74.71 L 60.07 75.96 L 57.01 73.22 L 53.82 61.89" stroke-linecap="round" />
</g>
<g transform="matrix(3.24 0 0 3.24 102.01 266.45)" id="9B5H2Rc0DIjW0FcFvxR8L"  >
<path style="stroke: rgb(231,0,199); stroke-width: 2; stroke-dasharray: none; stroke-linecap: butt; stroke-dashoffset: 0; stroke-linejoin: miter; stroke-miterlimit: 4; fill: rgb(0,0,0); fill-opacity: 0; fill-rule: nonzero; opacity: 1;" vector-effect="non-scaling-stroke"  transform=" translate(-34.89, -77.35)" d="M 29.77 74.71 L 33.81 85.22 L 38.41 84.59 L 40.01 80.01 L 37.32 69.49" stroke-linecap="round" />
</g>
<g transform="matrix(3.24 0 0 3.24 161.77 270.79)" id="-xXu1D-MSvahL7WHtWKdm"  >
<path style="stroke: none; stroke-width: 1; stroke-dasharray: none; stroke-linecap: butt; stroke-dashoffset: 0; stroke-linejoin: miter; stroke-miterlimit: 4; fill: rgb(231,0,199); fill-rule: nonzero; opacity: 1;" vector-effect="non-scaling-stroke"  transform=" translate(-53.36, -78.69)" d="M 38.01 91.47 L 47.55 92.37 L 51.27 87.34 L 62.06 87.34 L 63.89 84.32 C 65.46 81.74 66.97 79.65 68.44 78.08 C 72.3 73.92 75.01 72.31 75.32 71.75 C 75.74 70.98 73.77 70.65 69.4 70.76 L 63.89 74.94 L 62.96 76.59 L 56.45 74.94 L 54.92 65.02 L 53.7 71.75 L 50.06 70.76 L 50.41 74.94 L 49.51 78.57 L 44.16 81.54 L 38.32 73.3 L 40.01 81.54 L 38.82 85.22 L 31.34 83.52 L 38.01 91.47 Z" stroke-linecap="round" />
</g>
<g transform="matrix(3.24 0 0 3.24 161.77 270.79)" id="i1sU_6JZX5fWLZ32pevMt"  >
<path style="stroke: rgb(231,0,199); stroke-width: 2; stroke-dasharray: none; stroke-linecap: butt; stroke-dashoffset: 0; stroke-linejoin: miter; stroke-miterlimit: 4; fill: rgb(0,0,0); fill-opacity: 0; fill-rule: nonzero; opacity: 1;" vector-effect="non-scaling-stroke"  transform=" translate(-53.36, -78.69)" d="M 38.01 91.47 L 47.55 92.37 L 51.27 87.34 L 62.06 87.34 L 63.89 84.32 C 65.46 81.74 66.97 79.65 68.44 78.08 C 72.3 73.92 75.01 72.31 75.32 71.75 C 75.74 70.98 73.77 70.65 69.4 70.76 L 63.89 74.94 L 62.96 76.59 L 56.45 74.94 L 54.92 65.02 L 53.7 71.75 L 50.06 70.76 L 50.41 74.94 L 49.51 78.57 L 44.16 81.54 L 38.32 73.3 L 40.01 81.54 L 38.82 85.22 L 31.34 83.52 L 38.01 91.47 Z" stroke-linecap="round" />
</g>
<g transform="matrix(3.24 0 0 3.24 -10.88 16.18)" id="JUMJ-huAgEgSXII5Jiibr"  >
<path style="stroke: rgb(0,0,0); stroke-width: 1; stroke-dasharray: none; stroke-linecap: butt; stroke-dashoffset: 0; stroke-linejoin: miter; stroke-miterlimit: 4; fill: rgb(0,0,0); fill-opacity: 0; fill-rule: nonzero; opacity: 1;" vector-effect="non-scaling-stroke"  transform=" translate(0, 0)" d="" stroke-linecap="round" />
</g>
<g transform="matrix(3.24 0 0 3.24 74.86 292.14)" id="wKA5dpVyqvsqvBbe0FKN_"  >
<path style="stroke: none; stroke-width: 1; stroke-dasharray: none; stroke-linecap: butt; stroke-dashoffset: 0; stroke-linejoin: miter; stroke-miterlimit: 4; fill: rgb(231,0,199); fill-rule: nonzero; opacity: 1;" vector-effect="non-scaling-stroke"  transform=" translate(-26.5, -85.29)" d="M 26 81.1 C 25.19 83.92 26.68 85.87 26 88.29 C 25.54 89.9 24.63 90.73 23.27 90.77 C 22.13 92.2 22.34 93.11 23.89 93.5 C 25.44 93.89 27.01 92.78 28.6 90.15 L 28.18 81.1 L 30.46 79.99 L 29.21 77.01 C 27.6 77.85 26.53 79.22 26 81.1 Z" stroke-linecap="round" />
</g>
</svg>