<?xml version="1.0" encoding="UTF-8" standalone="no" ?>
<!DOCTYPE svg PUBLIC "-//W3C//DTD SVG 1.1//EN" "http://www.w3.org/Graphics/SVG/1.1/DTD/svg11.dtd">
<svg xmlns="http://www.w3.org/2000/svg" xmlns:xlink="http://www.w3.org/1999/xlink" version="1.1" width="500" height="500" viewBox="0 0 500 500" xml:space="preserve">
<desc>Created with Fabric.js 4.6.0</desc>
<defs>
</defs>
<g transform="matrix(1 0 0 1 250.69 250)" id="PYuruKpO4AV0i1Khm2zwC"  >
<g style="" vector-effect="non-scaling-stroke"   >
		<g transform="matrix(1.19 0 0 1.19 0 0)" id="J1HXwKvgCkl4941Kre2Ii"  >
<path style="stroke: rgb(75,117,174); stroke-width: 12; stroke-dasharray: none; stroke-linecap: butt; stroke-dashoffset: 0; stroke-linejoin: miter; stroke-miterlimit: 4; fill: rgb(240,255,0); fill-rule: nonzero; opacity: 1;" vector-effect="non-scaling-stroke"  transform=" translate(0, 0)" d="M 0 -201 C 111.228 -201 201.5 -110.952 201.5 0 C 201.5 110.952 111.228 201 0 201 C -111.228 201 -201.5 110.952 -201.5 0 C -201.5 -110.952 -111.228 -201 0 -201 z" stroke-linecap="round" />
</g>
		<g transform="matrix(1 0 0 1 3.94 9.37)" id="M6zFrdK4XDQLFHdHLosfm"  >
<g style="" vector-effect="non-scaling-stroke"   >
		<g transform="matrix(1.21 0 0 1.21 -0.11 -0.15)" id="dUjF6_V7DsXmJOm1Or1O9"  >
<path style="stroke: rgb(0,0,0); stroke-width: 0; stroke-dasharray: none; stroke-linecap: butt; stroke-dashoffset: 0; stroke-linejoin: miter; stroke-miterlimit: 4; fill: rgb(255,255,255); fill-rule: nonzero; opacity: 1;" vector-effect="non-scaling-stroke"  transform=" translate(0, 0)" d="M -130.80357 -55.55337 L -112.94643 -55.55337 L -118.30357000000001 -78.76766 L -108.82651000000001 -93.94623000000001 L -89.73214000000002 -85.91052000000002 L -85.84529000000002 -78.76766000000002 L -71.87499000000003 -90.37480000000002 L -57.589280000000024 -85.91051000000002 L -45.755700000000026 -63.58908000000002 L -33.013260000000024 -73.41051000000002 L -19.274050000000024 -69.83908000000001 L -5.534840000000024 -40.37479000000001 L 9.374999999999977 -85.91050000000001 L 27.228619999999978 -93.94621000000001 L 38.74701999999998 -85.91050000000001 L 50.26541999999998 -109.12479000000002 L 67.41071999999997 -113.58908000000002 L 79.01785999999997 -98.41051000000002 L 86.17348999999997 -113.58908000000002 L 106.51760999999998 -119.44663000000003 L 112.94642999999998 -103.61795000000002 L 106.51760999999998 -78.76765000000002 L 124.55356999999998 -85.91051000000002 L 134.37499999999997 -63.58908000000002 L 106.51760999999998 8.73234999999999 L 134.37499999999997 0.12167999999998891 L 152.23213999999996 0.12167999999998891 L 156.69642999999996 23.832269999999987 L 79.01785999999997 88.19663 L 59.37499999999997 93.55377 L 36.517609999999976 93.55377 L 9.374999999999975 81.94663 L -19.274050000000024 111.41092 L -61.16071000000002 119.44663 L -85.84529000000002 111.41092 L -152.23214000000002 56.05378 L -156.69643000000002 32.839490000000005 L -139.73214000000002 27.482350000000004 L -104.01785000000001 46.232350000000004 L -139.73214000000002 -40.37479 z" stroke-linecap="round" />
</g>
		<g transform="matrix(0.8 0 0 0.84 0 0)" id="9dt1gMyniQTzcdOBMW88O"  >
<path style="stroke: rgb(74,116,174); stroke-width: 6; stroke-dasharray: none; stroke-linecap: butt; stroke-dashoffset: 0; stroke-linejoin: miter; stroke-miterlimit: 4; fill: rgb(74,116,174); fill-rule: nonzero; opacity: 1;" vector-effect="non-scaling-stroke"  transform=" translate(-346.79, -289.77)" d="M 585.76 293.44 C 576.2405 281.12 559.4399999999999 278.319 541.5219999999999 285.6002 C 537.0414999999999 287.2799 530.323 290.0807 522.483 293.44 L 554.963 204.401 C 557.7638 196.5612 557.2013 188.163 553.8419 180.881 C 550.4825000000001 173.599 544.3224 168.002 536.4829 165.201 C 530.8813 162.96269999999998 524.7209 162.96269999999998 519.1238999999999 164.64240999999998 L 523.0458 153.44340999999997 C 525.8466 145.60360999999997 525.2841 137.20540999999997 521.9247 129.92340999999996 C 518.5653000000001 122.64140999999995 512.4052 117.04440999999996 504.56570000000005 114.24340999999995 C 488.88570000000004 108.64180999999995 471.52670000000006 117.04420999999995 465.92470000000003 132.16540999999995 C 462.56530000000004 127.68490999999995 457.52630000000005 123.76700999999996 451.92470000000003 121.52440999999995 C 436.2447 115.92280999999994 418.88570000000004 124.32520999999994 412.7257 140.00440999999995 L 407.1241 155.68440999999996 C 403.7647 151.20390999999995 398.7257 147.28600999999995 393.1241 145.60640999999995 C 377.4441 140.00480999999996 360.0851 148.40720999999996 353.9251 164.64540999999997 L 336.00309999999996 215.04340999999997 L 327.6047 193.76240999999996 C 324.8039 185.92260999999996 318.6438 179.76240999999996 311.3667 176.40340999999995 C 304.08549999999997 173.04400999999996 296.2457 173.04400999999996 288.96869999999996 175.84481999999994 C 283.36709999999994 178.08311999999995 278.8907 182.00501999999994 275.5277 186.48581999999993 L 269.3675 171.36481999999992 C 266.5667 163.52501999999993 260.4066 157.36481999999992 253.1295 154.00581999999991 C 245.8483 150.64641999999992 238.0085 150.64641999999992 230.7315 153.4472299999999 C 225.12990000000002 155.68552999999991 220.6535 159.6074299999999 217.2905 164.0882299999999 C 213.93110000000001 156.80702999999988 208.3296 151.2092299999999 201.0525 147.8502299999999 C 193.7713 144.4908299999999 185.9315 144.4908299999999 178.6545 147.2916399999999 C 163.5335 153.4518399999999 155.69350000000003 171.3696399999999 161.85350000000003 187.0536399999999 L 166.33400000000003 198.2526399999999 C 160.73240000000004 197.1315399999999 155.13500000000002 197.1315399999999 149.53300000000004 199.3737399999999 C 134.41200000000003 205.53393999999992 126.57200000000005 223.45173999999992 132.73200000000006 239.1357399999999 L 172.49400000000006 339.9357399999999 L 148.41600000000005 325.37673999999987 C 141.69720000000007 320.89623999999986 133.85700000000006 318.6579399999999 126.57600000000005 319.77513999999985 C 118.73620000000005 320.89623999999986 111.45500000000006 325.37673999999987 106.97400000000005 332.09513999999984 C 97.45450000000005 345.5361399999998 100.81380000000004 364.57513999999986 113.69280000000005 374.65413999999987 C 118.72010000000004 379.67753999999985 183.68080000000003 431.1971399999999 207.20080000000004 447.99813999999986 C 224.55980000000005 460.31813999999986 245.84180000000003 467.03713999999985 267.12280000000004 467.03713999999985 C 281.12280000000004 467.03713999999985 295.68180000000007 464.23633999999987 309.68180000000007 458.63873999999987 C 331.52180000000004 449.6778399999999 350.00180000000006 434.5607399999999 362.3228000000001 414.40073999999987 C 369.0416000000001 418.8812399999999 376.3228000000001 422.2405399999999 384.16280000000006 425.0417399999999 C 397.0418000000001 429.5222399999999 410.48280000000005 431.7605399999999 423.92480000000006 431.7605399999999 C 447.44480000000004 431.7605399999999 469.84680000000003 424.47933999999987 488.8858000000001 410.4795399999999 C 512.4058000000001 393.1205399999999 576.8078 339.3585399999999 580.7258 335.99953999999985 C 593.6048000000001 325.9215399999999 595.8428 306.31953999999985 585.7649 293.4405399999998 z M 304.08 445.76 C 273.279 458.08 240.23999999999998 454.7209 214.47799999999998 436.7991 C 191.521 419.9981 124.32199999999997 366.2371 123.76299999999998 365.67810000000003 C 116.48179999999998 360.0765 114.80209999999998 349.44010000000003 119.84109999999998 341.60010000000005 C 122.07939999999998 338.24070000000006 126.00129999999999 335.4399000000001 130.48209999999997 334.88130000000007 C 134.96259999999998 334.3227100000001 138.88049999999998 335.43989000000005 142.24409999999997 337.68210000000005 C 142.24409999999997 337.68210000000005 142.80268999999998 337.68210000000005 142.80268999999998 338.24069000000003 L 184.80268999999998 363.43969000000004 C 187.04099 365.11939000000007 190.40428999999997 364.56079000000005 192.64248999999998 362.88110000000006 C 194.88079 361.20140000000004 195.44329 357.84200000000004 194.32218999999998 355.04130000000004 L 146.72018999999997 235.20130000000003 C 143.36078999999998 226.24040000000002 147.27877999999998 216.72130000000004 155.68108999999998 213.36130000000003 C 159.04048999999998 212.24020000000002 162.96229 212.24020000000002 166.88009 213.91989000000004 C 170.80199 215.59959000000003 174.16129 218.95899000000003 176.39959 222.88079000000005 L 201.59859 287.84179000000006 C 202.71969 290.64259000000004 205.52049 292.32229000000007 207.75879 292.32229000000007 C 208.31738 292.32229000000007 209.43849 292.32229000000007 209.99709000000001 291.7637000000001 C 213.35649 290.6426000000001 215.03619 286.16210000000007 213.91899 282.8028000000001 L 189.27799000000002 220.0838000000001 L 189.27799000000002 219.5252100000001 C 189.27799000000002 218.9666200000001 188.7194 218.4041100000001 188.7194 217.8455100000001 L 175.2784 183.1265100000001 C 171.919 174.1656100000001 175.83699000000001 164.64651000000012 184.23930000000001 161.2865100000001 C 188.1612 159.6068100000001 192.63770000000002 159.6068100000001 196.5593 161.2865100000001 C 200.4812 162.9662100000001 203.84050000000002 166.3256100000001 205.52020000000002 170.8060100000001 L 214.48110000000003 194.3260100000001 L 243.60210000000004 269.9280100000001 C 244.72320000000005 272.72881000000007 247.52400000000003 274.4085100000001 249.76230000000004 274.4085100000001 C 250.32089000000005 274.4085100000001 251.44200000000004 274.4085100000001 252.00060000000005 273.8499200000001 C 255.36000000000004 272.7288200000001 257.03970000000004 268.2483200000001 255.92250000000004 264.88902000000013 L 227.92250000000004 191.53002000000015 L 227.36391000000003 189.85032000000015 C 224.00451000000004 180.88942000000014 227.92250000000004 171.37032000000016 236.32481000000004 168.01032000000015 C 240.24671000000004 166.33062000000015 244.72321000000005 166.33062000000015 248.64481000000004 168.01032000000015 C 252.56671000000003 169.69002000000015 255.92601000000005 173.04942000000014 257.60571000000004 177.52982000000014 L 272.72671 215.60782000000015 C 272.72671 216.16641000000016 272.72671 216.16641000000016 273.2853 216.72892000000016 L 293.44530000000003 269.92792000000014 C 294.56640000000004 273.28732000000014 299.04690000000005 274.96702000000016 302.4062 273.84982000000014 C 305.7656 272.7287200000001 307.44530000000003 268.2482200000001 306.3281 264.88892000000016 L 285.6091 211.68992000000014 C 282.2497 202.72902000000013 286.16769 193.20992000000015 294.57 189.84992000000014 C 298.4919 188.17022000000014 302.9684 188.17022000000014 306.89 189.84992000000014 C 310.8119 191.52962000000014 314.1712 194.88902000000013 315.85089999999997 199.36942000000013 L 360.65189999999996 315.8494200000001 C 379.12089999999995 368.47842000000014 354.47999999999996 425.5994200000001 304.07789999999994 445.7594200000001 z M 571.76 325.36 C 571.20141 325.91859 503.44 381.919 480.479 399.28200000000004 C 455.28 418.321 420.557 422.802 389.198 411.60200000000003 C 382.4792 409.36370000000005 375.757 406.0004 369.596 402.08250000000004 C 370.15459 400.9614 370.7171 399.84420000000006 371.27570000000003 398.16060000000004 C 383.03770000000003 370.71960000000007 384.15470000000005 339.92260000000005 374.0765 311.35960000000006 L 344.3965 235.19960000000006 L 367.3575 169.67960000000005 C 370.7169 160.71870000000004 380.23650000000004 156.23860000000005 388.6385 159.03860000000006 C 392.5604 160.71830000000006 395.91970000000003 163.51910000000007 398.158 167.43700000000007 C 399.83770000000004 171.35890000000006 400.3963 176.39790000000008 398.71659 180.31600000000006 L 378.55658999999997 237.43700000000007 C 377.43548999999996 240.79640000000006 379.11517999999995 244.71820000000008 382.47848999999997 246.39790000000008 C 383.03707999999995 246.39790000000008 384.15819 246.9564900000001 384.71678999999995 246.9564900000001 C 387.5175899999999 246.9564900000001 390.31838999999997 245.2767900000001 391.43558999999993 242.47599000000008 L 411.59558999999996 185.35499000000007 C 411.59558999999996 184.79640000000006 411.59558999999996 184.79640000000006 412.15417999999994 184.23389000000006 L 426.15417999999994 145.59289000000007 C 429.51357999999993 136.63199000000006 439.03317999999996 132.15189000000007 447.43517999999995 134.95189000000008 C 451.35707999999994 136.63159000000007 454.71637999999996 139.43239000000008 456.95467999999994 143.3502900000001 C 458.63437999999996 147.27219000000008 459.1929799999999 152.3111900000001 457.5132699999999 156.7912900000001 L 456.95467999999994 158.47099000000009 L 428.95467999999994 239.6699900000001 C 427.8335799999999 243.0293900000001 429.5132699999999 246.9511900000001 433.43517999999995 248.6308900000001 C 433.9937699999999 248.6308900000001 435.11487999999997 249.18948000000012 435.6734799999999 249.18948000000012 C 438.4742799999999 249.18948000000012 441.27507999999995 247.50978000000012 442.3922799999999 244.7089800000001 L 471.5132799999999 161.8299800000001 L 479.9116799999999 138.30998000000008 C 483.27107999999987 129.34908000000007 492.7906799999999 124.86898000000008 501.1926799999999 127.66898000000008 C 505.1145799999999 129.3486800000001 508.4738799999999 132.14948000000007 510.7121799999999 136.06738000000007 C 512.3918799999999 139.98928000000006 512.9504799999999 145.02828000000008 511.27076999999986 148.94638000000006 L 498.95076999999986 182.54838000000007 C 498.3921799999999 183.66948000000008 498.3921799999999 184.22808000000006 497.82966999999985 185.34918000000008 C 497.82966999999985 185.90777000000008 497.82966999999985 186.4702800000001 497.27107999999987 186.4702800000001 L 472.07207999999986 255.9112800000001 C 470.95097999999984 259.2706800000001 472.63066999999984 263.1924800000001 475.99397999999985 264.87218000000007 C 476.55256999999983 264.87218000000007 477.6736799999999 265.43077000000005 478.23227999999983 265.43077000000005 C 481.0330799999998 265.43077000000005 483.83387999999985 263.75107 484.9510799999998 260.95027000000005 L 511.2710799999998 188.14927000000006 C 515.1929799999998 180.30947000000006 524.7120799999998 175.82927000000007 531.9900799999998 178.62977000000006 C 535.9119799999999 180.30947000000006 539.2712799999998 183.11027000000007 541.5095799999998 187.02817000000007 C 543.1892799999998 190.95007000000007 543.7478799999998 195.98907000000008 542.0681699999998 199.90717000000006 L 505.10716999999977 300.1471700000001 C 498.9469699999998 302.38547000000005 493.34516999999977 304.6276700000001 490.54816999999974 305.7487700000001 C 455.26716999999974 292.3077700000001 436.22816999999975 307.9870700000001 420.54816999999974 320.3077700000001 C 417.74736999999976 322.5460700000001 417.18876999999975 327.0265700000001 419.42706999999973 329.8272700000001 C 421.6653699999997 332.6280700000001 426.1458699999997 333.1866700000001 428.9465699999997 330.9483700000001 C 444.0675699999997 318.62837000000013 458.0675699999997 306.87037000000015 487.7475699999997 319.1863700000001 C 489.42726999999974 319.7449600000001 491.1069699999997 319.7449600000001 492.78666999999973 319.1863700000001 C 494.46636999999976 318.62778000000014 533.1066699999998 303.5063700000001 546.5486699999997 297.9053700000001 C 553.8298699999997 295.10457000000014 567.2676699999997 291.18657000000013 574.5486699999997 301.2647700000001 C 580.7166699999997 309.1202700000001 579.0369699999997 319.7607700000001 571.7595699999997 325.3587700000001 z" stroke-linecap="round" />
</g>
</g>
</g>
		<g transform="matrix(1 0 0 1 -20.28 -172.37)" id="gF4xB_Mol5yeBaxeTKgQb"  >
<g style="" vector-effect="non-scaling-stroke"   >
		<g transform="matrix(0.8 0 0 0.84 -48.01 24.41)" id="MKZYqRIaB1Vag0LU_ciyE"  >
<path style="stroke: rgb(74,117,175); stroke-width: 5; stroke-dasharray: none; stroke-linecap: butt; stroke-dashoffset: 0; stroke-linejoin: miter; stroke-miterlimit: 4; fill: rgb(74,117,175); fill-rule: nonzero; opacity: 1;" vector-effect="non-scaling-stroke"  transform=" translate(-210.84, -105.54)" d="M 189.84 100.24 L 224.559 122.63799999999999 C 225.6801 123.19658999999999 226.7973 123.75909999999999 228.4809 123.75909999999999 C 230.7192 123.75909999999999 232.9614 122.63799999999999 234.08249999999998 120.3997 C 236.3208 117.0403 235.2036 113.1185 231.84419999999997 110.8802 L 197.12519999999998 88.4822 C 193.76579999999998 86.24390000000001 189.84399999999997 87.36110000000001 187.60569999999998 90.7205 C 185.35959999999997 94.0799 186.48069999999998 98.0017 189.84009999999998 100.24000000000001 z" stroke-linecap="round" />
</g>
		<g transform="matrix(0.8 0 0 0.84 -1.48 -10.41)" id="Dz9djzKKrMiQCnc7aLqpu"  >
<path style="stroke: rgb(74,117,175); stroke-width: 5; stroke-dasharray: none; stroke-linecap: butt; stroke-dashoffset: 0; stroke-linejoin: miter; stroke-miterlimit: 4; fill: rgb(74,116,174); fill-rule: nonzero; opacity: 1;" vector-effect="non-scaling-stroke"  transform=" translate(-268.8, -64.26)" d="M 271.6 94.641 C 272.72110000000004 97.4418 274.9594 99.12150000000001 278.3188 99.12150000000001 C 278.87739 99.12150000000001 279.99850000000004 99.12150000000001 280.5571 98.56291000000002 C 283.9165 97.44181000000002 286.1587 93.52381000000001 285.0376 89.60201000000002 L 265.9986 34.16101000000002 C 264.8775 30.801610000000018 260.9595 28.559410000000018 257.03770000000003 29.68051000000002 C 253.67830000000004 30.801610000000018 251.43610000000004 34.71961000000002 252.55720000000002 38.64141000000002 z" stroke-linecap="round" />
</g>
		<g transform="matrix(0.8 0 0 0.84 56.54 -10.67)" id="w9vsTOdGyz5P3x-v7owNe"  >
<path style="stroke: rgb(74,117,175); stroke-width: 5; stroke-dasharray: none; stroke-linecap: butt; stroke-dashoffset: 0; stroke-linejoin: miter; stroke-miterlimit: 4; fill: rgb(74,117,175); fill-rule: nonzero; opacity: 1;" vector-effect="non-scaling-stroke"  transform=" translate(-341.07, -63.95)" d="M 332.08 89.602 C 332.63858999999997 90.16059 333.7597 90.16059 334.31829999999997 90.16059 C 337.11909999999995 90.16059 339.9199 88.48089 340.47849999999994 85.68008999999999 L 354.47849999999994 47.039089999999995 C 355.59959999999995 43.679689999999994 353.91990999999996 39.757889999999996 350.55659999999995 38.07818999999999 C 347.19719999999995 36.957089999999994 343.27539999999993 38.636779999999995 341.59569999999997 42.00008999999999 L 327.59569999999997 80.64108999999999 C 326.4824 84.55909 328.72069999999997 88.48088999999999 332.08009999999996 89.60198999999999 z" stroke-linecap="round" />
</g>
</g>
</g>
</g>
</g>
</svg>