<?xml version="1.0" encoding="UTF-8" standalone="no" ?>
<!DOCTYPE svg PUBLIC "-//W3C//DTD SVG 1.1//EN" "http://www.w3.org/Graphics/SVG/1.1/DTD/svg11.dtd">
<svg xmlns="http://www.w3.org/2000/svg" xmlns:xlink="http://www.w3.org/1999/xlink" version="1.1" width="480" height="288" viewBox="0 0 480 288" xml:space="preserve">
<desc>Created with Fabric.js 4.6.0</desc>
<defs>
</defs>
<g transform="matrix(1.31 0 0 -1.13 214.07 225.83)" id="gp-BQNeyvaCpDICx9M_vn"  >
<path style="stroke: none; stroke-width: 1; stroke-dasharray: none; stroke-linecap: butt; stroke-dashoffset: 0; stroke-linejoin: miter; stroke-miterlimit: 4; fill: rgb(16,105,176); fill-rule: evenodd; opacity: 1;" vector-effect="non-scaling-stroke"  transform=" translate(0, 0)" d="M 152.95521 49.32417 C 152.95521 49.32417 153.6155 56.66512 60.99861 37.904920000000004 C -31.61828 19.144720000000003 -117.58285 -8.352829999999997 -159.29386 -46.026439999999994 C -162.57095999999999 -48.98895999999999 -158.00853999999998 -52.26861999999999 -154.076 -49.961549999999995 C -109.06169 -23.770909999999997 5.286000000000001 15.568469999999998 92.22797 27.33678000000001 C 134.56663 33.067670000000014 148.74644999999998 33.88610000000001 150.2491 33.24502000000001 C 151.83212 32.56965000000001 159.07267 33.62270000000001 160.29617 37.90492000000001 C 161.51966 42.187140000000014 152.95522 49.32417000000001 152.95522 49.32417000000001 z" stroke-linecap="round" />
</g>
<g transform="matrix(1.31 0 0 1.13 439.88 179.98)" id="ReUCVoHvsJHpJYJhBi3zJ"  >
<path style="stroke: none; stroke-width: 1; stroke-dasharray: none; stroke-linecap: butt; stroke-dashoffset: 0; stroke-linejoin: miter; stroke-miterlimit: 4; fill: rgb(16,105,176); fill-rule: evenodd; opacity: 1;" vector-effect="non-scaling-stroke"  transform=" translate(0, 0)" d="M -24.59501 -16.6623 C -28.029429999999998 -16.242829999999998 -30.5108 -21.693039999999996 -20.2628 -24.788869999999996 C -10.0148 -27.884709999999995 23.233240000000002 -15.189649999999995 27.060900000000004 -10.470619999999995 C 30.888540000000003 -5.725359999999995 13.068020000000004 8.723680000000003 -5.729469999999999 24.427550000000004 C -8.613319999999998 26.839500000000005 -14.493329999999998 23.619990000000005 -13.208689999999999 20.421520000000005 C -8.987789999999999 9.882350000000004 9.268940000000002 -1.2522099999999945 4.785860000000001 -6.993699999999997" stroke-linecap="round" />
</g>
<g transform="matrix(1.6 0 0 1.6 357.55 106.23)" id="LVkuUGfz_xZ9NxzwEZCOs"  >
<path style="stroke: none; stroke-width: 1; stroke-dasharray: none; stroke-linecap: butt; stroke-dashoffset: 0; stroke-linejoin: miter; stroke-miterlimit: 4; fill: rgb(16,105,176); fill-rule: nonzero; opacity: 1;" vector-effect="non-scaling-stroke"  transform=" translate(-284.99, -64.88)" d="M 276.1 60.9 C 278.1 57.3 280.20000000000005 53.9 282.8 50.8 C 286 46.9 290 44.3 294.90000000000003 43.099999999999994 C 295.8 42.89999999999999 296.8 42.8 297.50000000000006 42.3 C 299.80000000000007 40.8 302.00000000000006 40.3 304.30000000000007 42.4 C 305.50000000000006 43.5 306.50000000000006 42.4 307.30000000000007 41.6 C 309.50000000000006 39.4 311.80000000000007 37.2 314.6000000000001 35.6 C 316.4000000000001 34.5 318.30000000000007 33.7 320.50000000000006 33.6 C 325.50000000000006 33.4 329.00000000000006 36.800000000000004 328.1000000000001 41.7 C 326.9000000000001 48.300000000000004 323.50000000000006 53.7 317.50000000000006 57.1 C 314.40000000000003 58.9 311.00000000000006 58.7 307.6000000000001 57.4 C 304.9000000000001 56.4 304.50000000000006 56.5 303.50000000000006 59.1 C 302.1000000000001 62.7 301.40000000000003 66.4 302.40000000000003 70.3 C 303.20000000000005 73.5 305.20000000000005 75.2 308.50000000000006 75.5 C 311.30000000000007 75.7 313.90000000000003 74.8 316.6000000000001 74 C 324.2000000000001 71.5 331.4000000000001 68 339.2000000000001 65.8 C 340.2000000000001 65.5 341.2000000000001 65.1 342.2000000000001 65 C 343.2000000000001 64.9 344.0000000000001 65.3 344.3000000000001 66.4 C 344.60000000000014 67.30000000000001 344.10000000000014 68 343.40000000000015 68.4 C 342.10000000000014 69.2 340.8000000000001 70.2 339.3000000000001 70.80000000000001 C 332.60000000000014 73.50000000000001 326.3000000000001 77.10000000000001 319.60000000000014 79.70000000000002 C 315.70000000000016 81.20000000000002 311.70000000000016 81.60000000000002 307.60000000000014 81.30000000000001 C 305.70000000000016 81.20000000000002 304.0000000000001 80.50000000000001 302.5000000000001 79.4 C 297.10000000000014 75.5 295.0000000000001 70 295.5000000000001 63.60000000000001 C 295.8000000000001 59.30000000000001 297.2000000000001 55.10000000000001 299.60000000000014 51.400000000000006 C 300.10000000000014 50.60000000000001 300.70000000000016 49.7 300.10000000000014 48.900000000000006 C 299.40000000000015 47.800000000000004 298.20000000000016 48.2 297.20000000000016 48.50000000000001 C 295.40000000000015 49.00000000000001 293.70000000000016 49.70000000000001 292.3000000000002 51.00000000000001 C 287.50000000000017 55.20000000000001 283.4000000000002 59.900000000000006 281.70000000000016 66.30000000000001 C 280.40000000000015 71.10000000000001 279.10000000000014 75.9 278.60000000000014 80.9 C 278.5000000000001 82.60000000000001 278.0000000000001 84.10000000000001 276.0000000000001 84.4 C 274.10000000000014 84.60000000000001 273.0000000000001 83.4 272.4000000000001 81.9 C 271.7000000000001 79.9 271.30000000000007 77.80000000000001 270.80000000000007 75.80000000000001 C 270.50000000000006 74.80000000000001 270.9000000000001 73.70000000000002 269.70000000000005 72.70000000000002 C 267.30000000000007 76.00000000000001 264.80000000000007 79.00000000000001 260.1 79.20000000000002 C 255.50000000000003 79.30000000000001 252.60000000000002 76.80000000000001 249.90000000000003 73.40000000000002 C 248.20000000000005 75.20000000000002 247.80000000000004 77.20000000000002 247.10000000000002 79.00000000000001 C 245.60000000000002 82.60000000000001 244.40000000000003 86.40000000000002 242.50000000000003 89.90000000000002 C 242.10000000000002 90.70000000000002 241.70000000000002 91.50000000000001 241.10000000000002 92.30000000000003 C 237.3 97.70000000000003 230.90000000000003 97.40000000000002 227.60000000000002 91.70000000000003 C 226.3 89.40000000000003 225.70000000000002 86.80000000000003 225.60000000000002 84.20000000000003 C 225.50000000000003 79.60000000000004 226.40000000000003 75.10000000000004 227.10000000000002 70.50000000000003 C 227.3 68.90000000000003 227.8 67.30000000000003 229.90000000000003 67.40000000000003 C 231.40000000000003 67.40000000000003 233.10000000000002 69.10000000000004 233.30000000000004 70.80000000000004 C 233.40000000000003 71.80000000000004 233.20000000000005 72.90000000000003 233.10000000000005 73.90000000000003 C 232.50000000000006 78.10000000000004 231.60000000000005 82.20000000000003 232.00000000000006 86.40000000000003 C 232.10000000000005 87.80000000000004 231.80000000000007 89.70000000000003 233.50000000000006 90.10000000000004 C 235.20000000000005 90.50000000000004 235.90000000000006 88.70000000000003 236.60000000000005 87.60000000000004 C 240.50000000000006 80.70000000000003 242.90000000000006 73.20000000000003 245.40000000000006 65.70000000000005 C 245.80000000000007 64.50000000000004 246.10000000000005 63.200000000000045 246.60000000000005 62.00000000000004 C 247.60000000000005 59.600000000000044 249.70000000000005 59.200000000000045 251.60000000000005 60.90000000000004 C 252.70000000000005 61.90000000000004 253.20000000000005 63.20000000000004 253.50000000000006 64.70000000000005 C 253.80000000000007 66.50000000000004 254.10000000000005 68.30000000000004 254.80000000000007 70.00000000000004 C 256.20000000000005 73.70000000000005 259.1000000000001 74.50000000000004 262.30000000000007 72.30000000000004 C 264.50000000000006 70.90000000000003 266.00000000000006 68.60000000000004 268.50000000000006 67.60000000000004 C 269.70000000000005 67.10000000000004 269.20000000000005 65.80000000000004 269.1000000000001 64.80000000000004 C 268.80000000000007 60.40000000000004 268.4000000000001 55.90000000000004 268.1000000000001 51.50000000000004 C 268.00000000000006 50.50000000000004 268.1000000000001 49.40000000000004 268.2000000000001 48.40000000000004 C 268.3000000000001 47.20000000000004 268.6000000000001 46.00000000000004 270.0000000000001 45.600000000000044 C 271.5000000000001 45.200000000000045 272.60000000000014 45.90000000000004 273.4000000000001 47.00000000000004 C 274.5000000000001 48.30000000000004 274.6000000000001 49.90000000000004 274.5000000000001 51.50000000000004 C 274.7 54.2 275 57.5 276.1 60.9 z M 321.7 39.7 C 320.59999999999997 39.800000000000004 319.7 40.300000000000004 318.8 40.900000000000006 C 315.3 43.00000000000001 312.6 46.00000000000001 309.90000000000003 49.00000000000001 C 309.20000000000005 49.800000000000004 308.50000000000006 50.70000000000001 309.3 51.800000000000004 C 310 52.7 311.1 52.800000000000004 312.1 52.6 C 313.3 52.4 314.3 51.9 315.3 51.300000000000004 C 318.6 49.2 320.8 46.2 322.40000000000003 42.7 C 322.6 42.2 322.8 41.7 322.8 41.2 C 323.1 40.3 322.7 39.7 321.7 39.7 z" stroke-linecap="round" />
</g>
<g transform="matrix(1.6 0 0 1.6 92.57 112.83)" id="W5UHKqdoDbomGkW96ZWYZ"  >
<path style="stroke: none; stroke-width: 1; stroke-dasharray: none; stroke-linecap: butt; stroke-dashoffset: 0; stroke-linejoin: miter; stroke-miterlimit: 4; fill: rgb(16,105,176); fill-rule: nonzero; opacity: 1;" vector-effect="non-scaling-stroke"  transform=" translate(-119.06, -69.01)" d="M 155.3 6.6 C 152 6.5 148.60000000000002 7.6 145.10000000000002 8.2 C 137.10000000000002 9.5 129.20000000000002 11.5 121.30000000000003 13.399999999999999 C 118.40000000000002 14.099999999999998 116.90000000000002 15.499999999999998 116.10000000000002 18.4 C 112.10000000000002 34.599999999999994 108.70000000000002 50.9 107.10000000000002 67.5 C 107.10000000000002 67.6 107.10000000000002 67.8 107.10000000000002 67.9 C 107.20000000000002 69.2 106.40000000000002 70.80000000000001 107.80000000000003 71.5 C 109.00000000000003 72.2 109.80000000000003 70.7 110.70000000000003 70 C 116.20000000000003 65.6 122.40000000000003 62.5 128.70000000000005 59.6 C 131.60000000000005 58.300000000000004 134.40000000000003 57 137.30000000000004 55.7 C 138.90000000000003 55 140.50000000000003 54.400000000000006 142.20000000000005 54.400000000000006 C 143.50000000000006 54.400000000000006 145.00000000000006 54.800000000000004 145.40000000000003 56.300000000000004 C 145.80000000000004 57.7 144.60000000000002 58.400000000000006 143.50000000000003 59.00000000000001 C 140.10000000000002 60.800000000000004 136.80000000000004 62.60000000000001 133.40000000000003 64.30000000000001 C 124.80000000000004 68.4 116.80000000000004 73.30000000000001 109.80000000000004 79.70000000000002 C 107.40000000000003 81.90000000000002 106.30000000000004 84.40000000000002 106.40000000000003 87.70000000000002 C 106.80000000000004 101.30000000000001 108.70000000000003 114.60000000000002 112.60000000000004 127.60000000000002 C 113.20000000000003 129.60000000000002 114.10000000000004 131.50000000000003 115.00000000000004 133.40000000000003 C 115.50000000000004 134.50000000000003 115.90000000000005 135.70000000000005 114.70000000000005 136.60000000000002 C 113.40000000000005 137.50000000000003 112.20000000000005 137.20000000000002 111.10000000000005 136.20000000000002 C 109.40000000000005 134.8 108.60000000000005 132.8 107.80000000000005 130.9 C 105.10000000000005 124 103.60000000000005 116.9 102.20000000000006 109.60000000000001 C 100.50000000000006 100.50000000000001 100.10000000000007 91.30000000000001 100.00000000000006 82.20000000000002 C 99.90000000000006 75.00000000000001 100.70000000000006 67.80000000000001 101.40000000000006 60.600000000000016 C 102.70000000000006 47.40000000000002 105.90000000000006 34.500000000000014 108.70000000000006 21.600000000000016 C 108.90000000000006 20.800000000000015 109.00000000000006 20.100000000000016 109.10000000000007 19.300000000000015 C 109.20000000000006 17.900000000000016 108.60000000000007 17.300000000000015 107.20000000000006 17.800000000000015 C 99.10000000000007 20.700000000000014 90.70000000000006 23.200000000000017 83.70000000000006 28.400000000000013 C 81.50000000000006 30.100000000000012 79.40000000000006 29.200000000000014 78.50000000000006 26.600000000000012 C 78 24.7 79 23.8 80.3 23 C 85.5 19.6 91 17 96.8 14.8 C 112.5 8.9 128.7 5.300000000000001 145.1 2.200000000000001 C 147.5 1.700000000000001 150 1.3000000000000012 152.5 1.000000000000001 C 154.5 0.7000000000000011 156.5 0.9000000000000011 158.1 2.200000000000001 C 159.29999999999998 3.100000000000001 160.2 4.300000000000001 159.5 5.900000000000001 C 158.9 7.300000000000001 157.6 7.000000000000002 156.4 6.800000000000002 C 156.2 6.7 155.9 6.7 155.3 6.6 z" stroke-linecap="round" />
</g>
<g transform="matrix(1.6 0 0 1.6 178.63 146.47)" id="l8CDZBbz6_maQ6GaEXjtU"  >
<path style="stroke: none; stroke-width: 1; stroke-dasharray: none; stroke-linecap: butt; stroke-dashoffset: 0; stroke-linejoin: miter; stroke-miterlimit: 4; fill: rgb(16,105,176); fill-rule: nonzero; opacity: 1;" vector-effect="non-scaling-stroke"  transform=" translate(-172.95, -90.07)" d="M 147.9 84.2 C 148 82.7 147.9 81.3 148.20000000000002 79.9 C 148.60000000000002 77.9 149.9 77.30000000000001 151.70000000000002 78.4 C 153.70000000000002 79.60000000000001 154.50000000000003 81.4 154.50000000000003 83.7 C 154.40000000000003 87.2 154.60000000000002 90.8 155.10000000000002 94.3 C 155.40000000000003 96 155.8 97.7 156.8 99.1 C 158.4 101.19999999999999 160.10000000000002 101.3 161.5 99.1 C 162.5 97.6 163.4 95.89999999999999 164 94.19999999999999 C 166.1 88.69999999999999 168 83.1 168.4 77.1 C 168.5 75.5 168.70000000000002 73.8 170.6 73.39999999999999 C 172.5 72.99999999999999 173.79999999999998 74.19999999999999 174.9 75.6 C 175.70000000000002 76.69999999999999 175.9 78 176.20000000000002 79.3 C 177.10000000000002 83 178.20000000000002 86.7 179.70000000000002 90.1 C 181.70000000000002 94.6 185.00000000000003 95.69999999999999 189.20000000000002 93.1 C 190.4 92.39999999999999 191.50000000000003 91.3 192.60000000000002 90.5 C 193.3 89.9 194.00000000000003 89.3 194.8 88.8 C 195.60000000000002 88.3 196.60000000000002 88.39999999999999 197.4 89 C 198.20000000000002 89.7 198.1 90.6 197.70000000000002 91.5 C 195.4 95.8 192.70000000000002 99.6 187.3 100.2 C 182 100.7 178.4 97.8 175.3 94 C 174.5 93 174.5 90.6 172.70000000000002 91.1 C 171.3 91.39999999999999 171.3 93.5 170.9 94.8 C 170.1 97 169.3 99.3 168.20000000000002 101.3 C 164.50000000000003 108 157.60000000000002 108.7 152.8 102.8 C 150.10000000000002 99.6 148.70000000000002 95.8 148.4 91.7 C 148.3 89.1 148.1 86.6 147.9 84.2 z" stroke-linecap="round" />
</g>
<g transform="matrix(1.6 0 0 1.6 230.74 139.43)" id="F9pTnTRYNhuYTbnSWvD6S"  >
<path style="stroke: none; stroke-width: 1; stroke-dasharray: none; stroke-linecap: butt; stroke-dashoffset: 0; stroke-linejoin: miter; stroke-miterlimit: 4; fill: rgb(16,105,176); fill-rule: nonzero; opacity: 1;" vector-effect="non-scaling-stroke"  transform=" translate(-205.58, -85.66)" d="M 203.8 74.4 C 201.60000000000002 74 200.5 75.2 199.20000000000002 75.60000000000001 C 197.70000000000002 76.10000000000001 196.20000000000002 76.7 194.60000000000002 76.7 C 192.8 76.7 191.40000000000003 75.4 191.10000000000002 73.60000000000001 C 190.90000000000003 71.9 192.00000000000003 71.30000000000001 193.3 70.9 C 196.60000000000002 69.9 199.5 68.10000000000001 202.5 66.5 C 204.4 65.5 205.8 64.1 206.5 61.9 C 207.6 58.9 208.3 58.6 211.1 59.699999999999996 C 212.4 60.199999999999996 213.6 60.3 214.79999999999998 59.699999999999996 C 215.6 59.3 216.49999999999997 58.99999999999999 217.49999999999997 59.3 C 218.69999999999996 59.699999999999996 219.69999999999996 60.199999999999996 219.99999999999997 61.599999999999994 C 220.29999999999998 62.8 219.79999999999998 63.699999999999996 218.79999999999998 64.3 C 217.39999999999998 65.3 215.99999999999997 66.2 214.49999999999997 67.1 C 212.79999999999998 68.1 211.89999999999998 69.5 211.39999999999998 71.39999999999999 C 208.99999999999997 80.3 208.2 89.39999999999999 208.49999999999997 98.69999999999999 C 208.59999999999997 101.99999999999999 208.69999999999996 105.19999999999999 210.89999999999998 107.99999999999999 C 211.79999999999998 109.09999999999998 211.89999999999998 110.49999999999999 210.7 111.49999999999999 C 209.5 112.49999999999999 208.1 112.39999999999999 206.7 111.39999999999999 C 204.6 109.8 203.5 107.6 203.1 105.1 C 202.2 99.3 201.6 93.39999999999999 202.1 87.5 C 202.8 83.2 202.9 78.8 203.8 74.4 z" stroke-linecap="round" />
</g>
</svg>