<?xml version="1.0" encoding="UTF-8" standalone="no" ?>
<!DOCTYPE svg PUBLIC "-//W3C//DTD SVG 1.1//EN" "http://www.w3.org/Graphics/SVG/1.1/DTD/svg11.dtd">
<svg xmlns="http://www.w3.org/2000/svg" xmlns:xlink="http://www.w3.org/1999/xlink" version="1.1" width="480" height="480" viewBox="0 0 480 480" xml:space="preserve">
<desc>Created with Fabric.js 4.6.0</desc>
<defs>
</defs>
<g transform="matrix(1.85 0 0 1.84 240.61 240.48)" id="sz2L-g7ZNsuDaMDlS4ftQ"  >
<path style="stroke: rgb(100,100,108); stroke-width: 0; stroke-dasharray: none; stroke-linecap: butt; stroke-dashoffset: 0; stroke-linejoin: miter; stroke-miterlimit: 4; fill: rgb(236,255,152); fill-rule: nonzero; opacity: 1;" vector-effect="non-scaling-stroke"  transform=" translate(0, 0)" d="M -130.66667 -130.66667 L 130.66665999999998 -130.66667 L 130.66665999999998 130.66665999999998 L -130.66667 130.66665999999998 z" stroke-linecap="round" />
</g>
<g transform="matrix(1 0 0 1 248.5 274.26)" id="WephmC9DZfm9CnlcEGJWZ"  >
<g style="" vector-effect="non-scaling-stroke"   >
		<g transform="matrix(1 0 0 1 0 162.69)" id="0qonNBHaWpKvh62GPpr7J"  >
<filter id="SVGID_14" y="-25%" height="150%" x="-21%" width="142%" >
	<feGaussianBlur in="SourceAlpha" stdDeviation="2"></feGaussianBlur>
	<feOffset dx="0" dy="0" result="oBlur" ></feOffset>
	<feFlood flood-color="rgb(148,140,86)" flood-opacity="1"/>
	<feComposite in2="oBlur" operator="in" />
	<feMerge>
		<feMergeNode></feMergeNode>
		<feMergeNode in="SourceGraphic"></feMergeNode>
	</feMerge>
</filter>
<path style="stroke: rgb(233,199,175); stroke-width: 0; stroke-dasharray: none; stroke-linecap: butt; stroke-dashoffset: 0; stroke-linejoin: miter; stroke-miterlimit: 4; fill: rgb(148,140,87); fill-rule: nonzero; opacity: 1;filter: url(#SVGID_14);" vector-effect="non-scaling-stroke"  transform=" translate(0, 0)" d="M -98.98117 3.22098 L -106.31450000000001 13.88765 L -169.16667 43.6679 L 169.16665999999998 43.6679 L 144.83333 25.998760000000004 L 99.16665999999998 8.998760000000004 L 92.16665999999998 -1.0012399999999957 L 70.16665999999998 -13.657009999999996 C 70.16665999999998 -13.657009999999996 64.96553999999998 -27.165179999999996 46.51857999999998 -34.667899999999996 C 28.071629999999978 -42.17062 -3.6211500000000214 -43.667899999999996 -3.6211500000000214 -43.667899999999996 C -3.6211500000000214 -43.667899999999996 -38.02306000000002 -42.17062 -55.57078000000002 -34.667899999999996 C -73.11850000000003 -27.165179999999996 -73.81205000000003 -13.657009999999996 -73.81205000000003 -13.657009999999996 z" stroke-linecap="round" />
</g>
		<g transform="matrix(1 0 0 1 -4.85 -28.66)" id="sSwwFC5DdSItbV1e4HegE"  >
<filter id="SVGID_14" y="-21%" height="142%" x="-21%" width="142%" >
	<feGaussianBlur in="SourceAlpha" stdDeviation="2"></feGaussianBlur>
	<feOffset dx="0" dy="0" result="oBlur" ></feOffset>
	<feFlood flood-color="rgb(148,140,86)" flood-opacity="1"/>
	<feComposite in2="oBlur" operator="in" />
	<feMerge>
		<feMergeNode></feMergeNode>
		<feMergeNode in="SourceGraphic"></feMergeNode>
	</feMerge>
</filter>
<path style="stroke: rgb(0,0,0); stroke-width: 0; stroke-dasharray: none; stroke-linecap: butt; stroke-dashoffset: 0; stroke-linejoin: miter; stroke-miterlimit: 4; fill: rgb(148,140,87); fill-rule: nonzero; opacity: 1;filter: url(#SVGID_14);" vector-effect="non-scaling-stroke"  transform=" translate(0, 0)" d="M 19.69439 -132.41358 C 19.69439 -132.41358 -32.24962 -106.51614 -56.06633000000001 -58.84948 C -79.88304000000001 -11.182809999999996 -72.60617 57.054370000000006 -75.57244 58.25308 C -78.53871 59.4518 -87.16218 15.176159999999996 -87.16218 15.176159999999996 C -87.16218 15.176159999999996 -96.05107000000001 45.61632999999999 -83.18141 72.08000999999999 C -70.31175 98.54368999999998 -35.68355 121.03085999999999 -35.68355 121.03085999999999 C -35.68355 121.03085999999999 -32.302029999999995 130.98264999999998 -33.57369 141.35285 C -34.845349999999996 151.72304 -40.770179999999996 162.51163 -40.770179999999996 162.51163 L -45.81191999999999 146.69753 L -47.30349 122.69753 C -47.30349 122.69753 -46.043519999999994 136.60025 -50.721869999999996 149.51692 C -55.40022 162.43359 -66.01688 174.3642 -66.01688 174.3642 C -66.01688 174.3642 -63.73955 169.89198000000002 -63.73955 164.80864000000003 C -63.73955 159.72531000000004 -66.01688 154.03086000000002 -66.01688 154.03086000000002 L -73.12854 167.33608 L -85.23910000000001 177.69753 L -79.68354000000001 149.51692 L -79.68354000000001 121.03086 L -85.23910000000001 137.64918 L -94.23910000000001 146.69753 L -90.01688000000001 118.44653 L -90.01688000000001 92.36419 C -90.01688000000001 92.36419 -129.29679000000002 95.11419 -137.49124 55.25308 C -145.68568 15.39197 -142.57297 -11.60803 -122.79466000000001 -67.08025 C -103.01635 -122.55247 -95.95464000000001 -141.74692 -58.37799000000001 -166.63581 C -20.80134000000001 -191.5247 27.511949999999985 -166.63581 27.511949999999985 -166.63581 C 27.511949999999985 -166.63581 61.158059999999985 -187.82811999999998 89.60918999999998 -146.66145 C 118.06031999999999 -105.49477999999999 135.39979 -71.16359 141.31644999999997 -1.96914000000001 C 147.23311999999999 67.22529999999999 85.87200999999997 112.80864 85.87200999999997 112.80864 C 85.87200999999997 112.80864 81.12200999999997 120.53756 78.42756999999997 131.20423 C 75.73312999999997 141.8709 75.09423999999997 155.47531 75.09423999999997 155.47531 C 75.09423999999997 155.47531 71.76810999999996 149.01952 69.35143999999997 141.35285000000002 C 66.93476999999997 133.68618 65.42756999999997 124.80864000000003 65.42756999999997 124.80864000000003 C 65.42756999999997 124.80864000000003 65.44332999999997 133.68618000000004 63.193329999999975 141.35285000000002 C 60.943329999999975 149.01952000000003 56.427569999999974 155.47531 56.427569999999974 155.47531 L 53.427569999999974 146.69753 C 53.427569999999974 146.69753 52.599869999999974 153.8247 51.36749999999997 158.98433 C 50.13512999999997 164.14397 48.49808999999997 167.33608 48.49808999999997 167.33608 C 48.49808999999997 167.33608 39.48057999999997 167.16272 36.47474999999997 154.03086000000002 C 33.46890999999997 140.89900000000003 39.09974999999997 116.25095000000002 39.09974999999997 116.25095000000002 L 78.42757999999998 78.14198000000002 C 78.42757999999998 78.14198000000002 68.96256999999997 63.30224000000002 63.19333999999998 -1.9691299999999785 C 57.42410999999998 -67.24049999999998 63.34077999999998 -68.77144999999997 53.42757999999998 -90.63579999999997 C 43.51438999999998 -112.50013999999997 19.694409999999976 -132.41357999999997 19.694409999999976 -132.41357999999997 z" stroke-linecap="round" />
</g>
</g>
</g>
<g transform="matrix(1 0 0 1 245.13 436.96)" id="47uSt-MOHWFke4ON3dtK4"  >
<path style="stroke: rgb(233,199,175); stroke-width: 0; stroke-dasharray: none; stroke-linecap: butt; stroke-dashoffset: 0; stroke-linejoin: miter; stroke-miterlimit: 4; fill: rgb(68,74,97); fill-rule: nonzero; opacity: 1;" vector-effect="non-scaling-stroke"  transform=" translate(0, 0)" d="M -98.98117 3.22098 L -106.31450000000001 13.88765 L -169.16667 43.6679 L 169.16665999999998 43.6679 L 144.83333 25.998760000000004 L 99.16665999999998 8.998760000000004 L 92.16665999999998 -1.0012399999999957 L 70.16665999999998 -13.657009999999996 C 70.16665999999998 -13.657009999999996 64.96553999999998 -27.165179999999996 46.51857999999998 -34.667899999999996 C 28.071629999999978 -42.17062 -3.6211500000000214 -43.667899999999996 -3.6211500000000214 -43.667899999999996 C -3.6211500000000214 -43.667899999999996 -38.02306000000002 -42.17062 -55.57078000000002 -34.667899999999996 C -73.11850000000003 -27.165179999999996 -73.81205000000003 -13.657009999999996 -73.81205000000003 -13.657009999999996 z" stroke-linecap="round" />
</g>
<g transform="matrix(1 0 0 1 240.93 414)" id="t6Zkw_J1ppW60rtm4-iSC"  >
<path style="stroke: rgb(233,199,175); stroke-width: 0; stroke-dasharray: none; stroke-linecap: butt; stroke-dashoffset: 0; stroke-linejoin: miter; stroke-miterlimit: 4; fill: rgb(249,225,194); fill-rule: nonzero; opacity: 1;" vector-effect="non-scaling-stroke"  transform=" translate(0, 0)" d="M -37.09772 -46.37605 C -37.09772 -46.37605 -35.264390000000006 -31.20938 -37.09772 -19.04272 C -38.93105 -6.876049999999999 -44.09772 0.2906100000000009 -44.09772 0.2906100000000009 C -44.09772 0.2906100000000009 -47.438520000000004 -0.04271999999999909 -51.85519 7.623940000000001 C -56.271860000000004 15.290610000000001 -59.28709 22.29061 -61.76439 30.95727 C -64.24169 39.623940000000005 -61.76439 42.2906 -61.76439 42.2906 C -61.76439 42.2906 -30.822219999999998 53.457269999999994 0.09443999999999875 52.2906 C 31.01111 51.123929999999994 61.90227 39.2906 61.90227 39.2906 C 61.90227 39.2906 64.0693 38.454539999999994 61.90227 30.957269999999998 C 59.735240000000005 23.459989999999998 55.90083 13.968159999999997 55.90083 13.968159999999997 L 47.90227 2.2905999999999977 C 47.90227 2.2905999999999977 40.52329 -6.876070000000002 37.96641 -19.042730000000002 C 35.409530000000004 -31.209400000000002 38.447970000000005 -52.376059999999995 38.447970000000005 -52.376059999999995 C 38.447970000000005 -52.376059999999995 18.204220000000007 -36.1918 0.09444000000000585 -36.1918 C -18.015339999999995 -36.1918 -37.09772999999999 -46.37606 -37.09772999999999 -46.37606 z" stroke-linecap="round" />
</g>
<g transform="matrix(1 0 0 1 239.93 464.8)" id="EnCh9uEKNMQBp38WW4WE6"  >
<path style="stroke: rgb(233,199,175); stroke-width: 0; stroke-dasharray: none; stroke-linecap: butt; stroke-dashoffset: 0; stroke-linejoin: miter; stroke-miterlimit: 4; fill: rgb(193,195,202); fill-opacity: 0.32; fill-rule: nonzero; opacity: 1;" vector-effect="non-scaling-stroke"  transform=" translate(0, 0)" d="M -61.38012 -9.50819 L -63.38757 5.491809999999999 L -63.38757 13.174859999999999 L 63.38757 13.174859999999999 L 63.38757 -13.174860000000002 C 63.38757 -13.174860000000002 31.26126 0.6519699999999968 0.06932999999999367 1.568629999999997 C -31.122590000000006 2.485299999999997 -61.380120000000005 -9.508200000000002 -61.380120000000005 -9.508200000000002 z" stroke-linecap="round" />
</g>
<g transform="matrix(1 0 0 1 236.77 233.37)" id="7qPnyeNDABL6QbKAexl1W"  >
<path style="stroke: rgb(233,199,175); stroke-width: 4; stroke-dasharray: none; stroke-linecap: butt; stroke-dashoffset: 0; stroke-linejoin: miter; stroke-miterlimit: 4; fill: rgb(249,224,195); fill-rule: nonzero; opacity: 1;" vector-effect="non-scaling-stroke"  transform=" translate(0, 0)" d="M -94.8411 67.02984 C -81.38207 96.00711 -45.550419999999995 145.43893 1.0404800000000023 145.43893 C 47.63139 145.43893 84.29464 91.46166 95.55151000000001 67.02984 C 106.80839 42.59801999999999 59.704350000000005 -125.01561 59.704350000000005 -125.01561 C 59.704350000000005 -125.01561 36.962250000000004 -147.55061 6.564520000000002 -145.27787999999998 C -23.833209999999998 -143.00515 -61.88656 -115.92469999999999 -61.88656 -115.92469999999999 C -61.88656 -115.92469999999999 -108.30014 38.05257000000002 -94.84111 67.02985000000002 z" stroke-linecap="round" />
</g>
<g transform="matrix(3.79 0 0 2.1 193.93 226.66)" id="0XciPTLml_kEcW-CjNuab"  >
<path style="stroke: rgb(52,187,33); stroke-width: 0; stroke-dasharray: none; stroke-linecap: butt; stroke-dashoffset: 0; stroke-linejoin: miter; stroke-miterlimit: 4; fill: rgb(255,254,254); fill-rule: nonzero; opacity: 1;" vector-effect="non-scaling-stroke"  transform=" translate(0, 0)" d="M 0 -6.25 C 3.45 -6.25 6.25 -3.45 6.25 0 C 6.25 3.45 3.45 6.25 0 6.25 C -3.45 6.25 -6.25 3.45 -6.25 0 C -6.25 -3.45 -3.45 -6.25 0 -6.25 z" stroke-linecap="round" />
</g>
<g transform="matrix(3.79 0 0 2.1 283.67 226.66)" id="aVm9CuXKcsg250NWHmh8s"  >
<path style="stroke: rgb(52,187,33); stroke-width: 0; stroke-dasharray: none; stroke-linecap: butt; stroke-dashoffset: 0; stroke-linejoin: miter; stroke-miterlimit: 4; fill: rgb(255,254,254); fill-rule: nonzero; opacity: 1;" vector-effect="non-scaling-stroke"  transform=" translate(0, 0)" d="M 0 -6.25 C 3.45 -6.25 6.25 -3.45 6.25 0 C 6.25 3.45 3.45 6.25 0 6.25 C -3.45 6.25 -6.25 3.45 -6.25 0 C -6.25 -3.45 -3.45 -6.25 0 -6.25 z" stroke-linecap="round" />
</g>
<g transform="matrix(1 0 0 1 201.44 216.51)" id="1l7r7iephQHEql_y8e0t6"  >
<path style="stroke: rgb(0,0,0); stroke-width: 0; stroke-dasharray: none; stroke-linecap: butt; stroke-dashoffset: 0; stroke-linejoin: miter; stroke-miterlimit: 4; fill: rgb(76,66,64); fill-rule: nonzero; opacity: 1;" vector-effect="non-scaling-stroke"  transform=" translate(0, 0)" d="M 2.86175 -2.42607 C 0.23032999999999992 4.4097 -7.97967 1.08643 -7.97967 1.08643 L -4.651999999999999 5.79939 C -4.651999999999999 5.79939 2.357100000000001 8.51474 6.439120000000001 1.08643 C 10.52114 -6.34188 5.493180000000001 -9.26184 2.8617500000000007 -2.42607 z" stroke-linecap="round" />
</g>
<g transform="matrix(1.31 0 0 1.08 194.51 226.32)" id="615jmsMweKqodl9KdT_j9"  >
<radialGradient id="SVGID_2" gradientUnits="userSpaceOnUse" gradientTransform="matrix(1 0 0 1 -12.5 -12.5)"  cx="7.841795176109088" cy="7.748752691920359" r="7.556266006765668" fx="7.841795176109088" fy="7.748752691920359">
<stop offset="0%" style="stop-color:#818180;stop-opacity: 1"/>
<stop offset="30.587881975869873%" style="stop-color:#7E7E7E;stop-opacity: 1"/>
<stop offset="100%" style="stop-color:#4C4240;stop-opacity: 1"/>
</radialGradient>
<path style="stroke: rgb(101,70,161); stroke-width: 0; stroke-dasharray: none; stroke-linecap: butt; stroke-dashoffset: 0; stroke-linejoin: miter; stroke-miterlimit: 4; fill: url(#SVGID_2); fill-rule: nonzero; opacity: 1;" vector-effect="non-scaling-stroke"  transform=" translate(0, 0)" d="M 0 -12.5 C 6.9 -12.5 12.5 -6.9 12.5 0 C 12.5 6.9 6.9 12.5 0 12.5 C -6.9 12.5 -12.5 6.9 -12.5 0 C -12.5 -6.9 -6.9 -12.5 0 -12.5 z" stroke-linecap="round" />
</g>
<g transform="matrix(0.21 0 0 0.21 186.89 220.62)" id="yP4ZkdbRMQ9_5j9oFbDjt"  >
<filter id="SVGID_3" y="-36%" height="172%" x="-48%" width="196%" >
	<feGaussianBlur in="SourceAlpha" stdDeviation="2"></feGaussianBlur>
	<feOffset dx="3" dy="0" result="oBlur" ></feOffset>
	<feFlood flood-color="rgb(255,255,255)" flood-opacity="1"/>
	<feComposite in2="oBlur" operator="in" />
	<feMerge>
		<feMergeNode></feMergeNode>
		<feMergeNode in="SourceGraphic"></feMergeNode>
	</feMerge>
</filter>
<path style="stroke: rgb(101,70,161); stroke-width: 0; stroke-dasharray: none; stroke-linecap: butt; stroke-dashoffset: 0; stroke-linejoin: miter; stroke-miterlimit: 4; fill: rgb(255,255,255); fill-rule: nonzero; opacity: 1;filter: url(#SVGID_3);" vector-effect="non-scaling-stroke"  transform=" translate(0, 0)" d="M 0 -12.5 C 6.9 -12.5 12.5 -6.9 12.5 0 C 12.5 6.9 6.9 12.5 0 12.5 C -6.9 12.5 -12.5 6.9 -12.5 0 C -12.5 -6.9 -6.9 -12.5 0 -12.5 z" stroke-linecap="round" />
</g>
<g transform="matrix(0.96 0 0 0.96 193.46 199.73)" id="GVvmBjdsh3mnADgPtgAfj"  >
<path style="stroke: rgb(0,0,0); stroke-width: 0; stroke-dasharray: none; stroke-linecap: butt; stroke-dashoffset: 0; stroke-linejoin: miter; stroke-miterlimit: 4; fill: rgb(76,66,64); fill-rule: nonzero; opacity: 1;" vector-effect="non-scaling-stroke"  transform=" translate(0, 0)" d="M 22.36622 -0.99795 C 25.08505 1.05775 24.42017 2.56188 24.0886 3.2250099999999997 C 23.75704 3.88814 20.90909 0.7812999999999999 20.90909 0.7812999999999999 C 20.90909 0.7812999999999999 16.65372 -1.4098800000000002 11.10179 -3.13402 C 5.54986 -4.85816 5.23884 -3.95085 -0.9282700000000013 -3.95085 C -7.095380000000001 -3.95085 -7.0061300000000015 -2.3347499999999997 -11.865340000000002 -0.21274000000000015 C -16.72455 1.9092799999999999 -20.990930000000002 7.1511 -20.990930000000002 7.1511 C -20.990930000000002 7.1511 -22.79791 6.49675 -23.663790000000002 6.49675 C -24.529670000000003 6.49675 -25.078730000000004 6.4205 -22.747700000000002 4.364789999999999 C -20.416670000000003 2.3090899999999994 -15.124900000000002 -1.5635900000000005 -15.124900000000002 -1.5635900000000005 C -15.124900000000002 -1.5635900000000005 -9.517820000000002 -5.422040000000001 -2.2369700000000012 -6.59987 C 5.043879999999999 -7.7777 8.507599999999998 -6.98721 14.3911 -4.99782 C 20.2746 -3.0084299999999997 19.64739 -3.05367 22.36622 -0.99797 z" stroke-linecap="round" />
</g>
<g transform="matrix(1 0 0 1 240 288.29)" id="A72WkXYJRvYt5XhPrfELT"  >
<linearGradient id="SVGID_4" gradientUnits="userSpaceOnUse" gradientTransform="matrix(1 0 0 1 -11.16 -3.73)"  x1="0" y1="3.741819023171198" x2="22.314102564102598" y2="3.741819023171198">
<stop offset="0%" style="stop-color:#F9E1C2;stop-opacity: 1"/>
<stop offset="50%" style="stop-color:#BBA180;stop-opacity: 1"/>
<stop offset="100%" style="stop-color:#A1732C;stop-opacity: 1"/>
</linearGradient>
<path style="stroke: rgb(0,0,0); stroke-width: 0; stroke-dasharray: none; stroke-linecap: butt; stroke-dashoffset: 0; stroke-linejoin: miter; stroke-miterlimit: 4; fill: url(#SVGID_4); fill-rule: nonzero; opacity: 1;" vector-effect="non-scaling-stroke"  transform=" translate(0, 0)" d="M -11.15705 -3.63125 C -11.15705 -3.00439 -6.08755 3.7289999999999996 0.2826500000000003 3.7289999999999996 C 6.65284 3.7289999999999996 11.15706 -3.0043800000000007 11.15706 -3.63125 C 11.15706 -4.25811 6.177409999999999 -1.66503 -0.19279000000000046 -1.66503 C -6.5629800000000005 -1.66503 -11.15705 -4.25811 -11.15705 -3.63125 z" stroke-linecap="round" />
</g>
<g transform="matrix(1 0 0 1 239.63 316.47)" id="k78JSoRt2oy4xPrmRVprT"  >
<path style="stroke: rgb(0,0,0); stroke-width: 0; stroke-dasharray: none; stroke-linecap: butt; stroke-dashoffset: 0; stroke-linejoin: miter; stroke-miterlimit: 4; fill: rgb(219,150,129); fill-rule: nonzero; opacity: 1;" vector-effect="non-scaling-stroke"  transform=" translate(0, 0)" d="M -30.49813 -8.0925 C -31.98584 -8.57643 -32.67444 -8.0925 -32.67444 -8.0925 C -32.67444 -8.0925 -33.233689999999996 -7.10162 -31.873129999999996 -6.12236 C -27.993899999999996 -3.3302899999999998 -18.310759999999995 2.0408 -11.853929999999995 4.888270000000001 C -3.132499999999995 8.734420000000002 -4.4922399999999945 8.29212 1.8779500000000056 8.29212 C 8.248140000000006 8.29212 8.638010000000005 8.73443 16.793500000000005 4.88827 C 22.681850000000004 2.1113100000000005 29.168160000000007 -2.7602599999999997 31.763390000000005 -5.6223600000000005 C 32.76261 -6.72433 32.91479 -7.778690000000001 32.70825000000001 -8.092500000000001 C 32.50171000000001 -8.406310000000001 30.812240000000006 -7.377590000000001 30.812240000000006 -7.377590000000001 C 30.812240000000006 -7.377590000000001 22.442010000000007 -3.3613000000000017 14.774600000000007 -1.7466500000000016 C 12.480930000000006 -1.2636300000000016 6.999090000000007 -1.7466500000000016 6.999090000000007 -1.7466500000000016 C 6.999090000000007 -1.7466500000000016 4.906660000000008 -0.07436000000000154 2.5029500000000073 -0.07436000000000154 C 0.09924000000000754 -0.07436000000000154 -2.6157399999999926 -1.7466500000000016 -2.6157399999999926 -1.7466500000000016 C -2.6157399999999926 -1.7466500000000016 -10.308289999999992 -2.0574000000000017 -11.853939999999994 -2.3716500000000016 C -19.694369999999992 -3.9657400000000016 -25.218399999999995 -6.375080000000001 -30.498139999999996 -8.092490000000002 z" stroke-linecap="round" />
</g>
<g transform="matrix(1 0 0 1 239.82 469.04)" id="nAXA4ZaJ1vT_eoVM7LgR-"  >
<path style="stroke: rgb(233,199,175); stroke-width: 0; stroke-dasharray: none; stroke-linecap: butt; stroke-dashoffset: 0; stroke-linejoin: miter; stroke-miterlimit: 4; fill: rgb(171,170,177); fill-rule: nonzero; opacity: 1;" vector-effect="non-scaling-stroke"  transform=" translate(0, 0)" d="M -63.27605 -2.6701 C -62.77419 -7.424200000000001 -63.27605 -10.413590000000001 -63.27605 -10.413590000000001 C -63.27605 -10.413590000000001 -29.500659999999996 7.003079999999999 1.6912599999999998 6.253079999999999 C 32.883179999999996 5.503079999999999 63.49909 -13.080250000000001 63.49909 -13.080250000000001 L 63.49909 0.25307999999999886 L 63.49909 11.580279999999998 L -63.27604999999999 13.080279999999998 C -63.27604999999999 13.080279999999998 -63.77790999999999 2.0840099999999975 -63.27604999999999 -2.670090000000002 z" stroke-linecap="round" />
</g>
<g transform="matrix(1 0 0 1 136.42 459.58)" id="Xwq88jQGfahk1u15VmIrs"  >
<path style="stroke: rgb(100,100,108); stroke-width: 3; stroke-dasharray: none; stroke-linecap: butt; stroke-dashoffset: 0; stroke-linejoin: miter; stroke-miterlimit: 4; fill: rgb(255,255,255); fill-opacity: 0; fill-rule: nonzero; opacity: 1;" vector-effect="non-scaling-stroke"  transform=" translate(0, 0)" d="M -14.09712 21.03946 C -14.09712 21.03946 -12.655840000000001 11.120869999999998 -4.572510000000001 0.5344099999999976 C 0.808419999999999 -6.512800000000002 14.09712 -21.03947 14.09712 -21.03947" stroke-linecap="round" />
</g>
<g transform="matrix(1 0 0 1 347.82 459.06)" id="qkPn6hEwbak-_1yUyA2Lk"  >
<path style="stroke: rgb(100,100,108); stroke-width: 3; stroke-dasharray: none; stroke-linecap: butt; stroke-dashoffset: 0; stroke-linejoin: miter; stroke-miterlimit: 4; fill: rgb(255,255,255); fill-opacity: 0; fill-rule: nonzero; opacity: 1;" vector-effect="non-scaling-stroke"  transform=" translate(0, 0)" d="M -12 -23.06773 C -12 -23.06773 -2.6380999999999997 -7.67337 3.02857 2.9130900000000004 C 8.69524 13.499550000000001 12 23.06773 12 23.06773" stroke-linecap="round" />
</g>
<g transform="matrix(1 0 0 1 263.33 389.6)" id="f56Bx55jMEf5ejBwpLsBr"  >
<linearGradient id="SVGID_5" gradientUnits="userSpaceOnUse" gradientTransform="matrix(1 0 0 1 -23.33 -24.4)"  x1="5.249999999999986" y1="15.616819023171182" x2="39.31410256410258" y2="18.241819023171182">
<stop offset="0%" style="stop-color:#F9E1C2;stop-opacity: 1"/>
<stop offset="68.24923002241793%" style="stop-color:#BBA180;stop-opacity: 1"/>
<stop offset="100%" style="stop-color:#A1732C;stop-opacity: 1"/>
</linearGradient>
<path style="stroke: rgb(0,0,0); stroke-width: 0; stroke-dasharray: none; stroke-linecap: butt; stroke-dashoffset: 0; stroke-linejoin: miter; stroke-miterlimit: 4; fill: url(#SVGID_5); fill-rule: nonzero; opacity: 1;" vector-effect="non-scaling-stroke"  transform=" translate(0, 0)" d="M -23.33286 -9.91722 C -23.33286 -9.57703 -12.29498 -7.86615 1.3397499999999987 0.9317999999999991 C 14.974469999999998 9.72975 19.78603 24.39958 22.699189999999998 24.39958 C 26.103129999999997 24.39958 14.746539999999998 15.69692 13.424519999999998 3.690190000000001 C 12.102499999999997 -8.316539999999998 15.342599999999997 -24.06298 15.342599999999997 -24.35487 C 15.342599999999997 -24.98173 10.366489999999997 -18.870379999999997 -1.6058200000000014 -15.167219999999999 C -13.578130000000002 -11.464059999999998 -23.33285 -10.544079999999997 -23.33285 -9.917219999999999 z" stroke-linecap="round" />
</g>
<g transform="matrix(-3.79 0 0 2.1 177.7 265.16)" id="bvrUKNiqd9e8qcVvMBgbm"  >
<radialGradient id="SVGID_7" gradientUnits="userSpaceOnUse" gradientTransform="matrix(1 0 0 1 -6.25 -6.25)"  cx="4.666886543535611" cy="6.249999999999979" r="7.760428582621927" fx="4.666886543535611" fy="6.249999999999979">
<stop offset="0%" style="stop-color:#FFB991;stop-opacity: 1"/>
<stop offset="68.79027610116759%" style="stop-color:#F9E1C2;stop-opacity: 1"/>
<stop offset="100%" style="stop-color:#F9E1C2;stop-opacity: 1"/>
</radialGradient>
<filter id="SVGID_6" y="-44%" height="188%" x="-44%" width="188%" >
	<feGaussianBlur in="SourceAlpha" stdDeviation="1.5"></feGaussianBlur>
	<feOffset dx="0" dy="0" result="oBlur" ></feOffset>
	<feFlood flood-color="rgb(252,207,172)" flood-opacity="1"/>
	<feComposite in2="oBlur" operator="in" />
	<feMerge>
		<feMergeNode></feMergeNode>
		<feMergeNode in="SourceGraphic"></feMergeNode>
	</feMerge>
</filter>
<path style="stroke: rgb(52,187,33); stroke-width: 0; stroke-dasharray: none; stroke-linecap: butt; stroke-dashoffset: 0; stroke-linejoin: miter; stroke-miterlimit: 4; fill: url(#SVGID_7); fill-rule: nonzero; opacity: 0.75;filter: url(#SVGID_6);" vector-effect="non-scaling-stroke"  transform=" translate(0, 0)" d="M 0 -6.25 C 3.45 -6.25 6.25 -3.45 6.25 0 C 6.25 3.45 3.45 6.25 0 6.25 C -3.45 6.25 -6.25 3.45 -6.25 0 C -6.25 -3.45 -3.45 -6.25 0 -6.25 z" stroke-linecap="round" />
</g>
<g transform="matrix(3.79 0 0 2.1 305.36 266.66)" id="e-kj7RnY6lRuCCZK3tCWn"  >
<radialGradient id="SVGID_9" gradientUnits="userSpaceOnUse" gradientTransform="matrix(1 0 0 1 -6.25 -6.25)"  cx="4.666886543535611" cy="6.249999999999979" r="7.760428582621927" fx="4.666886543535611" fy="6.249999999999979">
<stop offset="0%" style="stop-color:#FFB991;stop-opacity: 1"/>
<stop offset="68.79027610116759%" style="stop-color:#F9E1C2;stop-opacity: 1"/>
<stop offset="100%" style="stop-color:#F9E1C2;stop-opacity: 1"/>
</radialGradient>
<filter id="SVGID_8" y="-44%" height="188%" x="-44%" width="188%" >
	<feGaussianBlur in="SourceAlpha" stdDeviation="1.5"></feGaussianBlur>
	<feOffset dx="0" dy="0" result="oBlur" ></feOffset>
	<feFlood flood-color="rgb(252,207,172)" flood-opacity="1"/>
	<feComposite in2="oBlur" operator="in" />
	<feMerge>
		<feMergeNode></feMergeNode>
		<feMergeNode in="SourceGraphic"></feMergeNode>
	</feMerge>
</filter>
<path style="stroke: rgb(52,187,33); stroke-width: 0; stroke-dasharray: none; stroke-linecap: butt; stroke-dashoffset: 0; stroke-linejoin: miter; stroke-miterlimit: 4; fill: url(#SVGID_9); fill-rule: nonzero; opacity: 0.75;filter: url(#SVGID_8);" vector-effect="non-scaling-stroke"  transform=" translate(0, 0)" d="M 0 -6.25 C 3.45 -6.25 6.25 -3.45 6.25 0 C 6.25 3.45 3.45 6.25 0 6.25 C -3.45 6.25 -6.25 3.45 -6.25 0 C -6.25 -3.45 -3.45 -6.25 0 -6.25 z" stroke-linecap="round" />
</g>
<g transform="matrix(1 0 0 1 240.28 245.6)" id="3ZbawohF7p6iNKVq0myz9"  >
<path style="stroke: rgb(0,0,0); stroke-width: 0; stroke-dasharray: none; stroke-linecap: butt; stroke-dashoffset: 0; stroke-linejoin: miter; stroke-miterlimit: 4; fill: rgb(76,66,64); fill-rule: nonzero; opacity: 1;" vector-effect="non-scaling-stroke"  transform=" translate(0, 0)" d="M 19.69439 -132.41358 C 19.69439 -132.41358 -32.24962 -106.51614 -56.06633000000001 -58.84948 C -79.88304000000001 -11.182809999999996 -72.60617 57.054370000000006 -75.57244 58.25308 C -78.53871 59.4518 -87.16218 15.176159999999996 -87.16218 15.176159999999996 C -87.16218 15.176159999999996 -96.05107000000001 45.61632999999999 -83.18141 72.08000999999999 C -70.31175 98.54368999999998 -35.68355 121.03085999999999 -35.68355 121.03085999999999 C -35.68355 121.03085999999999 -32.302029999999995 130.98264999999998 -33.57369 141.35285 C -34.845349999999996 151.72304 -40.770179999999996 162.51163 -40.770179999999996 162.51163 L -45.81191999999999 146.69753 L -47.30349 122.69753 C -47.30349 122.69753 -46.043519999999994 136.60025 -50.721869999999996 149.51692 C -55.40022 162.43359 -66.01688 174.3642 -66.01688 174.3642 C -66.01688 174.3642 -63.73955 169.89198000000002 -63.73955 164.80864000000003 C -63.73955 159.72531000000004 -66.01688 154.03086000000002 -66.01688 154.03086000000002 L -73.12854 167.33608 L -85.23910000000001 177.69753 L -79.68354000000001 149.51692 L -79.68354000000001 121.03086 L -85.23910000000001 137.64918 L -94.23910000000001 146.69753 L -90.01688000000001 118.44653 L -90.01688000000001 92.36419 C -90.01688000000001 92.36419 -129.29679000000002 95.11419 -137.49124 55.25308 C -145.68568 15.39197 -142.57297 -11.60803 -122.79466000000001 -67.08025 C -103.01635 -122.55247 -95.95464000000001 -141.74692 -58.37799000000001 -166.63581 C -20.80134000000001 -191.5247 27.511949999999985 -166.63581 27.511949999999985 -166.63581 C 27.511949999999985 -166.63581 61.158059999999985 -187.82811999999998 89.60918999999998 -146.66145 C 118.06031999999999 -105.49477999999999 135.39979 -71.16359 141.31644999999997 -1.96914000000001 C 147.23311999999999 67.22529999999999 85.87200999999997 112.80864 85.87200999999997 112.80864 C 85.87200999999997 112.80864 81.12200999999997 120.53756 78.42756999999997 131.20423 C 75.73312999999997 141.8709 75.09423999999997 155.47531 75.09423999999997 155.47531 C 75.09423999999997 155.47531 71.76810999999996 149.01952 69.35143999999997 141.35285000000002 C 66.93476999999997 133.68618 65.42756999999997 124.80864000000003 65.42756999999997 124.80864000000003 C 65.42756999999997 124.80864000000003 65.44332999999997 133.68618000000004 63.193329999999975 141.35285000000002 C 60.943329999999975 149.01952000000003 56.427569999999974 155.47531 56.427569999999974 155.47531 L 53.427569999999974 146.69753 C 53.427569999999974 146.69753 52.599869999999974 153.8247 51.36749999999997 158.98433 C 50.13512999999997 164.14397 48.49808999999997 167.33608 48.49808999999997 167.33608 C 48.49808999999997 167.33608 39.48057999999997 167.16272 36.47474999999997 154.03086000000002 C 33.46890999999997 140.89900000000003 39.09974999999997 116.25095000000002 39.09974999999997 116.25095000000002 L 78.42757999999998 78.14198000000002 C 78.42757999999998 78.14198000000002 68.96256999999997 63.30224000000002 63.19333999999998 -1.9691299999999785 C 57.42410999999998 -67.24049999999998 63.34077999999998 -68.77144999999997 53.42757999999998 -90.63579999999997 C 43.51438999999998 -112.50013999999997 19.694409999999976 -132.41357999999997 19.694409999999976 -132.41357999999997 z" stroke-linecap="round" />
</g>
<g transform="matrix(0.21 0 0 0.21 276.48 220.62)" id="-mQwFptORdRnZIt_R6OB5"  >
<filter id="SVGID_10" y="-36%" height="172%" x="-48%" width="196%" >
	<feGaussianBlur in="SourceAlpha" stdDeviation="2"></feGaussianBlur>
	<feOffset dx="3" dy="0" result="oBlur" ></feOffset>
	<feFlood flood-color="rgb(255,255,255)" flood-opacity="1"/>
	<feComposite in2="oBlur" operator="in" />
	<feMerge>
		<feMergeNode></feMergeNode>
		<feMergeNode in="SourceGraphic"></feMergeNode>
	</feMerge>
</filter>
<path style="stroke: rgb(101,70,161); stroke-width: 0; stroke-dasharray: none; stroke-linecap: butt; stroke-dashoffset: 0; stroke-linejoin: miter; stroke-miterlimit: 4; fill: rgb(255,255,255); fill-rule: nonzero; opacity: 1;filter: url(#SVGID_10);" vector-effect="non-scaling-stroke"  transform=" translate(0, 0)" d="M 0 -12.5 C 6.9 -12.5 12.5 -6.9 12.5 0 C 12.5 6.9 6.9 12.5 0 12.5 C -6.9 12.5 -12.5 6.9 -12.5 0 C -12.5 -6.9 -6.9 -12.5 0 -12.5 z" stroke-linecap="round" />
</g>
<g transform="matrix(-0.96 0 0 0.96 283.93 199.76)" id="VC1Zw-CcnTaLqC2VNXKri"  >
<path style="stroke: rgb(0,0,0); stroke-width: 0; stroke-dasharray: none; stroke-linecap: butt; stroke-dashoffset: 0; stroke-linejoin: miter; stroke-miterlimit: 4; fill: rgb(76,66,64); fill-rule: nonzero; opacity: 1;" vector-effect="non-scaling-stroke"  transform=" translate(0, 0)" d="M 22.36622 -0.99795 C 25.08505 1.05775 24.42017 2.56188 24.0886 3.2250099999999997 C 23.75704 3.88814 20.90909 0.7812999999999999 20.90909 0.7812999999999999 C 20.90909 0.7812999999999999 16.65372 -1.4098800000000002 11.10179 -3.13402 C 5.54986 -4.85816 5.23884 -3.95085 -0.9282700000000013 -3.95085 C -7.095380000000001 -3.95085 -7.0061300000000015 -2.3347499999999997 -11.865340000000002 -0.21274000000000015 C -16.72455 1.9092799999999999 -20.990930000000002 7.1511 -20.990930000000002 7.1511 C -20.990930000000002 7.1511 -22.79791 6.49675 -23.663790000000002 6.49675 C -24.529670000000003 6.49675 -25.078730000000004 6.4205 -22.747700000000002 4.364789999999999 C -20.416670000000003 2.3090899999999994 -15.124900000000002 -1.5635900000000005 -15.124900000000002 -1.5635900000000005 C -15.124900000000002 -1.5635900000000005 -9.517820000000002 -5.422040000000001 -2.2369700000000012 -6.59987 C 5.043879999999999 -7.7777 8.507599999999998 -6.98721 14.3911 -4.99782 C 20.2746 -3.0084299999999997 19.64739 -3.05367 22.36622 -0.99797 z" stroke-linecap="round" />
</g>
<g transform="matrix(1 0 0 1 290.86 217.16)" id="ilpaGhLv6Sjm7AaRTYNS4"  >
<path style="stroke: rgb(0,0,0); stroke-width: 0; stroke-dasharray: none; stroke-linecap: butt; stroke-dashoffset: 0; stroke-linejoin: miter; stroke-miterlimit: 4; fill: rgb(76,66,64); fill-rule: nonzero; opacity: 1;" vector-effect="non-scaling-stroke"  transform=" translate(0, 0)" d="M 2.86175 -2.42607 C 0.23032999999999992 4.4097 -7.97967 1.08643 -7.97967 1.08643 L -4.651999999999999 5.79939 C -4.651999999999999 5.79939 2.357100000000001 8.51474 6.439120000000001 1.08643 C 10.52114 -6.34188 5.493180000000001 -9.26184 2.8617500000000007 -2.42607 z" stroke-linecap="round" />
</g>
<g transform="matrix(1.31 0 0 1.08 283.93 226.98)" id="WUVNpOldhoF0utxjkjiPw"  >
<radialGradient id="SVGID_11" gradientUnits="userSpaceOnUse" gradientTransform="matrix(1 0 0 1 -12.5 -12.5)"  cx="7.841795176109088" cy="7.748752691920359" r="7.556266006765668" fx="7.841795176109088" fy="7.748752691920359">
<stop offset="0%" style="stop-color:#818180;stop-opacity: 1"/>
<stop offset="30.587881975869873%" style="stop-color:#7E7E7E;stop-opacity: 1"/>
<stop offset="100%" style="stop-color:#4C4240;stop-opacity: 1"/>
</radialGradient>
<path style="stroke: rgb(101,70,161); stroke-width: 0; stroke-dasharray: none; stroke-linecap: butt; stroke-dashoffset: 0; stroke-linejoin: miter; stroke-miterlimit: 4; fill: url(#SVGID_11); fill-rule: nonzero; opacity: 1;" vector-effect="non-scaling-stroke"  transform=" translate(0, 0)" d="M 0 -12.5 C 6.9 -12.5 12.5 -6.9 12.5 0 C 12.5 6.9 6.9 12.5 0 12.5 C -6.9 12.5 -12.5 6.9 -12.5 0 C -12.5 -6.9 -6.9 -12.5 0 -12.5 z" stroke-linecap="round" />
</g>
<g transform="matrix(0.21 0 0 0.21 276.31 221.27)" id="CNSX7cONuUmbClqhfOcRC"  >
<filter id="SVGID_12" y="-36%" height="172%" x="-48%" width="196%" >
	<feGaussianBlur in="SourceAlpha" stdDeviation="2"></feGaussianBlur>
	<feOffset dx="3" dy="0" result="oBlur" ></feOffset>
	<feFlood flood-color="rgb(255,255,255)" flood-opacity="1"/>
	<feComposite in2="oBlur" operator="in" />
	<feMerge>
		<feMergeNode></feMergeNode>
		<feMergeNode in="SourceGraphic"></feMergeNode>
	</feMerge>
</filter>
<path style="stroke: rgb(101,70,161); stroke-width: 0; stroke-dasharray: none; stroke-linecap: butt; stroke-dashoffset: 0; stroke-linejoin: miter; stroke-miterlimit: 4; fill: rgb(255,255,255); fill-rule: nonzero; opacity: 1;filter: url(#SVGID_12);" vector-effect="non-scaling-stroke"  transform=" translate(0, 0)" d="M 0 -12.5 C 6.9 -12.5 12.5 -6.9 12.5 0 C 12.5 6.9 6.9 12.5 0 12.5 C -6.9 12.5 -12.5 6.9 -12.5 0 C -12.5 -6.9 -6.9 -12.5 0 -12.5 z" stroke-linecap="round" />
</g>
</svg>